<svg width="100" height="100" viewBox="0 0 100 100" xmlns="http://www.w3.org/2000/svg">
  <rect x="5" y="15" width="90" height="70" rx="4" fill="#ecf0f1" stroke="#2c3e50" stroke-width="2.5"/>
  
  <rect x="12" y="22" width="76" height="48" rx="2" fill="#ffffff" stroke="#2c3e50" stroke-width="1.5"/>
  
  <polyline points="18,55 30,45 42,50 55,35 68,45 80,30" fill="none" stroke="#2980b9" stroke-width="2" stroke-linecap="round" stroke-linejoin="round"/>
  
  <line x1="12" y1="34" x2="88" y2="34" stroke="#ecf0f1" stroke-width="1"/>
  <line x1="12" y1="46" x2="88" y2="46" stroke="#ecf0f1" stroke-width="1"/>
  <line x1="12" y1="58" x2="88" y2="58" stroke="#ecf0f1" stroke-width="1"/>
  
  <rect x="15" y="75" width="12" height="5" rx="1" fill="#bdc3c7" stroke="#2c3e50" stroke-width="1"/>
  <rect x="32" y="75" width="12" height="5" rx="1" fill="#bdc3c7" stroke="#2c3e50" stroke-width="1"/>
  <rect x="49" y="75" width="12" height="5" rx="1" fill="#bdc3c7" stroke="#2c3e50" stroke-width="1"/>
  
  <circle cx="78" cy="77.5" r="4" fill="#e74c3c" stroke="#2c3e50" stroke-width="1"/>
  
  <circle cx="82" cy="28" r="2" fill="#27ae60"/> <circle cx="82" cy="34" r="2" fill="#f1c40f"/> <text x="12" y="79" font-family="Arial, sans-serif" font-size="5" font-weight="bold" fill="#7f8c8d">HMI-PRO</text>
  
  <circle cx="10" cy="20" r="1" fill="#7f8c8d"/>
  <circle cx="90" cy="20" r="1" fill="#7f8c8d"/>
  <circle cx="10" cy="80" r="1" fill="#7f8c8d"/>
  <circle cx="90" cy="80" r="1" fill="#7f8c8d"/>
</svg>