<?xml version="1.0" encoding="utf-8"?>
<!-- Generator: Adobe Illustrator 28.0.0, SVG Export Plug-In . SVG Version: 6.00 Build 0)  -->
<svg version="1.1" id="Слой_1_xA0_Изображение_00000157295380473201972970000012225069622372743088_"
	 xmlns="http://www.w3.org/2000/svg" xmlns:xlink="http://www.w3.org/1999/xlink" x="0px" y="0px" viewBox="0 0 496.11 495.11"
	 style="enable-background:new 0 0 496.11 495.11;" xml:space="preserve">
<style type="text/css">
	.st0{fill:#FCFCFC;}
	.st1{fill:#437E7C;}
	.st2{fill:#174855;}
</style>
<g>
	<g>
		<path class="st0" d="M235.59,495.02c-77.14,0-154.28-0.02-231.41,0.08c-3.24,0-4.18-0.41-4.17-3.99
			C0.12,328.69,0.11,166.27,0.03,3.84c0-3.12,0.7-3.82,3.82-3.82C166.6,0.11,329.35,0.12,492.11,0c3.58,0,4,0.93,3.99,4.17
			c-0.11,76.8-0.08,153.61-0.08,230.41c-0.23-0.23-0.51-0.3-0.82-0.2c-0.98-9.91-1.81-19.84-3.65-29.63
			c-6.36-33.88-19.16-65.06-38.49-93.68C430.97,78.37,402.85,52.3,368.55,33C323.92,7.89,275.81-1.47,225.03,3.21
			c-32.57,3-63.53,12.05-92.36,27.74c-42.98,23.39-76.38,56.48-100.1,99.33c-15.28,27.61-25.11,56.91-28.87,88.35
			c-2.91,24.32-2.21,48.44,1.95,72.46c4.92,28.37,14.75,55.02,29.37,79.89c16.19,27.53,36.84,51.11,61.98,70.78
			c22.44,17.55,47.18,30.83,74.16,39.93c20.86,7.04,42.25,11.43,64.28,12.48C235.64,494.42,235.7,494.7,235.59,495.02z"/>
		<path class="st0" d="M496.02,261.53c0,76.5-0.03,153,0.1,229.5c0.01,3.42-0.67,4.09-4.09,4.09c-78.16-0.12-156.32-0.1-234.49-0.1
			c0-0.29,0.07-0.56,0.19-0.82c4.15-0.13,8.31-0.05,12.44-0.44c21.91-2.11,43.12-7.11,63.79-14.82
			c31.72-11.82,59.82-29.39,84.4-52.49c29.31-27.54,50.46-60.52,63.85-98.47c7.56-21.44,11.25-43.63,13.05-66.2l0.47,0.12
			L496.02,261.53z"/>
		<path class="st1" d="M496.02,261.53l-0.31,0.38l-0.47-0.12c-0.34-9.13-0.34-18.26-0.04-27.39c0.31-0.1,0.59-0.03,0.82,0.2
			C496.02,243.57,496.02,252.55,496.02,261.53z"/>
		<path class="st1" d="M257.72,494.2c-0.12,0.26-0.18,0.53-0.19,0.82c-7.32,0-14.63,0-21.95,0c0.11-0.31,0.06-0.6-0.15-0.85
			C242.87,493.76,250.3,493.72,257.72,494.2z"/>
		<path class="st2" d="M257.72,494.2c-7.43-0.47-14.86-0.44-22.29-0.03c-22.03-1.05-43.42-5.44-64.28-12.48
			c-26.97-9.1-51.72-22.38-74.16-39.93c-25.14-19.67-45.79-43.24-61.98-70.78c-14.62-24.87-24.46-51.51-29.37-79.89
			c-4.16-24.01-4.86-48.14-1.95-72.46c3.77-31.44,13.59-60.74,28.87-88.35c23.72-42.84,57.12-75.93,100.1-99.33
			c28.83-15.69,59.8-24.74,92.36-27.74C275.81-1.47,323.92,7.89,368.55,33c34.3,19.3,62.43,45.37,84.51,78.07
			c19.33,28.63,32.13,59.81,38.49,93.68c1.84,9.79,2.67,19.72,3.65,29.63c-0.29,9.13-0.3,18.26,0.04,27.39
			c-1.79,22.57-5.48,44.76-13.05,66.2c-13.39,37.94-34.54,70.93-63.85,98.47c-24.57,23.09-52.68,40.67-84.4,52.49
			c-20.67,7.7-41.87,12.71-63.79,14.82C266.04,494.15,261.87,494.06,257.72,494.2z M197.02,430.84c-1.06,3.4-2.44,6.76-0.53,10.34
			c0.27,0.51,0.26,1.43-0.02,1.93c-1.95,3.46,0.44,7.13-0.56,10.68c-0.29,1.04,0.39,2.86,2.03,2.86c1.31-0.01,2.68-0.8,2.62-2.44
			c-0.2-5.47,2.04-10.87,0.94-16.26c-0.7-3.43,0.58-5.55,2.62-7.76c2.49-2.7,1.85-5.86,0.88-8.84c-0.31-0.94-0.86-2.65-2.61-2.45
			c-1.92,0.22-3.04,1.17-2.73,3.28c-2.11-2.29-4.63-3.14-7.47-1.62c-2.31,1.24-3.01,3.57-2.36,5.92
			C190.8,430.03,193.54,431.18,197.02,430.84z M458.07,320.89c-5.97,0.08-11.94,0.2-17.91,0.23c-6.5,0.03-6.5-0.01-6.39,6.7
			c0.14,8.7,0.14,8.7,8.94,8.66c13.24-0.06,13.24-0.06,17.09-12.74c0.19-0.62,0.41-1.29,0.33-1.9c-0.05-0.37-0.65-0.67-1-1
			C458.75,320.41,458.4,320.43,458.07,320.89z M412.89,295.81c2.48,0.09,4.97,0.21,7.45,0.27c4.13,0.09,9.44-1.4,12.08,0.62
			c2.86,2.18,0.91,7.76,0.91,11.84c0,2.79,0.75,3.84,3.62,3.79c7.81-0.13,15.62-0.1,23.42,0.02c2.39,0.04,3.49-0.79,4.14-3.14
			c4.72-17.15,7.45-34.59,8.25-52.35c0.1-2.26-0.61-3.3-3.08-3.28c-11.13,0.1-22.26,0.1-33.39,0.02c-2.16-0.02-2.99,0.75-2.94,2.86
			c0.09,3.65-0.04,7.31,0.11,10.96c0.1,2.36-0.72,3.14-3.13,3.1c-5.97-0.11-11.95,0.06-17.93,0.12c-2.69-0.06-5.39-0.11-8.08-0.17
			c-4.15-0.01-8.3-0.01-12.46-0.02c-7.9-0.02-7.9-0.02-7.9-8.14c0-1.33-0.16-2.68,0.01-3.98c0.46-3.61-0.77-4.9-4.63-4.81
			c-11.62,0.26-23.25,0.11-34.88,0.04c-1.74-0.01-3.7,0.67-5.15-1c0.03-1.26,2.59-0.79,1.85-1.91c-2.09-3.17,0.36-3.26,2.22-3.62
			c1.91-0.37,3.89-0.57,5.84-0.58c10.23-0.07,20.46-0.01,30.7-0.13c1.53-0.02,3.93,1.06,4.15-1.99c0.01-3.16-0.21-6.34,0.08-9.47
			c0.32-3.46-1.18-4.21-4.31-4.16c-8.97,0.16-17.96-0.09-26.93,0.14c-3.08,0.08-3.97-0.73-3.91-3.83c0.22-9.8-0.02-19.62,0.22-29.42
			c0.08-3.14-0.92-5.32-3.09-7.43c-5.13-4.97-10.06-10.15-15.14-15.17c-3.13-3.09,0.57-4.09,1.7-5.83c1.25-1.93,2.59-2.1,4.32-0.29
			c5.85,6.12,11.79,12.17,17.77,18.17c1.89,1.9,2.62,4,2.58,6.69c-0.13,8.48,0.04,16.96-0.09,25.43c-0.04,2.56,0.71,3.51,3.38,3.44
			c6.81-0.17,13.63-0.13,20.45-0.06c2.1,0.02,3.03-0.66,2.95-2.86c-0.11-3.15,0.1-6.32-0.03-9.47c-0.1-2.3,0.6-3.25,3.06-3.24
			c14.46,0.07,28.93,0.04,43.39-0.04c2.14-0.01,2.98,0.72,2.89,2.87c-0.12,2.99,0.17,6-0.09,8.97c-0.28,3.21,1.05,3.91,4.01,3.86
			c9.97-0.17,19.95-0.25,29.92-0.02c3.73,0.08,4.04-1.54,3.66-4.5c-3.02-23.22-9.64-45.42-19.95-66.38
			c-17.64-35.86-42.87-65.26-76.01-87.81C323.7,29.06,267.59,17.09,206.78,28.4c-42.12,7.84-78.85,26.81-110.22,56.09
			c-19.72,18.41-35.9,39.47-48.17,63.53c-8.86,17.38-14.99,35.71-19.45,54.65c-0.47,0.41-0.67,0.88-0.29,1.46
			c-0.22,1.48-0.4,2.96-0.68,4.42c-6.93,35.95-4.53,71.37,6.6,106.13c16.06,50.16,46.37,89.69,89.89,119.23
			c2.94,1.99,4.52,1.81,6.96-0.76c9.23-9.77,18.73-19.27,28.13-28.87c0.66,2.88-1.23,7.51,4.68,6.76
			c-8.12,8.47-16.28,16.89-24.34,25.42c-4.34,4.59-4.2,4.61,1.13,7.53c13.64,7.48,27.9,13.47,42.71,18.19
			c0.36,0.45,0.79,0.72,1.39,0.5c2.09,0.51,4.21,0.93,6.26,1.56c2.43,0.75,3.33-0.01,3.29-2.54c-0.1-5.97-0.28-11.97,0.03-17.92
			c0.19-3.62-0.77-5.42-4.35-6.88c-7.68-3.15-10.01-11.78-5.6-18.67c2.31-3.61,6.14-4.83,9.88-6.18c2.25,4.16,3.89,4.95,6.07,2.97
			c1.5-1.36,0.87-3.11,0.88-4.68c0.06-15.27,0.01-30.54,0.08-45.81c0.01-1.73-0.73-3.68,0.89-5.17c0.05,16.9,0.1,33.81,0.15,50.71
			c0.01,2.3-0.03,4.41,1.75,6.44c3.67,4.2,4.98,11.24,0.16,16.78c-1.22,1.4-1.96,2.96-1.93,4.94c0.11,8.62,0.15,17.24,0.13,25.86
			c-0.01,2,0.72,2.88,2.71,3.33c5.32,1.21,10.65,2.27,16.1,2.64c2.57,1.52,5.38,0.96,8.13,0.92c4.83,0.99,9.7,1.29,14.61,0.93
			c2.84-0.02,5.68-0.04,8.51-0.06c12.23,0.84,24.17-1.63,36.17-3.26c0.59,0.3,1.03,0.07,1.41-0.39
			c21.97-4.44,42.86-11.93,62.64-22.47c1.66-0.88,3.94-1.16,4.47-3.53c3.32-0.02,5.24-2.69,7.83-4.1c2.11-0.14,3.59-1.56,5.23-2.62
			c19.83-12.79,37.07-28.49,52.11-46.61c10.29-12.4,19-25.88,26.25-40.3c1.11-2.21,1.56-3.56-1.84-3.37
			c-3.47,0.19-6.98,0.08-10.46-0.12c-2.34-0.13-3.38,0.65-3.3,3.05c0.1,2.65-0.14,5.33,0.1,7.97c0.29,3.21-0.77,4.26-4.11,4.2
			c-11.62-0.2-23.25-0.03-34.88-0.09c-3.28-0.02-7.41,1.34-9.62-0.62c-2.33-2.06-0.46-6.27-0.77-9.52
			c-0.06-0.66-0.06-1.33-0.01-1.99c0.18-2.1-0.66-3-2.85-2.89c-2.98,0.15-5.98,0.07-8.97,0.08c-2.38-2.5-4.85-4.83-8.76-3.94
			c-0.84-3.52,0.56-4.74,4.11-4.5c4.3,0.29,8.63,0.11,12.94,0.2c2.46,0.05,3.63-0.89,3.46-3.53c-0.19-2.98-0.26-5.99-0.05-8.96
			c0.21-2.93-1.01-3.67-3.74-3.66c-10.46,0.04-20.92-0.09-31.37-0.2c-5.36-0.06-5.56-0.09-5.46,5.19c0.06,2.91-0.93,3.62-3.67,3.59
			c-9.63-0.12-19.26-0.08-28.89,0.05c-2.58,0.04-3.85-0.4-3.86-3.43c-0.01-5.56-0.22-5.39-5.68-5.57
			c-5.34-0.18-10.51-0.32-13.67,5.12c-0.69-3.5,1.09-5.64,3.83-7.48c1.56-1.04,2.8-2.61,0.61-4.34c-0.75-0.59-1.3-1.01-0.19-1.71
			c2.62,0.1,5.25,0.26,7.87,0.28c6.96,0.06,7.03,0.03,7.21-6.68c0.06-2.37,0.6-3.57,3.33-3.4c3.6,0.23,7.23,0.03,10.85,0.02
			c2.87,0.22,5.75,0.3,8.61-0.1c2.15,0.05,4.31,0.14,6.46,0.15c6.8,0.02,6.92,0,7.08,6.57c0.06,2.48,0.63,3.53,3.34,3.5
			c11.43-0.12,22.87-0.1,34.31-0.01c2.46,0.02,3.18-0.96,3.09-3.23c-0.12-3.14,0.11-6.31-0.09-9.44c-0.17-2.7,0.56-3.81,3.51-3.67
			c5.46,0.25,10.93,0.12,16.4,0.14C406.89,296.4,409.92,296.78,412.89,295.81z M427.06,238.42c0-7.14,0.03-14.28-0.03-21.42
			c-0.01-1.28,0.65-2.79-2.01-2.96c-9.92-0.61-19.84-0.18-29.76-0.45c-3.53-0.1-5.13,0.9-5.06,4.75
			c0.26,13.92-0.19,27.84,0.88,41.75c0.2,2.58,1.02,3.46,3.56,3.44c9.46-0.09,18.93-0.09,28.39,0c3.03,0.03,4.11-1.25,4.07-4.19
			C426.99,252.36,427.06,245.39,427.06,238.42z M408.96,353.33c4.32,0,8.64,0.02,12.96-0.01c4.88-0.03,5.05-0.28,5.22-4.98
			c0.51-13.95-1.44-27.84-0.86-41.79c0.11-2.62-0.84-4.09-3.69-4.07c-9.47,0.04-18.95,0.01-28.42,0.01c-1.37,0-2.8,0.04-2.95,1.88
			c-0.31,3.62-1.08,7.3-0.7,10.85c0.77,7.29,0.79,14.48-0.06,21.78c-0.51,4.38-0.63,8.9,0.44,13.37c0.54,2.24,1.37,3.05,3.6,3
			C399.32,353.26,404.14,353.34,408.96,353.33z M453.15,244.97c0,0.04,0,0.08,0,0.12c3.16,0,6.32,0.04,9.48-0.01
			c12.43-0.17,10.22,2.71,10.17-10.79c-0.01-2.78-1.26-3.62-3.99-3.57c-8.48,0.15-16.96,0.07-25.44,0.06
			c-10.37-0.02-10.22-0.03-10.16,10.14c0.02,3.12,1.14,4.1,3.98,4.07C442.51,244.93,447.83,244.97,453.15,244.97z M325.82,308.34
			c-13.47,0.03-13.47,0.03-12.48,11.92c0.01,0.16,0.01,0.33,0.01,0.5c-0.07,1.92,0.95,2.63,2.76,2.62
			c5.97-0.02,11.94-0.01,17.91,0.01c2.24,0.01,3.17-1.06,3.43-3.3c1.32-11.26,0.94-11.75-10.14-11.74
			C326.81,308.34,326.32,308.34,325.82,308.34z"/>
		<path class="st0" d="M194.63,412.04c-3.74,1.35-7.57,2.57-9.88,6.18c-4.41,6.9-2.08,15.53,5.6,18.67
			c3.58,1.47,4.54,3.26,4.35,6.88c-0.32,5.96-0.14,11.95-0.03,17.92c0.04,2.53-0.86,3.3-3.29,2.54c-2.05-0.63-4.17-1.05-6.26-1.56
			c-0.34-0.52-0.82-0.63-1.39-0.5c-14.81-4.72-29.07-10.71-42.71-18.19c-5.33-2.92-5.47-2.94-1.13-7.53
			c8.06-8.53,16.22-16.95,24.34-25.42c2.79-3.04,7.22-4.85,7.45-9.83c0.11-7.97,0.21-15.94,0.32-23.91c1.35-0.3,2.29-1.27,3.35-2.04
			c4.44-3.23,5.67-7.71,4.31-12.73c-1.36-5.01-4.94-8.28-10.05-9.19c-5.22-0.93-9.32,1.18-11.99,5.86
			c-3.59,5.9-2.93,10.81,2.09,15.66c0.52,1.44,1.84,1.82,3.08,2.3c0.23,0.26,0.51,0.37,0.85,0.34l-0.13-0.12
			c-0.02,0.33,0.06,0.63,0.25,0.9c0.03,0.34,0.05,0.68,0.08,1.01c0,6.64,0,13.27,0,19.91c-1.43,1.69-2.86,3.39-4.29,5.08
			c-9.4,9.6-18.9,19.11-28.13,28.87c-2.43,2.58-4.02,2.76-6.96,0.76c-43.52-29.55-73.83-69.07-89.89-119.23
			c-11.13-34.76-13.53-70.18-6.6-106.13c0.28-1.46,0.46-2.95,0.68-4.42c0.1-0.49,0.19-0.97,0.29-1.46
			c4.46-18.94,10.59-37.27,19.45-54.65c12.26-24.07,28.44-45.12,48.17-63.53c31.37-29.28,68.09-48.25,110.22-56.09
			c60.81-11.32,116.92,0.66,168.13,35.5c33.14,22.55,58.37,51.95,76.01,87.81c10.31,20.96,16.93,43.16,19.95,66.38
			c0.39,2.96,0.08,4.59-3.66,4.5c-9.97-0.23-19.95-0.15-29.92,0.02c-2.96,0.05-4.29-0.65-4.01-3.86c0.26-2.97-0.03-5.98,0.09-8.97
			c0.09-2.16-0.75-2.89-2.89-2.87c-14.46,0.08-28.93,0.11-43.39,0.04c-2.46-0.01-3.16,0.94-3.06,3.24c0.13,3.15-0.08,6.32,0.03,9.47
			c0.07,2.2-0.85,2.88-2.95,2.86c-6.81-0.07-13.63-0.12-20.45,0.06c-2.67,0.07-3.42-0.88-3.38-3.44c0.12-8.48-0.04-16.96,0.09-25.43
			c0.04-2.69-0.69-4.79-2.58-6.69c-5.98-6-11.91-12.05-17.77-18.17c-1.73-1.81-3.07-1.64-4.32,0.29c-1.13,1.75-4.83,2.74-1.7,5.83
			c5.08,5.02,10.01,10.2,15.14,15.17c2.17,2.1,3.17,4.29,3.09,7.43c-0.24,9.8,0,19.62-0.22,29.42c-0.07,3.1,0.82,3.91,3.91,3.83
			c8.97-0.22,17.95,0.02,26.93-0.14c3.13-0.06,4.63,0.7,4.31,4.16c-0.29,3.13-0.08,6.31-0.08,9.47c-13.58,0.92-27.18,0.26-40.77,0.4
			c-0.23-0.28-0.52-0.4-0.87-0.36l0.05,0.13c-4.31-5.72-9.66-10.45-14.78-15.4c-1.24-1.2-2.67-1.87-4.45-1.87
			c-10.29,0.05-20.59-0.04-30.88,0.13c-4.35,0.07-4.9,1.06-3.74,5.13c4.86,17.08-0.62,33-14.96,43.45
			c-7.51,5.47-15.88,8.24-25.19,7.48c-3.38-0.28-4.13,0.91-4.03,4.09c0.25,7.96,0.14,15.93,0.18,23.9
			c-3.89,1.94-8.05,0.41-12.05,0.91c-2.71,0.34-4.34-0.65-5.96-3.09c-4.83-7.26-13.23-7.5-19.09-0.91
			c-3.69,3.41-3.56,7.62-2.54,12.02c4.03,9.72,15.26,11.43,21.66,3.27c1.09-1.39,1.78-3.21,3.95-3.26
			c3.45,0.04,6.91,0.26,10.35,0.08c2.72-0.14,3.81,0.63,3.68,3.53c-0.19,4.1,0.03,8.22,0.08,12.33c-0.63,1.5-2.15,0.82-3.19,1.3
			c-10.59-0.05-21.18-0.1-31.77-0.13c-3.97-0.01-7.95,0.17-11.92,0.05c-2.66-0.08-3.25,1.04-3.24,3.53
			c0.14,21.38,0.15,42.76,0.19,64.13c-0.33,1.02-0.33,2.04-0.02,3.07c0,0.97,0,1.94,0,2.92
			C194.56,411.43,194.52,411.72,194.63,412.04z M138.82,292.37l0.08,0.1c-0.07-0.98-0.3-1.89-1.07-2.58l0.14-0.21l-0.16-0.19
			c-1.22-3.57-2.15-7.23-3.96-10.58c0.33-0.52,0.17-0.99-0.13-1.45c0.01-0.69-0.11-1.29-0.87-1.55c0.54-0.5,0.28-0.96-0.07-1.42
			c-0.13-0.97-0.23-1.95-0.39-2.92c-1.61-9.93-3.19-19.85-2.08-29.97c1.19-7.83,1.9-15.73,4.34-23.34
			c3.1-9.68,6.99-18.99,12.71-27.43c1.65-2.44,1.39-4.05-0.93-5.81c-3.57-2.7-7.03-5.55-10.39-8.51c-2.23-1.97-3.43-2.15-5.18,0.82
			c-7.12,12.09-12.58,24.78-15.79,38.47c-7.97,33.97-3.68,66.21,13.35,96.68c2.99,5.35,6.3,10.52,10.33,15.21
			c1.52,1.77,2.68,2.07,4.42,0.41c3.12-2.98,6.31-5.89,9.52-8.77c1.37-1.23,1.5-2.46,0.43-3.91c-4.91-6.68-8.73-14.04-13.24-20.97
			C139.78,293.62,139.61,292.84,138.82,292.37z M192.6,293.05c-6.81,5.85-12.63,12.69-18.9,19.07
			c-16.18,16.44-32.12,33.13-48.13,49.75c-8.53,8.85-17.02,17.73-25.48,26.64c-0.95,1-2.98,2.05-1.99,3.54
			c1.34,2.02,3.18,4.04,5.3,5.09c1.24,0.61,2.52-1.78,3.64-2.93c21.9-22.48,43.76-44.99,65.63-67.49
			c8.43-8.68,17.03-17.2,24.99-26.33c1.84-1.74,4.01-3.18,5.06-5.62c1.06-0.28,1.92,0.32,2.85,0.63c8.65,2.85,12.69,1.39,17.56-6.34
			c4.07-6.45,8.37-12.78,12.07-19.43c2.31-4.14,4.77-5.1,9.45-3.96c16.38,3.97,29.84-10.12,28.3-25.14
			c-0.62-6.04,0.79-10.11,4.46-14.18c1.44-1.6,2.68-3.38,4.02-5.07c32.11-40.19,64.56-80.12,95.79-121.01
			c1.22-1.6,4.7-3.62,2.88-5.21c-1.8-1.58-3.6,1.95-5.13,3.45c-23.47,23.03-46.81,46.19-69.77,69.73
			c-14.84,15.21-29.94,30.17-44.66,45.5c-2.83,2.94-5.41,4.3-9.44,3.79c-6.69-0.85-12.81,0.67-18.1,5.16
			c-8.2,6.96-10.68,15.75-8.15,25.94c0.69,2.79,0.03,4.18-2.12,5.7c-7.17,5.07-14.23,10.3-21.34,15.46
			c-3.21,2.33-5.58,5.12-5.81,9.35c-0.18,3.19,0.14,6.29,1.04,9.35C194.71,289.48,193.74,291.34,192.6,293.05z M247.63,191.5
			c-11.19-0.24-21.32,2.87-30.07,9.9c-2.21,1.77-3.88,1.82-6.12,0.31c-2.89-1.94-5.92-3.68-8.95-5.39
			c-24.56-13.83-49.13-27.66-73.73-41.42c-3.14-1.76-6.15-3.91-10.71-5.03c1.57,1.48,2.39,2.3,3.26,3.05
			c25.15,21.93,50.26,43.92,75.55,65.69c3.07,2.64,3.64,4.97,2.33,8.49c-1.8,4.86-2.41,9.95-2.61,15.15
			c-0.13,3.36,0.72,5.06,4.34,4.49c0.65-0.1,1.35-0.14,1.99-0.02c3.83,0.71,4.57-0.96,4.6-4.6c0.12-21.12,15.85-38.2,37.02-40.58
			c4.96,0.39,10.04-0.43,14.89,0.83c3.28,0.85,4.41-0.47,5.21-3.24c2.54-8.76,5.18-17.5,7.79-26.24
			c6.35-21.3,12.82-42.57,18.93-63.94c1.1-3.85,3.06-7.59,3.01-12.51c-2.07,2.44-2.53,4.94-3.68,7.06
			c-10.96,20.31-20.06,41.52-30.02,62.32C256.51,174.48,253.05,183.49,247.63,191.5z M251.69,111.62
			c-22.47-0.3-41.9,3.94-60.48,12.22c-15.83,7.05-29.4,17.22-41.43,29.6c-2.04,2.1-1.47,3.14,0.75,4.4
			c3.46,1.96,6.82,4.09,10.19,6.21c5.91,3.72,4.66,3.37,9.56-0.8c15.88-13.51,33.93-22.38,54.6-25.85
			c12.24-2.05,24.42-2.18,36.62,0.03c2.01,0.36,3.67,0.7,4.84-1.91c2.84-6.36,6.04-12.57,9.18-18.79c1.02-2.02,0.71-2.66-1.66-3.14
			C265.83,111.97,257.75,111.51,251.69,111.62z M324.84,135.56c-0.01-1.02-0.8-1.37-1.45-1.81c-7.97-5.42-16.52-9.74-25.39-13.49
			c-1.82-0.77-2.34,0.11-2.75,1.61c-1.95,7.01-3.88,14.03-5.98,20.99c-0.6,2-0.02,3.02,1.67,3.97c4.33,2.43,8.67,4.86,12.81,7.58
			c1.7,1.11,2.56,0.71,3.72-0.51c5.46-5.76,10.95-11.48,16.43-17.22C324.25,136.33,324.54,135.92,324.84,135.56z M98.64,169.95
			c0.22-1.44-0.71-1.67-1.38-2.03c-10.22-5.43-20.47-10.81-30.66-16.28c-1.61-0.86-2.37-0.41-3.05,1.06
			c-0.62,1.35-1.26,2.7-2.08,3.94c-1.5,2.28-0.57,3.54,1.54,4.63c9.84,5.06,19.64,10.2,29.48,15.26c0.75,0.39,1.74,1.47,2.53,0.12
			C96.36,174.37,97.54,172.01,98.64,169.95z M64.88,345.87c0.54-0.24,0.85-0.36,1.15-0.51c10.26-5.4,20.5-10.82,30.77-16.2
			c1.53-0.8,1.69-1.79,0.9-3.2c-0.65-1.15-1.29-2.32-1.75-3.56c-0.94-2.55-2.26-2.95-4.73-1.62c-9.19,4.94-18.44,9.76-27.76,14.43
			c-2.91,1.46-3.89,3.01-1.96,5.9c0.73,1.09,1.12,2.4,1.78,3.55C63.65,345.3,64.04,346.18,64.88,345.87z M403.97,177.01
			c0.65-0.31,1.55-0.72,2.43-1.17c8.96-4.59,17.85-9.32,26.91-13.7c3.53-1.71,4.02-3.62,1.91-6.64c-0.38-0.54-0.67-1.15-0.9-1.76
			c-0.9-2.4-2.25-2.59-4.46-1.41c-9.6,5.15-19.24,10.21-28.94,15.18c-2,1.02-2.19,2.07-1.13,3.84c0.85,1.41,1.54,2.92,2.26,4.4
			C402.4,176.46,402.55,177.37,403.97,177.01z M367.44,144.64c-7.07,0.03-12.35,5.5-12.29,12.75c0.05,6.46,5.58,11.88,12.12,11.9
			c6.71,0.02,12.25-5.54,12.26-12.31C379.55,149.96,374.3,144.61,367.44,144.64z M253.71,61.46c0-5.32-0.28-10.65,0.09-15.94
			c0.28-4.01-1.68-4.37-4.74-4.07c-2.61,0.26-5.59-0.87-5.37,3.99c0.44,9.62,0.17,19.26,0.23,28.9c0.04,6.42-1.04,5.58,5.9,5.7
			c0.33,0.01,0.67-0.03,1,0.02c2.55,0.4,3.01-0.89,2.94-3.16C253.61,71.76,253.72,66.61,253.71,61.46z M163.6,99.54
			c-0.17-0.28-0.35-0.56-0.52-0.85c-5.71-9.5-11.45-18.99-17.12-28.51c-0.95-1.6-1.93-1.41-3.24-0.54
			c-1.38,0.91-2.86,1.67-4.27,2.53c-1.73,1.05-1.96,2.2-0.81,4.07c5.37,8.73,10.63,17.54,15.82,26.38c1.4,2.39,2.82,2.95,5.08,1.17
			c1.16-0.92,2.51-1.6,3.77-2.4C163,100.95,163.81,100.6,163.6,99.54z M341.37,105.22c1.21-0.21,1.66-0.87,2.08-1.59
			c5.5-9.21,10.99-18.42,16.54-27.59c1-1.65,0.74-2.7-0.91-3.57c-0.87-0.46-1.72-0.99-2.5-1.59c-2.61-2.01-4.39-2.3-6.33,1.26
			c-4.41,8.11-9.37,15.93-14.05,23.9c-0.87,1.48-2.89,3.34-1.61,4.72C336.43,102.73,339.2,103.86,341.37,105.22z M58.97,247.55
			c0-0.02,0-0.04,0-0.06c-4.96,0-9.94,0.21-14.89-0.07c-3.35-0.19-4.44,1.04-4.02,4.18c0.13,0.97,0.02,1.99-0.07,2.97
			c-0.18,2.01,0.45,3.03,2.72,3.02c10.92-0.06,21.84-0.04,32.76,0.02c1.92,0.01,2.71-0.69,2.57-2.6c-0.09-1.32-0.15-2.66,0-3.97
			c0.35-2.91-0.97-3.65-3.69-3.55C69.24,247.68,64.1,247.55,58.97,247.55z M338.63,63.15c0.03-1.95-1.83-1.94-2.93-2.69
			c-1.12-0.77-1.77-0.26-2.26,0.84c-2.37,5.29-4.72,10.6-7.18,15.85c-0.75,1.61-0.4,2.42,1.28,2.89c1.17,0.32,2.47,1.84,3.38-0.06
			C333.55,74.45,336.03,68.84,338.63,63.15z M310.15,73.09c1.92,0.06,2.08-1.1,2.44-2.23c1.59-5.01,3.06-10.07,4.98-14.96
			c0.97-2.48-0.21-2.63-1.96-3.24c-1.89-0.66-2.82-0.79-3.47,1.59c-1.34,4.9-3.17,9.67-4.7,14.52
			C306.63,71.4,307.95,73.14,310.15,73.09z M274.13,45.38c1.18-2.33-0.71-2.35-2.33-2.9c-2.54-0.87-2.89,0.84-3.11,2.47
			c-0.67,4.89-1.17,9.81-1.8,14.7c-0.21,1.61-0.99,3.05,1.72,3.57c2.82,0.55,3.5-0.63,3.76-2.94
			C272.92,55.38,273.53,50.47,274.13,45.38z M135.62,99.54c-0.37-0.56-0.69-1.13-1.09-1.65c-3.2-4.18-6.49-8.31-9.59-12.56
			c-1.23-1.68-2.26-1.43-3.61-0.34c-1.25,1-2.23,1.84-0.84,3.59c3.48,4.38,6.84,8.86,10.2,13.34c0.73,0.97,1.5,1.3,2.45,0.51
			C134.11,101.62,135.47,101.1,135.62,99.54z M204.19,46c-0.51,0.79-3.35-0.51-2.83,2.23c1.08,5.66,2.41,11.27,3.7,16.89
			c0.48,2.09,1.97,1.67,3.5,1.33c1.51-0.34,2.38-0.89,1.96-2.65c-1.25-5.29-2.45-10.6-3.61-15.92
			C206.65,46.62,206.31,45.63,204.19,46z M63.36,290.58c-5.54,1.53-11.29,3.08-17.01,4.72c-1.87,0.54-0.7,1.83-0.49,2.84
			c0.26,1.28,0.35,2.87,2.33,2.37c5.45-1.38,10.89-2.81,16.32-4.27c1.6-0.43,1.5-1.54,0.82-2.71
			C64.76,292.56,65.76,290.63,63.36,290.58z M190.55,69.82c-1.76-5.4-3.55-11.04-5.43-16.64c-0.69-2.05-2.11-0.85-3.24-0.51
			c-0.96,0.29-2.7,0.01-2.11,1.87c1.79,5.63,3.69,11.22,5.55,16.83c0.49,1.49,1.44,1.52,2.7,0.92
			C189.09,71.76,190.86,72.11,190.55,69.82z M56.5,173.8c-2.22,0-2.04,1.89-2.74,3.07c-0.93,1.57,0.15,2.02,1.24,2.48
			c4.87,2.03,9.74,4.03,14.62,6.04c1.14,0.47,2.25,0.78,2.69-0.9c0.34-1.29,2.07-2.81-0.06-3.8C67.03,178.26,61.7,176.06,56.5,173.8
			z M171.68,78.06c-0.02-0.25,0-0.43-0.06-0.57c-2.6-5.53-5.15-11.09-7.84-16.58c-0.97-1.97-2.3-0.22-3.38,0.05
			c-1.24,0.31-1.86,0.98-1.12,2.55c2.41,5.07,4.6,10.24,6.92,15.35c0.45,0.99,0.83,2.29,2.48,1.34
			C169.77,79.57,171.29,79.56,171.68,78.06z M407.94,148.72c0.23-0.07,0.41-0.08,0.54-0.17c4.98-3.23,10.03-6.34,14.87-9.76
			c1.91-1.34-0.42-2.51-0.87-3.72c-0.48-1.29-1.31-1.69-2.66-0.74c-4.46,3.12-8.98,6.14-13.49,9.18c-0.89,0.6-1.65,1.35-0.88,2.4
			C406.19,146.92,406.6,148.29,407.94,148.72z M55.29,322.03c5.04-1.91,10.46-3.85,15.78-6.02c2.03-0.83,0.88-2.48,0.39-3.8
			c-0.41-1.09-0.68-2-2.4-1.28c-5.16,2.15-10.42,4.06-15.67,6c-1.63,0.6-1.32,1.53-0.72,2.68C53.2,320.64,52.8,322.48,55.29,322.03z
			 M45.29,277.86c5.23-0.61,9.66-1.16,14.1-1.65c2.03-0.22,2.79-1.2,2.6-3.29c-0.21-2.33-1.41-2.59-3.37-2.31
			c-4.91,0.68-9.84,1.31-14.78,1.77c-1.88,0.18-2.4,0.71-2.41,2.71C41.43,279.09,43.81,278.15,45.29,277.86z M88.59,380.05
			c0.17-0.11,0.32-0.2,0.44-0.3c4.51-3.87,9.07-7.67,13.48-11.65c1.5-1.35-0.29-2.3-0.99-3.26c-0.54-0.74-1.06-1.76-2.27-0.71
			c-4.39,3.76-8.81,7.47-13.21,11.22c-0.69,0.59-0.96,1.35-0.21,2.12C86.72,378.36,87.22,379.68,88.59,380.05z M287.29,63.91
			c-0.72,1.92,0.92,2.36,2.61,2.84c2.19,0.62,2.39-0.79,2.74-2.38c1.08-4.86,2.17-9.72,3.5-14.52c0.66-2.37-0.46-2.66-2.31-3.22
			c-2-0.61-2.68-0.03-3.08,1.78C289.68,53.43,288.52,58.44,287.29,63.91z M381.35,116.84c0.35-0.16,0.71-0.23,0.93-0.45
			c4.16-4.22,8.4-8.37,12.38-12.75c1.59-1.74-0.88-2.38-1.61-3.44c-0.75-1.09-1.55-1.39-2.7-0.18c-3.73,3.95-7.58,7.78-11.37,11.67
			c-0.79,0.81-1.78,1.61-0.58,2.82C379.29,115.4,379.94,116.65,381.35,116.84z M395.59,131.94c0.35-0.22,0.78-0.43,1.14-0.73
			c4.27-3.4,8.51-6.83,12.79-10.22c1.82-1.45,0.57-2.48-0.34-3.69c-1.08-1.45-2.02-1.89-3.59-0.49c-3.83,3.41-7.8,6.66-11.67,10.03
			c-0.63,0.55-2,0.94-1.08,2.23C393.59,130.13,394.06,131.47,395.59,131.94z M92.29,144.87c0.11-0.7-0.91-1.14-1.68-1.67
			c-4.06-2.82-8.12-5.65-12.24-8.39c-1.11-0.74-2.35-2.08-3.56,0.22c-0.94,1.79-1.66,3.01,0.63,4.43c4.21,2.59,8.2,5.52,12.33,8.24
			C89.57,148.89,92.03,147.58,92.29,144.87z M67.93,197.28c0.11-1.14-0.42-1.6-1.31-1.88c-5.02-1.56-10.03-3.16-15.04-4.73
			c-1.92-0.6-2.52,0.42-3.03,2.1c-0.52,1.71-0.64,2.64,1.46,3.24c4.74,1.35,9.42,2.89,14.07,4.52
			C67.58,201.75,67.06,198.71,67.93,197.28z M230.8,60.27c-0.74-5.6-1.51-10.34-1.92-15.1c-0.21-2.43-1.43-2.35-3.26-2.38
			c-2.37-0.03-2.26,1.33-2.07,2.88c0.65,5.41,1.34,10.82,1.99,16.24c0.14,1.16,0.58,1.76,1.9,1.61
			C229.96,63.25,231.56,62.35,230.8,60.27z M119.8,113.35c-0.55-0.63-1.04-1.23-1.57-1.8c-3.36-3.62-6.73-7.23-10.09-10.85
			c-1.14-1.22-2.09-2.58-3.89-0.61c-1.44,1.57-2.08,2.68-0.23,4.45c3.68,3.53,7.17,7.26,10.75,10.89c0.53,0.54,1.03,1.47,1.97,0.72
			C117.75,115.34,118.67,114.4,119.8,113.35z M75.66,362.99c0.19-0.1,0.34-0.17,0.48-0.26c4.82-3.17,9.67-6.31,14.44-9.56
			c1.31-0.9,0.68-2.1-0.23-2.9c-0.74-0.65-0.97-2.54-2.55-1.53c-4.71,3.04-9.36,6.18-14.04,9.28c-1.18,0.78-0.72,1.62-0.12,2.49
			C74.26,361.39,74.31,362.74,75.66,362.99z M44.93,207.92c-0.61,2.06,0.45,2.55,2.2,2.91c4.5,0.93,8.95,2.08,13.42,3.16
			c1.59,0.39,3.09,1.2,3.57-1.57c0.42-2.38-0.5-3.34-2.52-3.79c-4.65-1.04-9.33-1.94-13.94-3.1C45.24,204.92,44.78,206,44.93,207.92
			z M105.29,128.59c-0.35-0.48-0.57-0.93-0.92-1.22c-4.3-3.63-8.64-7.21-12.92-10.85c-1.51-1.28-2.34-0.45-3.14,0.8
			c-0.77,1.19-1.93,2.11,0,3.58c4.21,3.19,8.2,6.68,12.29,10.03c0.74,0.6,1.53,1.48,2.51,0.4
			C103.88,130.48,104.55,129.54,105.29,128.59z M44.12,226.95c-2.38-1.09-2.23,0.83-2.53,2.56c-0.33,1.87-0.49,3.11,2.1,3.22
			c4.8,0.21,9.6,0.67,14.37,1.23c1.92,0.22,3.15,0.32,3.3-2.17c0.13-2.09-0.44-3.02-2.59-3.21
			C53.99,228.14,49.22,227.53,44.12,226.95z M294.9,94.73c-0.03,0.15-0.09,0.3-0.09,0.44c0,0.05,0.13,0.1,0.2,0.15
			c0.03-0.15,0.08-0.29,0.07-0.44C295.08,94.84,294.96,94.79,294.9,94.73z M117.4,149.5l0.2-0.27l-0.35-0.03L117.4,149.5z"/>
		<path class="st0" d="M339.32,252.55c1.45,1.68,3.41,0.99,5.15,1c11.63,0.07,23.26,0.22,34.88-0.04c3.87-0.09,5.1,1.2,4.63,4.81
			c-0.17,1.31-0.01,2.65-0.01,3.98c0,8.12,0,8.12,7.9,8.14c4.15,0.01,8.3,0.02,12.46,0.02c0.06,5.14,0.24,10.27,0.13,15.4
			c-0.07,3.45,0.84,6.97-0.59,10.34c-5.47-0.03-10.94,0.11-16.4-0.14c-2.95-0.14-3.68,0.98-3.51,3.67c0.2,3.14-0.02,6.3,0.09,9.44
			c0.09,2.27-0.63,3.25-3.09,3.23c-11.43-0.1-22.87-0.12-34.31,0.01c-2.71,0.03-3.28-1.03-3.34-3.5c-0.16-6.57-0.28-6.56-7.08-6.57
			c-2.15,0-4.31-0.1-6.46-0.15c-0.81-3.61-0.14-7.27-0.43-10.9c-0.17-2.09,0.59-3.07,2.77-2.99c2.97,0.1,5.97,0.27,8.93,0.05
			c3.65-0.27,6.4,0.17,8.8,3.72c2.66,3.94,7.18,5.24,11.96,3.94c4.83-1.31,8.24-4.36,9.3-9.37c1.05-4.98-0.73-9.2-4.65-12.34
			c-5.97-4.77-13.67-3.47-17.99,3.24c-1.49,2.31-3,3.02-5.58,2.94c-5.46-0.17-10.94-0.04-16.41-0.02c-4.83,0.02-4.78,0.04-5,4.96
			c-0.25,5.62,0.57,11.25-0.31,16.85c-3.62,0.01-7.25,0.22-10.85-0.02c-2.74-0.18-3.27,1.02-3.33,3.4
			c-0.18,6.72-0.26,6.74-7.21,6.68c-2.62-0.02-5.25-0.18-7.87-0.28c-0.73-2.34-1.81-4.44-4.04-5.72c-4.69-4.01-9.63-4.2-14.8-0.97
			c-0.79-0.08-1.29,0.28-1.58,0.99c-5.43,5.92-5.83,12.74-1.05,18.08c4.53,5.06,11.25,5.47,17.18,1.03l0.03,0.12
			c3.16-5.45,8.33-5.3,13.67-5.12c5.46,0.18,5.67,0.01,5.68,5.57c0.01,3.03,1.28,3.47,3.86,3.43c9.63-0.14,19.26-0.17,28.89-0.05
			c2.74,0.03,3.72-0.67,3.67-3.59c-0.11-5.29,0.1-5.25,5.46-5.19c10.46,0.11,20.92,0.24,31.37,0.2c2.73-0.01,3.95,0.72,3.74,3.66
			c-0.21,2.97-0.15,5.98,0.05,8.96c0.17,2.64-0.99,3.58-3.46,3.53c-4.31-0.08-8.64,0.09-12.94-0.2c-3.55-0.24-4.95,0.98-4.11,4.5
			c-0.36,2.7-0.38,5.39-0.01,8.09c-0.35,8.87-0.35,8.87-9.26,9.07c-1.16,0.03-2.31,0.13-3.47,0.17c-7.03,0.22-7.05,0.22-7.37-6.78
			c-0.08-1.71,0.1-3.45-2.42-3.36c-10.26,0.38-20.53-0.29-30.79,0.31c-2.42,0.14-2.96,0.97-3.04,3.26c-0.24,7-0.35,6.99-7.4,6.93
			c-0.66-0.01-1.33-0.08-1.99,0.01c-3.58,0.45-6.42-0.29-7.83-4.13c-0.49-1.33-1.5-2.61-3.25-2.74c-4.78-3.45-9.53-3.32-14.26,0.1
			c-1.34,0.67-2.3,1.7-2.96,3.04c-1.24,2.5-3.23,3.27-5.98,3.09c-3.3-0.23-6.62-0.05-9.94-0.05c-0.11-20.6-0.18-41.21-0.38-61.81
			c-0.03-2.87,0.76-3.76,3.8-4.21c17.2-2.58,30.09-11.52,38.02-27.15c4.08-8.05,5.37-16.69,4.52-25.61
			c-0.3-3.16,0.72-4.02,3.81-3.87c5.14,0.25,10.31,0.16,15.45-0.02c2.37-0.08,4.02,0.76,5.68,2.36c2.57,2.47,4.45,5.72,7.9,7.23
			c0.02,1.27,0.76,2.01,1.84,2.49c0.71,0.7,1.41,1.39,2.12,2.09C337.03,251.05,337.96,252.03,339.32,252.55z"/>
		<path class="st0" d="M244.35,471.92c-4.91,0.36-9.78,0.06-14.61-0.93c0.01-26.89,0.13-53.79-0.06-80.68
			c-0.03-4.71,1.19-8.19,4.71-11.32c4.08-3.62,7.13-9.02,11.77-11.22c4.86-2.3,11.11-0.39,16.74-0.68c2.99-0.15,5.04,0.62,7.09,3.15
			c3.09,3.79,7.16,6.41,12.55,4.35c3.15-0.36,5.85-1.79,7.34-4.5c1.34-2.44,3.03-3.15,5.59-2.91c1.81,0.17,3.64,0.03,5.46,0.02
			c5.69-0.03,5.94-0.03,5.97,5.81c0.01,3.17,1.39,3.38,3.87,3.35c9.11-0.12,18.22-0.08,27.33-0.1c5.15-0.01,5.4-0.03,5.14-5.31
			c-0.18-3.49,1.25-4.1,4.27-4.04c6.95,0.16,13.92-0.1,20.87,0.12c2.94,0.09,3.74-0.92,3.6-3.68c-0.27-5.62-0.3-11.25-0.43-16.87
			c0.23-0.41,0.46-0.82,0.7-1.24c2.99-0.02,5.98,0.07,8.97-0.08c2.19-0.11,3.04,0.79,2.85,2.89c-0.06,0.66-0.06,1.33,0.01,1.99
			c0.31,3.25-1.57,7.46,0.77,9.52c2.22,1.96,6.34,0.6,9.62,0.62c11.63,0.06,23.26-0.11,34.88,0.09c3.34,0.06,4.4-0.99,4.11-4.2
			c-0.24-2.64,0-5.31-0.1-7.97c-0.09-2.39,0.96-3.18,3.3-3.05c3.48,0.2,6.98,0.31,10.46,0.12c3.4-0.18,2.95,1.16,1.84,3.37
			c-7.25,14.41-15.95,27.9-26.25,40.3c-15.04,18.12-32.28,33.82-52.11,46.61c-1.64,1.06-3.12,2.48-5.23,2.62
			c-0.04-10.3-0.18-20.6-0.05-30.9c0.04-3.07-0.89-4.07-3.96-3.99c-5.97,0.16-11.96-0.04-17.94-0.09c-0.03-2.32-0.14-4.64-0.08-6.95
			c0.05-1.93-0.29-3.04-2.67-3.01c-10.27,0.12-20.55,0.12-30.82,0.02c-2.37-0.02-2.6,1.11-2.69,3.02c-0.12,2.42,0.76,4.96-0.67,7.26
			c-3.15-0.06-6.32-0.33-9.46-0.12c-3.11,0.2-5.03-0.66-6.81-3.5c-4.33-6.89-14.23-8.04-19.1-1.55c-3.66,4.88-7.69,5.31-12.73,5.02
			c-2.65-0.15-5.32-0.04-7.97-0.04c-6.52,0-5.88-0.61-5.9,5.86C244.46,430.05,244.41,450.98,244.35,471.92z"/>
		<path class="st0" d="M357.55,442.19c-0.53,2.38-2.81,2.65-4.47,3.53c-19.78,10.55-40.67,18.03-62.64,22.47
			c-0.55-0.16-1.03-0.07-1.41,0.39c-12.01,1.63-23.94,4.1-36.17,3.26c-0.01-17.11-0.09-34.22-0.01-51.34
			c0.05-10.55-1.31-8.92,9.37-9.23c3.49-0.1,5.89,0.6,8.25,3.7c4.48,5.89,13.56,6.25,18.41,0.61c3.07-3.57,6.36-4.22,10.47-4.08
			c2.32,0.08,4.64-0.1,6.97-0.16c1.25,1.6,1.05,3.5,0.83,5.26c-0.39,3.13,0.89,3.97,3.86,3.9c7.97-0.2,15.94-0.13,23.91-0.19
			c8.32-0.06,8.32-0.06,8.48-8.15c2.82-1.48,5.87-0.7,8.81-0.78c4.97-0.13,4.97-0.02,5.02,4.9
			C357.31,424.93,356.86,433.57,357.55,442.19z"/>
		<path class="st0" d="M221.61,470.06c-5.45-0.37-10.78-1.43-16.1-2.64c-1.99-0.45-2.71-1.34-2.71-3.33
			c0.03-8.62-0.02-17.24-0.13-25.86c-0.03-1.98,0.71-3.54,1.93-4.94c4.82-5.54,3.51-12.58-0.16-16.78
			c-1.78-2.03-1.74-4.14-1.75-6.44c-0.05-16.9-0.1-33.81-0.15-50.71c0.33-1.36,0.33-2.72-0.02-4.08c0-1.3-0.01-2.59-0.01-3.89
			c-0.41-3.86,1.19-5.79,5.19-5.39c4.28,0,8.56,0,12.84,0c6.55,0.09,13.1,0.15,19.65,0.28c1.54,0.03,3.35-0.78,4.45,1.11
			c-0.43,3.62,0.31,7.29-0.47,10.89c-7.29,5.08-12.49,12.34-18.99,18.23c-2.69,2.44-3.62,5.11-3.61,8.74
			C221.72,413.52,221.63,441.79,221.61,470.06z"/>
		<path class="st0" d="M412.4,270.64c5.98-0.06,11.96-0.23,17.93-0.12c2.41,0.04,3.23-0.73,3.13-3.1
			c-0.15-3.65-0.03-7.31-0.11-10.96c-0.05-2.11,0.78-2.87,2.94-2.86c11.13,0.08,22.26,0.08,33.39-0.02
			c2.48-0.02,3.18,1.01,3.08,3.28c-0.8,17.76-3.53,35.2-8.25,52.35c-0.65,2.35-1.75,3.18-4.14,3.14
			c-7.81-0.12-15.62-0.15-23.42-0.02c-2.87,0.05-3.62-0.99-3.62-3.79c-0.01-4.08,1.95-9.66-0.91-11.84
			c-2.65-2.02-7.95-0.53-12.08-0.62c-2.48-0.05-4.97-0.18-7.45-0.27C411.78,287.43,412.54,279.03,412.4,270.64z"/>
		<path class="st1" d="M427.06,238.42c0,6.97-0.08,13.95,0.03,20.92c0.05,2.94-1.04,4.22-4.07,4.19c-9.46-0.09-18.93-0.09-28.39,0
			c-2.54,0.02-3.36-0.86-3.56-3.44c-1.07-13.91-0.62-27.83-0.88-41.75c-0.07-3.85,1.53-4.84,5.06-4.75
			c9.91,0.27,19.84-0.16,29.76,0.45c2.66,0.16,2,1.68,2.01,2.96C427.1,224.14,427.06,231.28,427.06,238.42z"/>
		<path class="st1" d="M408.96,353.33c-4.82,0-9.64-0.07-14.46,0.04c-2.23,0.05-3.06-0.76-3.6-3c-1.07-4.47-0.95-8.99-0.44-13.37
			c0.85-7.3,0.83-14.48,0.06-21.78c-0.38-3.55,0.39-7.23,0.7-10.85c0.16-1.83,1.58-1.88,2.95-1.88c9.47,0,18.95,0.03,28.42-0.01
			c2.85-0.01,3.8,1.45,3.69,4.07c-0.57,13.95,1.38,27.84,0.86,41.79c-0.17,4.7-0.35,4.95-5.22,4.98
			C417.6,353.35,413.28,353.33,408.96,353.33z"/>
		<path class="st1" d="M244.66,347.39c-1.1-1.89-2.91-1.08-4.45-1.11c-6.55-0.13-13.1-0.19-19.65-0.28
			c-0.03-2.79,1.52-3.73,4.12-3.68c3.97,0.07,7.94,0.01,11.92,0.02c3.18,0,5.02-1.37,4.94-4.75c1.05-0.48,2.56,0.2,3.19-1.3
			c1.93-3.48,0.12-7.38,1.14-10.95c2.74,1.15,0.42,5.15,2.86,5.72c3.49,0.82,2.77,3.13,2.78,5.31c0.05,6.06,0,12.12,0.03,18.18
			c0.01,1.57-0.48,3.49,2.01,3.78c3.31,0,6.64-0.18,9.94,0.05c2.75,0.19,4.74-0.59,5.98-3.09c0.4,1.05,1.27,1.99,0.83,3.23
			c-0.73,2.05-1.72,4.09,1.4,5.13c0.77,0.26,0.49,1.09,0.26,1.7c-0.41,1.09-0.19,2.24,0.93,2.32c1.51,0.11,1.43-1.45,1.72-2.51
			c0.98,0.82,1.97,1.64,2.95,2.45c-0.03,1.87-1.59,4.46,2.44,4.21c1.25-0.08,2.1,1.43,2.54,2.75c-5.39,2.06-9.46-0.56-12.55-4.35
			c-2.06-2.52-4.11-3.3-7.09-3.15c-5.63,0.29-11.88-1.62-16.74,0.68c-4.65,2.2-7.69,7.6-11.77,11.22c-3.53,3.12-4.75,6.6-4.71,11.32
			c0.2,26.89,0.07,53.79,0.06,80.68c-2.75,0.04-5.56,0.6-8.13-0.92c0.02-28.27,0.11-56.54-0.01-84.8c-0.01-3.63,0.92-6.3,3.61-8.74
			c6.5-5.89,11.7-13.15,18.99-18.23C246.69,354.75,245.87,351.08,244.66,347.39z"/>
		<path class="st1" d="M306.31,411.36c-2.32,0.06-4.65,0.24-6.97,0.16c-4.1-0.14-7.4,0.51-10.47,4.08
			c-4.84,5.64-13.93,5.28-18.41-0.61c-2.36-3.1-4.76-3.8-8.25-3.7c-10.68,0.31-9.33-1.32-9.37,9.23c-0.08,17.11,0,34.22,0.01,51.34
			c-2.84,0.02-5.68,0.04-8.51,0.06c0.06-20.93,0.11-41.87,0.18-62.8c0.02-6.47-0.63-5.85,5.9-5.86c2.66,0,5.32-0.11,7.97,0.04
			c5.04,0.29,9.07-0.14,12.73-5.02c4.87-6.49,14.76-5.34,19.1,1.55c1.78,2.83,3.7,3.7,6.81,3.5c3.14-0.21,6.31,0.06,9.46,0.12
			C306.55,406.09,308.5,408.78,306.31,411.36z M279.76,412.38c3.14,0,5.47-2.14,5.6-5.16c0.14-3.26-2.22-5.8-5.45-5.86
			c-3.37-0.06-5.45,2.16-5.36,5.72C274.63,410.52,276.46,412.38,279.76,412.38z"/>
		<path class="st1" d="M357.55,442.19c-0.69-8.62-0.24-17.26-0.34-25.89c-0.05-4.92-0.05-5.03-5.02-4.9
			c-2.94,0.08-5.99-0.7-8.81,0.78c-2.51,0.33-2.88,2.99-4.57,4.21c-0.47,0.34-0.92,2.03-1.46,0.24c-0.9-3.01-3.27-2.29-5.3-2.32
			c-4.64-0.08-9.28,0-13.92-0.04c-4.8-0.04-4.78-0.06-4.86-5.05c-0.04-2.48,0.16-5.02-0.32-7.41c-0.47-2.31,0.52-2.57,2.27-2.57
			c6.46,0,12.92,0,19.39-0.03c1.49-0.01,2.19,0.56,2.96,1.96c1.18,2.14,2.95,4.18,5.84,1.95c5.98,0.05,11.96,0.25,17.94,0.09
			c3.07-0.08,4,0.92,3.96,3.99c-0.14,10.3,0.01,20.6,0.05,30.9C362.8,439.5,360.87,442.18,357.55,442.19z"/>
		<path class="st1" d="M321.16,302.29c0.88-5.6,0.06-11.23,0.31-16.85c0.22-4.92,0.17-4.93,5-4.96c5.47-0.03,10.94-0.15,16.41,0.02
			c2.58,0.08,4.1-0.64,5.58-2.94c4.33-6.71,12.03-8.01,17.99-3.24c3.92,3.13,5.7,7.35,4.65,12.34c-1.06,5.01-4.47,8.06-9.3,9.37
			c-4.78,1.3-9.3,0-11.96-3.94c-2.4-3.55-5.14-3.99-8.8-3.72c-2.96,0.22-5.95,0.05-8.93-0.05c-2.18-0.08-2.94,0.91-2.77,2.99
			c0.29,3.62-0.39,7.29,0.43,10.9C326.91,302.6,324.03,302.52,321.16,302.29z M364.24,283.91c0-3.03-2.19-5.26-5.25-5.35
			c-3.1-0.09-5.62,2.46-5.55,5.61c0.06,2.7,2.32,5.03,4.99,5.14C361.55,289.44,364.24,286.93,364.24,283.91z"/>
		<path class="st0" d="M453.15,244.97c-5.32,0-10.64-0.04-15.96,0.02c-2.84,0.03-3.96-0.95-3.98-4.07
			c-0.07-10.17-0.21-10.16,10.16-10.14c8.48,0.02,16.96,0.1,25.44-0.06c2.73-0.05,3.98,0.79,3.99,3.57
			c0.05,13.5,2.26,10.63-10.17,10.79c-3.16,0.04-6.32,0.01-9.48,0.01C453.15,245.05,453.15,245.01,453.15,244.97z"/>
		<path class="st1" d="M162.78,377.16c-1.24-0.48-2.56-0.86-3.08-2.3c-0.46-2.89,2.22-4.24,3.17-6.44c0.63,0.53,1.21,1.15,1.91,1.56
			c2.45,1.45,5.99,0.72,7.38-1.66c1.42-2.43,1.11-4.94-1.07-6.7c-2.31-1.86-4.93-1.78-7.21,0.27c-0.71,0.64-1.11,1.62-1.66,2.45
			c-1.65-0.36-2.37-1.48-2.44-3.08c-0.06-1.41-0.96-1.88-2.17-2.06c2.67-4.67,6.77-6.79,11.99-5.86c5.11,0.91,8.69,4.18,10.05,9.19
			c1.36,5.02,0.13,9.5-4.31,12.73c-1.06,0.77-2,1.74-3.35,2.04c-1.5,0.52-1.96,1.69-1.72,3.1c0.82,4.74,0.07,9.52,0.42,14.26
			c0.16,2.19-0.97,4.62,0.98,6.56c-0.23,4.98-4.66,6.79-7.45,9.83c-5.9,0.75-4.02-3.89-4.68-6.76c1.43-1.69,2.86-3.39,4.29-5.08
			c2.72-3.63,2.72-15.56,0-19.91c-0.03-0.34-0.05-0.68-0.08-1.01c0.19-0.2,0.37-0.41,0.56-0.61c-0.27-0.1-0.54-0.19-0.81-0.29
			l0.13,0.12C163.6,376.78,163.49,376.24,162.78,377.16z"/>
		<path class="st1" d="M202.53,355.28c0.35,1.36,0.34,2.72,0.02,4.08c-1.62,1.49-0.89,3.44-0.89,5.17
			c-0.06,15.27-0.02,30.54-0.08,45.81c-0.01,1.57,0.63,3.32-0.88,4.68c-2.17,1.97-3.81,1.19-6.07-2.97
			c-0.12-0.32-0.07-0.62,0.14-0.89c1.27-0.97,1.25-1.95,0-2.92c-0.31-1.03-0.31-2.05,0.02-3.07c1.58-1.51,0.84-3.45,0.85-5.18
			c0.05-18.56,0.02-37.11,0.06-55.67c0-1.42-0.62-3.35,1.05-4.02c1.29-0.52,0.87,1.76,2.11,2.19c1.14,0.4,2.22,0.22,3.26,0.37
			c2.12,0.32,5.32-0.64,5.6,3.14c-4.01-0.4-5.6,1.53-5.19,5.39C201.26,352.69,201.24,353.98,202.53,355.28z"/>
		<path class="st0" d="M459.12,320.85c0.35,0.33,0.95,0.63,1,1c0.08,0.61-0.14,1.28-0.33,1.9c-3.84,12.68-3.85,12.68-17.09,12.74
			c-8.79,0.04-8.79,0.04-8.94-8.66c-0.11-6.71-0.11-6.67,6.39-6.7c5.97-0.03,11.94-0.15,17.91-0.23
			C458.42,320.88,458.77,320.86,459.12,320.85z"/>
		<path class="st1" d="M325.82,308.34c0.5,0,0.99,0,1.49,0c11.07,0,11.46,0.49,10.14,11.74c-0.26,2.23-1.19,3.3-3.43,3.3
			c-5.97-0.02-11.94-0.03-17.91-0.01c-1.81,0.01-2.83-0.7-2.76-2.62c0.01-0.17,0-0.33-0.01-0.5
			C312.35,308.37,312.35,308.37,325.82,308.34z"/>
		<path class="st1" d="M412.4,270.64c0.14,8.39-0.62,16.8,0.49,25.17c-2.97,0.97-6,0.6-9.02,0.4c1.42-3.37,0.51-6.89,0.59-10.34
			c0.11-5.13-0.07-10.27-0.13-15.4C407.02,270.52,409.71,270.58,412.4,270.64z"/>
		<path class="st1" d="M199.66,422.19c-0.32-2.11,0.8-3.06,2.73-3.28c1.76-0.2,2.31,1.51,2.61,2.45c0.97,2.98,1.61,6.14-0.88,8.84
			c-2.04,2.21-3.33,4.33-2.62,7.76c1.11,5.39-1.13,10.79-0.94,16.26c0.06,1.64-1.31,2.43-2.62,2.44c-1.64,0.01-2.33-1.82-2.03-2.86
			c1-3.55-1.39-7.21,0.56-10.68c0.28-0.5,0.3-1.42,0.02-1.93c-1.91-3.58-0.53-6.94,0.53-10.34l0.07,0.28
			c0.69-0.1,1.29-0.34,1.56-1.06l-0.08,0.08c0.74-0.26,0.92-0.91,1.07-1.58c-0.05-0.55,0.27-0.78,0.75-0.88
			c1.34-2.05,2.96-4.14-0.74-5.51L199.66,422.19z"/>
		<path class="st1" d="M271.48,306.38c0.29-0.71,0.79-1.07,1.58-0.99c2.83,0.47,5.97-0.89,8.49,0.89c2.27,1.6,4.2,1.06,6.31,0.09
			c2.23,1.28,3.31,3.38,4.04,5.72c-1.11,0.71-0.56,1.12,0.19,1.71c2.19,1.73,0.94,3.3-0.61,4.34c-2.74,1.83-4.52,3.97-3.83,7.48
			l-0.03-0.12c-2.54-0.92-4.22-2.51-4.17-5.43c1.75-2.65,2.45-5.4,0.05-7.98c-2.26-2.42-4.95-1.89-7.61-0.6
			C271.38,312.39,273.48,307.62,271.48,306.38z"/>
		<path class="st1" d="M334.2,247.73c-1.08-0.48-1.82-1.22-1.84-2.49c3.44,0.62,6.8,0.14,10.13-0.74l-0.05-0.13
			c0.08,0.63,0.18,1.23,0.87,0.36c13.59-0.14,27.19,0.52,40.77-0.4c-0.22,3.04-2.61,1.97-4.15,1.99
			c-10.23,0.11-20.46,0.05-30.7,0.13c-1.95,0.01-3.92,0.22-5.84,0.58c-1.86,0.36-4.31,0.45-2.22,3.62c0.74,1.12-1.82,0.65-1.85,1.91
			c-1.35-0.52-2.29-1.5-3-2.73c-0.11-1.02,1.14-2.17,0.08-3C335.55,246.15,334.66,246.75,334.2,247.73z"/>
		<path class="st0" d="M200.39,427.69c-0.48,0.1-0.8,0.33-0.75,0.88c-0.66,0.32-1.22,0.71-1.07,1.58l0.08-0.08
			c-0.86-0.14-1.41,0.16-1.56,1.06l-0.07-0.28c-3.48,0.34-6.22-0.81-7.19-4.35c-0.64-2.35,0.05-4.68,2.36-5.92
			c2.84-1.52,5.36-0.67,7.47,1.62c0,0-0.01-0.01-0.01-0.01C199.9,424.02,200.15,425.85,200.39,427.69z"/>
		<path class="st1" d="M372.27,345.26c-0.23,0.41-0.46,0.82-0.7,1.24c-1.86,0.55-1.2,2.1-1.24,3.3c-0.09,3.12-0.04,6.24-0.08,9.36
			c-0.01,0.62-0.03,1.39-0.82,1.56c-0.94,0.2-1.19-0.71-1.08-1.22c1.07-4.69-3.19-6.76-4.87-10.08c-0.37-2.7-0.35-5.39,0.01-8.09
			C367.42,340.42,369.88,342.75,372.27,345.26z"/>
		<path class="st1" d="M459.12,320.85c-0.35,0.02-0.7,0.03-1.05,0.05C458.4,320.43,458.75,320.41,459.12,320.85z"/>
		<path class="st1" d="M28.94,202.68c-0.1,0.49-0.19,0.97-0.29,1.46C28.27,203.55,28.47,203.09,28.94,202.68z"/>
		<path class="st1" d="M183.72,462.18c0.57-0.13,1.05-0.02,1.39,0.5C184.51,462.91,184.08,462.64,183.72,462.18z"/>
		<path class="st1" d="M289.03,468.59c0.38-0.46,0.86-0.55,1.41-0.39C290.07,468.67,289.62,468.89,289.03,468.59z"/>
		<path class="st2" d="M196.64,288.47c-0.9-3.05-1.22-6.15-1.04-9.35c0.23-4.22,2.6-7.02,5.81-9.35
			c7.11-5.16,14.17-10.39,21.34-15.46c2.14-1.52,2.81-2.92,2.12-5.7c-2.53-10.19-0.05-18.97,8.15-25.94
			c5.29-4.49,11.41-6.01,18.1-5.16c4.03,0.51,6.61-0.84,9.44-3.79c14.72-15.32,29.82-30.29,44.66-45.5
			c22.96-23.54,46.3-46.7,69.77-69.73c1.53-1.5,3.33-5.03,5.13-3.45c1.81,1.59-1.66,3.6-2.88,5.21
			c-31.23,40.89-63.68,80.82-95.79,121.01c-1.35,1.69-2.58,3.47-4.02,5.07c-3.67,4.07-5.08,8.14-4.46,14.18
			c1.54,15.02-11.93,29.11-28.3,25.14c-4.68-1.14-7.14-0.18-9.45,3.96c-3.71,6.65-8.01,12.98-12.07,19.43
			c-4.87,7.74-8.91,9.19-17.56,6.34c-0.94-0.31-1.79-0.91-2.85-0.63C201.73,291.67,198.92,290.33,196.64,288.47z M248.52,252.74
			c6.45,0.01,11.04-4.87,10.9-11.59c-0.11-5.29-5.28-10.27-10.81-10.39c-5.76-0.13-11.07,5.28-10.99,11.2
			C237.7,247.59,242.9,252.74,248.52,252.74z"/>
		<path class="st1" d="M251.69,111.62c6.05-0.11,14.14,0.35,22.17,1.97c2.38,0.48,2.68,1.12,1.66,3.14
			c-3.14,6.23-6.33,12.43-9.18,18.79c-1.17,2.61-2.83,2.27-4.84,1.91c-12.2-2.21-24.38-2.08-36.62-0.03
			c-20.67,3.47-38.72,12.33-54.6,25.85c-4.9,4.17-3.65,4.51-9.56,0.8c-3.37-2.12-6.74-4.25-10.19-6.21c-2.21-1.26-2.79-2.3-0.75-4.4
			c12.03-12.37,25.6-22.55,41.43-29.6C209.8,115.56,229.22,111.32,251.69,111.62z"/>
		<path class="st1" d="M132.77,274.49c0.34,0.46,0.6,0.92,0.07,1.42c0.29,0.52,0.58,1.03,0.87,1.55c0.31,0.46,0.46,0.93,0.13,1.45
			c0.03,4.01,0.05,8.02,3.96,10.58l0.16,0.19l-0.14,0.21c0.19,0.93-0.11,2.06,1.07,2.58l-0.08-0.1c0.18,0.78,0.01,1.73,1.04,2.08
			c4.5,6.93,8.33,14.29,13.24,20.97c1.07,1.45,0.93,2.68-0.43,3.91c-3.21,2.88-6.41,5.78-9.52,8.77c-1.73,1.66-2.89,1.36-4.42-0.41
			c-4.03-4.69-7.34-9.86-10.33-15.21c-17.02-30.47-21.32-62.71-13.35-96.68c3.21-13.69,8.67-26.39,15.79-38.47
			c1.75-2.97,2.95-2.78,5.18-0.82c3.36,2.96,6.82,5.81,10.39,8.51c2.32,1.76,2.59,3.37,0.93,5.81c-5.72,8.44-9.61,17.74-12.71,27.43
			c-2.44,7.61-3.15,15.51-4.34,23.34c-2.16,0.86-1.4,2.76-1.46,4.3c-0.28,7.28,0.31,14.52,0.86,21.78
			C129.91,270.55,130.52,272.76,132.77,274.49z"/>
		<path class="st2" d="M244.53,201.55c-21.16,2.38-36.89,19.46-37.02,40.58c-0.02,3.64-0.77,5.31-4.6,4.6
			c-0.64-0.12-1.34-0.08-1.99,0.02c-3.62,0.57-4.47-1.12-4.34-4.49c0.2-5.19,0.8-10.29,2.61-15.15c1.31-3.53,0.74-5.85-2.33-8.49
			c-25.29-21.77-50.39-43.76-75.55-65.69c-0.87-0.76-1.68-1.57-3.26-3.05c4.56,1.11,7.57,3.27,10.71,5.03
			c24.61,13.75,49.17,27.59,73.73,41.42c3.03,1.71,6.06,3.45,8.95,5.39c2.24,1.5,3.91,1.46,6.12-0.31
			c8.75-7.03,18.88-10.15,30.07-9.9c-0.13,0.47-0.32,1.36-0.39,1.35c-4.42-0.61-7.7,2.85-12.97,3.21
			C238.69,197.56,240.77,200.96,244.53,201.55z"/>
		<path class="st2" d="M342.48,244.49c-3.33,0.89-6.69,1.36-10.13,0.74c-3.45-1.5-5.33-4.76-7.9-7.23c-1.67-1.6-3.31-2.44-5.68-2.36
			c-5.15,0.18-10.31,0.27-15.45,0.02c-3.09-0.15-4.11,0.7-3.81,3.87c0.85,8.92-0.44,17.56-4.52,25.61
			c-7.93,15.64-20.82,24.58-38.02,27.15c-3.04,0.46-3.83,1.35-3.8,4.21c0.2,20.6,0.27,41.21,0.38,61.81c-2.49-0.29-2-2.21-2.01-3.78
			c-0.03-6.06,0.02-12.12-0.03-18.18c-0.02-2.17,0.71-4.49-2.78-5.31c-2.44-0.57-0.12-4.57-2.86-5.72
			c-1.02,3.58,0.79,7.47-1.14,10.95c-0.05-4.11-0.27-8.23-0.08-12.33c0.14-2.89-0.96-3.67-3.68-3.53c-3.44,0.18-6.9-0.03-10.35-0.08
			c1.37-1.88,4.2-0.23,5.62-2.52c0.97-1.55,2.41-2.47,4.97-1.94c2.26,0.47,5.33-0.65,4.34-4.5c2.5-0.24,1.99-2.05,1.84-3.62
			c-0.04-0.44-0.39-1.07-0.94-0.77c-1.47,0.81-0.58,2.29-0.83,3.47c-0.06,0.31-0.03,0.64-0.03,0.97c-0.32,0.02-0.63,0.01-0.94-0.03
			c-0.04-7.97,0.07-15.94-0.18-23.9c-0.1-3.18,0.65-4.37,4.03-4.09c9.31,0.76,17.67-2.01,25.19-7.48
			c14.34-10.44,19.83-26.36,14.96-43.45c-1.16-4.07-0.61-5.06,3.74-5.13c10.29-0.17,20.58-0.08,30.88-0.13
			c1.77-0.01,3.2,0.66,4.45,1.87C332.82,234.04,338.17,238.77,342.48,244.49z"/>
		<path class="st2" d="M197.66,300.39c-7.96,9.13-16.56,17.65-24.99,26.33c-21.87,22.5-43.74,45.01-65.63,67.49
			c-1.12,1.15-2.4,3.55-3.64,2.93c-2.11-1.05-3.96-3.07-5.3-5.09c-0.99-1.49,1.05-2.54,1.99-3.54c8.46-8.91,16.95-17.8,25.48-26.64
			c16.01-16.62,31.94-33.31,48.13-49.75c6.28-6.38,12.09-13.22,18.9-19.07C193.38,296.12,196.44,297.61,197.66,300.39z"/>
		<path class="st1" d="M244.53,201.55c-3.76-0.58-5.83-3.99-10.26-5.49c5.27-0.36,8.55-3.81,12.97-3.21
			c0.07,0.01,0.26-0.88,0.39-1.35c5.42-8.01,8.87-17.02,13.02-25.68c9.96-20.79,19.06-42,30.02-62.32c1.15-2.12,1.61-4.62,3.68-7.06
			c0.06,4.92-1.91,8.66-3.01,12.51c-6.11,21.37-12.58,42.64-18.93,63.94c-2.61,8.74-5.25,17.48-7.79,26.24
			c-0.8,2.77-1.94,4.09-5.21,3.24C254.57,201.12,249.49,201.94,244.53,201.55z"/>
		<path class="st1" d="M324.84,135.56c-0.3,0.37-0.59,0.77-0.93,1.13c-5.48,5.74-10.97,11.46-16.43,17.22
			c-1.16,1.22-2.02,1.63-3.72,0.51c-4.15-2.72-8.49-5.15-12.81-7.58c-1.69-0.95-2.27-1.97-1.67-3.97c2.1-6.97,4.02-13.99,5.98-20.99
			c0.42-1.49,0.93-2.38,2.75-1.61c8.86,3.75,17.42,8.07,25.39,13.49C324.04,134.19,324.83,134.54,324.84,135.56z"/>
		<path class="st1" d="M244.64,311.41c0.31,0.04,0.63,0.05,0.94,0.03l-0.04-0.04c0.98,3.85-2.08,4.97-4.34,4.5
			c-2.56-0.53-4.01,0.38-4.97,1.94c-1.43,2.29-4.26,0.63-5.62,2.52c-2.18,0.05-2.86,1.87-3.95,3.26c-6.4,8.15-17.62,6.45-21.66-3.27
			c3.23,1.59,3.42-2.79,5.76-2.94c1.4,3.7,4.85,3.51,7.87,4.51c3.09,1.03,2.77-0.85,3.08-2.54c0.69-0.33,0.7-0.64-0.02-0.93
			c-0.37-2.21,0.37-4.69-1.92-6.4c-3.2-2.4-5.96-1.43-9.09,3.35c-0.35,0-0.7,0.01-1.05,0.01l0.03,0.03
			c-1.79-2.05,0.15-5.2-2.12-7.11c5.86-6.59,14.26-6.35,19.09,0.91c1.62,2.44,3.25,3.43,5.96,3.09
			C236.59,311.82,240.75,313.35,244.64,311.41z"/>
		<path class="st2" d="M98.64,169.95c-1.1,2.06-2.29,4.42-3.61,6.7c-0.79,1.35-1.78,0.26-2.53-0.12
			c-9.84-5.06-19.64-10.19-29.48-15.26c-2.11-1.09-3.04-2.35-1.54-4.63c0.81-1.23,1.46-2.59,2.08-3.94
			c0.68-1.47,1.44-1.92,3.05-1.06c10.2,5.47,20.44,10.85,30.66,16.28C97.93,168.28,98.87,168.52,98.64,169.95z"/>
		<path class="st2" d="M64.88,345.87c-0.84,0.3-1.22-0.57-1.6-1.21c-0.66-1.14-1.05-2.46-1.78-3.55c-1.93-2.89-0.95-4.44,1.96-5.9
			c9.32-4.67,18.57-9.5,27.76-14.43c2.47-1.33,3.79-0.93,4.73,1.62c0.46,1.23,1.1,2.41,1.75,3.56c0.79,1.41,0.63,2.4-0.9,3.2
			c-10.27,5.38-20.52,10.8-30.77,16.2C65.73,345.52,65.42,345.63,64.88,345.87z"/>
		<path class="st2" d="M403.97,177.01c-1.42,0.35-1.57-0.55-1.92-1.28c-0.72-1.48-1.41-2.99-2.26-4.4
			c-1.07-1.77-0.88-2.81,1.13-3.84c9.69-4.97,19.34-10.03,28.94-15.18c2.21-1.19,3.56-0.99,4.46,1.41c0.23,0.62,0.53,1.23,0.9,1.76
			c2.11,3.02,1.63,4.93-1.91,6.64c-9.06,4.38-17.95,9.12-26.91,13.7C405.52,176.29,404.62,176.7,403.97,177.01z"/>
		<path class="st1" d="M367.44,144.64c6.85-0.03,12.11,5.33,12.1,12.34c-0.01,6.77-5.55,12.33-12.26,12.31
			c-6.55-0.02-12.07-5.44-12.12-11.9C355.1,150.14,360.37,144.67,367.44,144.64z M372.49,156.69c-0.11-3.18-2.23-5.23-5.35-5.19
			c-3.06,0.04-4.92,2.21-4.77,5.59c0.14,3.17,1.79,4.82,4.97,4.83C370.55,161.94,372.6,159.83,372.49,156.69z"/>
		<path class="st2" d="M253.71,61.46c0,5.15-0.1,10.3,0.05,15.45c0.07,2.27-0.39,3.55-2.94,3.16c-0.32-0.05-0.66-0.01-1-0.02
			c-6.94-0.12-5.85,0.72-5.9-5.7c-0.06-9.63,0.21-19.28-0.23-28.9c-0.22-4.86,2.76-3.73,5.37-3.99c3.06-0.31,5.02,0.05,4.74,4.07
			C253.43,50.81,253.71,56.14,253.71,61.46z"/>
		<path class="st2" d="M163.59,99.53c0.22,1.07-0.59,1.42-1.28,1.85c-1.26,0.8-2.6,1.48-3.77,2.4c-2.26,1.78-3.68,1.22-5.08-1.17
			c-5.19-8.85-10.45-17.65-15.82-26.38c-1.15-1.87-0.92-3.02,0.81-4.07c1.41-0.86,2.89-1.61,4.27-2.53
			c1.31-0.87,2.28-1.05,3.24,0.54c5.67,9.52,11.41,19.01,17.12,28.51C163.25,98.97,163.43,99.25,163.59,99.53z"/>
		<path class="st2" d="M341.37,105.22c-2.17-1.36-4.93-2.49-6.77-4.47c-1.28-1.38,0.74-3.24,1.61-4.72
			c4.68-7.97,9.64-15.78,14.05-23.9c1.94-3.56,3.71-3.27,6.33-1.26c0.78,0.6,1.63,1.13,2.5,1.59c1.66,0.88,1.91,1.92,0.91,3.57
			c-5.56,9.17-11.04,18.39-16.54,27.59C343.02,104.35,342.57,105.01,341.37,105.22z"/>
		<path class="st2" d="M58.97,247.55c5.13,0,10.26,0.13,15.39-0.05c2.72-0.1,4.04,0.64,3.69,3.55c-0.16,1.3-0.1,2.65,0,3.97
			c0.14,1.91-0.64,2.61-2.57,2.6c-10.92-0.07-21.84-0.08-32.76-0.02c-2.26,0.01-2.9-1.01-2.72-3.02c0.09-0.99,0.2-2,0.07-2.97
			c-0.42-3.14,0.66-4.38,4.02-4.18c4.95,0.28,9.92,0.07,14.89,0.07C58.97,247.51,58.97,247.53,58.97,247.55z"/>
		<path class="st2" d="M207.72,346c-0.28-3.78-3.48-2.82-5.6-3.14c-1.04-0.16-2.13,0.03-3.26-0.37c-1.24-0.43-0.82-2.71-2.11-2.19
			c-1.66,0.67-1.04,2.6-1.05,4.02c-0.03,18.56,0,37.11-0.06,55.67c-0.01,1.73,0.73,3.67-0.85,5.18
			c-0.05-21.38-0.06-42.76-0.19-64.13c-0.02-2.49,0.57-3.61,3.24-3.53c3.97,0.12,7.95-0.06,11.92-0.05
			c10.59,0.03,21.18,0.08,31.77,0.13c0.08,3.38-1.76,4.75-4.94,4.75c-3.97,0-7.94,0.06-11.92-0.02c-2.6-0.05-4.15,0.89-4.12,3.68
			C216.28,346,212,346,207.72,346z M214.01,343.98c-1.11-0.96-2.12-0.59-3.07-0.52c-0.46,0.03-0.55,0.43-0.2,0.6
			C211.66,344.51,212.61,344.43,214.01,343.98z"/>
		<path class="st2" d="M338.63,63.15c-2.59,5.69-5.07,11.3-7.71,16.83c-0.91,1.9-2.21,0.38-3.38,0.06
			c-1.68-0.47-2.03-1.28-1.28-2.89c2.45-5.26,4.81-10.56,7.18-15.85c0.49-1.1,1.14-1.61,2.26-0.84
			C336.79,61.21,338.66,61.2,338.63,63.15z"/>
		<path class="st2" d="M310.15,73.09c-2.21,0.05-3.53-1.69-2.7-4.32c1.52-4.86,3.35-9.62,4.7-14.52c0.65-2.39,1.58-2.26,3.47-1.59
			c1.75,0.61,2.93,0.76,1.96,3.24c-1.92,4.89-3.39,9.95-4.98,14.96C312.23,71.99,312.08,73.15,310.15,73.09z"/>
		<path class="st2" d="M274.13,45.38c-0.6,5.09-1.21,10-1.76,14.91c-0.26,2.31-0.94,3.49-3.76,2.94c-2.71-0.53-1.93-1.96-1.72-3.57
			c0.63-4.9,1.13-9.81,1.8-14.7c0.22-1.64,0.57-3.34,3.11-2.47C273.43,43.03,275.31,43.05,274.13,45.38z"/>
		<path class="st2" d="M135.62,99.54c-0.15,1.55-1.51,2.07-2.48,2.88c-0.95,0.79-1.72,0.46-2.45-0.51
			c-3.36-4.48-6.72-8.96-10.2-13.34c-1.39-1.75-0.41-2.59,0.84-3.59c1.35-1.09,2.38-1.34,3.61,0.34c3.1,4.25,6.39,8.38,9.59,12.56
			C134.93,98.41,135.26,98.99,135.62,99.54z"/>
		<path class="st2" d="M204.19,46c2.12-0.37,2.45,0.62,2.73,1.88c1.16,5.31,2.36,10.62,3.61,15.92c0.42,1.77-0.45,2.31-1.96,2.65
			c-1.53,0.35-3.02,0.76-3.5-1.33c-1.28-5.62-2.61-11.23-3.7-16.89C200.84,45.48,203.68,46.79,204.19,46z"/>
		<path class="st2" d="M63.36,290.58c2.41,0.05,1.4,1.98,1.97,2.96c0.68,1.17,0.78,2.28-0.82,2.71c-5.43,1.46-10.87,2.89-16.32,4.27
			c-1.98,0.5-2.07-1.09-2.33-2.37c-0.21-1-1.38-2.3,0.49-2.84C52.07,293.66,57.82,292.11,63.36,290.58z"/>
		<path class="st2" d="M190.55,69.82c0.31,2.3-1.46,1.95-2.53,2.46c-1.26,0.6-2.2,0.57-2.7-0.92c-1.86-5.61-3.76-11.2-5.55-16.83
			c-0.59-1.86,1.14-1.58,2.11-1.87c1.14-0.34,2.56-1.54,3.24,0.51C187,58.78,188.79,64.41,190.55,69.82z"/>
		<path class="st2" d="M56.5,173.8c5.2,2.25,10.53,4.45,15.76,6.89c2.13,0.99,0.39,2.52,0.06,3.8c-0.44,1.68-1.55,1.37-2.69,0.9
			c-4.88-2.01-9.75-4.01-14.62-6.04c-1.09-0.45-2.18-0.91-1.24-2.48C54.47,175.69,54.28,173.81,56.5,173.8z"/>
		<path class="st2" d="M171.68,78.06c-0.39,1.5-1.91,1.51-3.01,2.14c-1.65,0.95-2.03-0.36-2.48-1.34
			c-2.32-5.11-4.51-10.28-6.92-15.35c-0.74-1.56-0.12-2.24,1.12-2.55c1.08-0.27,2.41-2.03,3.38-0.05
			c2.69,5.49,5.24,11.05,7.84,16.58C171.69,77.63,171.66,77.81,171.68,78.06z"/>
		<path class="st2" d="M407.94,148.72c-1.34-0.43-1.76-1.8-2.5-2.8c-0.77-1.05-0.02-1.79,0.88-2.4c4.51-3.05,9.04-6.06,13.49-9.18
			c1.36-0.95,2.18-0.55,2.66,0.74c0.45,1.2,2.78,2.37,0.87,3.72c-4.84,3.42-9.9,6.53-14.87,9.76
			C408.35,148.63,408.17,148.65,407.94,148.72z"/>
		<path class="st2" d="M55.29,322.03c-2.49,0.46-2.09-1.39-2.62-2.43c-0.59-1.15-0.91-2.07,0.72-2.68c5.25-1.94,10.51-3.85,15.67-6
			c1.73-0.72,2,0.2,2.4,1.28c0.5,1.32,1.64,2.97-0.39,3.8C65.75,318.17,60.33,320.12,55.29,322.03z"/>
		<path class="st2" d="M45.29,277.86c-1.48,0.29-3.85,1.23-3.85-2.77c0-2,0.52-2.54,2.41-2.71c4.94-0.46,9.86-1.09,14.78-1.77
			c1.96-0.27,3.16-0.02,3.37,2.31c0.19,2.09-0.57,3.07-2.6,3.29C54.95,276.71,50.51,277.25,45.29,277.86z"/>
		<path class="st2" d="M88.59,380.05c-1.36-0.37-1.87-1.69-2.76-2.59c-0.75-0.77-0.48-1.53,0.21-2.12
			c4.39-3.75,8.82-7.46,13.21-11.22c1.22-1.04,1.73-0.03,2.27,0.71c0.7,0.96,2.48,1.91,0.99,3.26c-4.41,3.98-8.97,7.78-13.48,11.65
			C88.91,379.86,88.76,379.94,88.59,380.05z"/>
		<path class="st2" d="M287.29,63.91c1.23-5.47,2.38-10.48,3.47-15.5c0.39-1.81,1.08-2.39,3.08-1.78c1.85,0.56,2.97,0.85,2.31,3.22
			c-1.33,4.79-2.42,9.66-3.5,14.52c-0.35,1.6-0.55,3-2.74,2.38C288.21,66.27,286.57,65.82,287.29,63.91z"/>
		<path class="st2" d="M381.35,116.84c-1.41-0.19-2.06-1.43-2.96-2.34c-1.2-1.21-0.21-2.01,0.58-2.82
			c3.8-3.89,7.65-7.72,11.37-11.67c1.15-1.22,1.95-0.91,2.7,0.18c0.73,1.06,3.2,1.7,1.61,3.44c-3.99,4.38-8.23,8.53-12.38,12.75
			C382.06,116.6,381.7,116.67,381.35,116.84z"/>
		<path class="st2" d="M395.59,131.94c-1.52-0.47-2-1.81-2.74-2.86c-0.92-1.29,0.45-1.69,1.08-2.23c3.87-3.37,7.84-6.62,11.67-10.03
			c1.56-1.39,2.5-0.95,3.59,0.49c0.91,1.21,2.16,2.24,0.34,3.69c-4.27,3.39-8.52,6.82-12.79,10.22
			C396.36,131.5,395.94,131.72,395.59,131.94z"/>
		<path class="st2" d="M92.29,144.87c-0.26,2.7-2.71,4.01-4.52,2.83c-4.13-2.72-8.12-5.65-12.33-8.24
			c-2.29-1.41-1.58-2.64-0.63-4.43c1.21-2.3,2.45-0.96,3.56-0.22c4.12,2.74,8.18,5.56,12.24,8.39
			C91.38,143.74,92.4,144.17,92.29,144.87z"/>
		<path class="st2" d="M67.93,197.28c-0.87,1.43-0.35,4.48-3.86,3.25c-4.65-1.63-9.34-3.17-14.07-4.52c-2.1-0.6-1.98-1.53-1.46-3.24
			c0.51-1.69,1.12-2.71,3.03-2.1c5.01,1.58,10.02,3.17,15.04,4.73C67.51,195.68,68.04,196.14,67.93,197.28z"/>
		<path class="st2" d="M230.8,60.27c0.75,2.08-0.84,2.97-3.37,3.25c-1.31,0.15-1.76-0.45-1.9-1.61c-0.65-5.41-1.34-10.82-1.99-16.24
			c-0.19-1.55-0.3-2.92,2.07-2.88c1.83,0.02,3.06-0.05,3.26,2.38C229.29,49.94,230.07,54.67,230.8,60.27z"/>
		<path class="st2" d="M119.8,113.35c-1.13,1.04-2.04,1.99-3.06,2.81c-0.94,0.75-1.44-0.18-1.97-0.72
			c-3.58-3.63-7.07-7.36-10.75-10.89c-1.85-1.77-1.21-2.88,0.23-4.45c1.81-1.97,2.76-0.62,3.89,0.61
			c3.36,3.62,6.73,7.23,10.09,10.85C118.76,112.12,119.25,112.72,119.8,113.35z"/>
		<path class="st2" d="M75.66,362.99c-1.35-0.25-1.4-1.6-2.02-2.48c-0.6-0.86-1.07-1.7,0.12-2.49c4.68-3.1,9.32-6.24,14.04-9.28
			c1.58-1.02,1.81,0.88,2.55,1.53c0.92,0.81,1.55,2.01,0.23,2.9c-4.77,3.25-9.62,6.38-14.44,9.56
			C76,362.82,75.85,362.89,75.66,362.99z"/>
		<path class="st2" d="M44.93,207.92c-0.15-1.92,0.31-3,2.73-2.39c4.62,1.16,9.3,2.06,13.94,3.1c2.01,0.45,2.94,1.4,2.52,3.79
			c-0.48,2.76-1.98,1.95-3.57,1.57c-4.47-1.08-8.92-2.23-13.42-3.16C45.38,210.47,44.32,209.98,44.93,207.92z"/>
		<path class="st2" d="M105.29,128.59c-0.75,0.94-1.41,1.89-2.18,2.74c-0.98,1.08-1.77,0.21-2.51-0.4
			c-4.09-3.35-8.08-6.84-12.29-10.03c-1.93-1.46-0.77-2.39,0-3.58c0.8-1.24,1.64-2.07,3.14-0.8c4.29,3.64,8.62,7.22,12.92,10.85
			C104.72,127.67,104.94,128.12,105.29,128.59z"/>
		<path class="st2" d="M44.12,226.95c5.1,0.58,9.87,1.19,14.66,1.63c2.15,0.2,2.72,1.12,2.59,3.21c-0.15,2.5-1.39,2.4-3.3,2.17
			c-4.78-0.56-9.57-1.02-14.37-1.23c-2.6-0.12-2.43-1.36-2.1-3.22C41.89,227.78,41.73,225.86,44.12,226.95z"/>
		<path class="st1" d="M197.66,300.39c-1.22-2.77-4.28-4.27-5.06-7.34c1.14-1.71,2.11-3.57,4.04-4.58c2.27,1.86,5.09,3.2,6.08,6.3
			C201.67,297.21,199.5,298.65,197.66,300.39z"/>
		<path class="st2" d="M162.87,368.42c-0.95,2.2-3.63,3.55-3.17,6.44c-5.02-4.84-5.68-9.75-2.09-15.66c1.2,0.18,2.1,0.65,2.17,2.06
			c0.07,1.6,0.8,2.71,2.44,3.08C161.95,365.77,162.5,367.08,162.87,368.42z"/>
		<path class="st2" d="M132.77,274.49c-2.25-1.73-2.86-3.94-3.07-6.81c-0.55-7.26-1.14-14.5-0.86-21.78
			c0.06-1.53-0.69-3.44,1.46-4.3c-1.12,10.11,0.47,20.04,2.08,29.97C132.54,272.54,132.64,273.52,132.77,274.49z"/>
		<path class="st2" d="M210.76,317.4c-2.34,0.15-2.53,4.52-5.76,2.94c-1.02-4.4-1.15-8.62,2.54-12.02c2.27,1.9,0.33,5.06,2.12,7.11
			c-0.49,0.17-0.58,0.33-0.25,0.39c0.05,0.01,0.15-0.27,0.22-0.41c0.35,0,0.7-0.01,1.05-0.01
			C210.71,316.06,210.73,316.73,210.76,317.4z"/>
		<path class="st2" d="M163.84,379.3c2.72,4.34,2.72,16.28,0,19.91C163.84,392.57,163.84,385.93,163.84,379.3z"/>
		<path class="st2" d="M171.67,401.22c-1.94-1.94-0.81-4.36-0.98-6.56c-0.35-4.74,0.4-9.52-0.42-14.26
			c-0.24-1.41,0.22-2.58,1.72-3.1C171.89,385.28,171.78,393.25,171.67,401.22z"/>
		<path class="st2" d="M137.8,289.49c-3.91-2.56-3.93-6.57-3.96-10.58C135.65,282.25,136.59,285.92,137.8,289.49z"/>
		<path class="st2" d="M194.77,408.24c1.25,0.97,1.27,1.94,0,2.92C194.77,410.18,194.77,409.21,194.77,408.24z"/>
		<path class="st2" d="M138.9,292.47c-1.18-0.52-0.88-1.65-1.07-2.58C138.6,290.58,138.82,291.49,138.9,292.47z"/>
		<path class="st1" d="M294.9,94.73c0.06,0.05,0.18,0.1,0.18,0.15c0,0.15-0.05,0.29-0.07,0.44c-0.07-0.05-0.2-0.1-0.2-0.15
			C294.81,95.03,294.86,94.88,294.9,94.73z"/>
		<path class="st2" d="M139.86,294.45c-1.03-0.35-0.86-1.3-1.04-2.08C139.61,292.84,139.78,293.62,139.86,294.45z"/>
		<path class="st2" d="M133.71,277.46c-0.29-0.52-0.58-1.03-0.87-1.55C133.59,276.16,133.72,276.77,133.71,277.46z"/>
		<path class="st2" d="M162.78,377.16c0.7-0.92,0.81-0.38,0.85,0.34C163.29,377.53,163.01,377.41,162.78,377.16z"/>
		<polygon class="st1" points="117.4,149.5 117.25,149.2 117.6,149.23 		"/>
		<path class="st2" d="M343.3,244.72c-0.7,0.87-0.79,0.27-0.87-0.36C342.79,244.32,343.08,244.44,343.3,244.72z"/>
		<path class="st2" d="M163.51,377.38c0.27,0.1,0.54,0.19,0.81,0.29c-0.19,0.2-0.37,0.41-0.56,0.61
			C163.57,378.01,163.49,377.71,163.51,377.38z"/>
		<path class="st2" d="M363.5,349.4c1.67,3.33,5.93,5.39,4.87,10.08c-0.12,0.51,0.14,1.42,1.08,1.22c0.79-0.16,0.81-0.93,0.82-1.56
			c0.04-3.12-0.01-6.24,0.08-9.36c0.03-1.19-0.62-2.75,1.24-3.3c0.13,5.62,0.16,11.25,0.43,16.87c0.13,2.76-0.66,3.77-3.6,3.68
			c-6.95-0.22-13.92,0.04-20.87-0.12c-3.01-0.07-4.44,0.55-4.27,4.04c0.27,5.28,0.01,5.29-5.14,5.31
			c-9.11,0.02-18.22-0.02-27.33,0.1c-2.48,0.03-3.86-0.19-3.87-3.35c-0.02-5.84-0.28-5.84-5.97-5.81c-1.82,0.01-3.66,0.15-5.46-0.02
			c-2.57-0.24-4.25,0.47-5.59,2.91c-1.49,2.71-4.19,4.15-7.34,4.5c-0.44-1.32-1.29-2.83-2.54-2.75c-4.02,0.25-2.47-2.34-2.44-4.21
			c4.79,0.33,7.67-1.54,7.79-5.06c0.13-3.8-2.95-6.01-7.79-5.59c0.1-1.03-0.37-2.42,1.52-2.28c2.88,0.22,5.19-1.29,7.58-2.54
			c1.74,0.12,2.76,1.4,3.25,2.74c1.42,3.84,4.25,4.58,7.83,4.13c0.65-0.08,1.32-0.01,1.99-0.01c7.05,0.06,7.16,0.06,7.4-6.93
			c0.08-2.28,0.62-3.11,3.04-3.26c10.26-0.6,20.53,0.07,30.79-0.31c2.52-0.09,2.34,1.65,2.42,3.36c0.32,7,0.35,7,7.37,6.78
			c1.16-0.04,2.31-0.14,3.47-0.17C363.15,358.28,363.15,358.28,363.5,349.4z M325.76,355.23c0-0.01,0-0.02,0-0.02
			c-0.83,0-1.66,0-2.49,0c-10.83-0.01-10.77-0.02-9.98,10.92c0.16,2.24,0.78,3.33,3.19,3.3c5.98-0.09,11.96-0.02,17.94-0.03
			c1.39,0,2.87-0.11,2.89-1.93c0.04-3.79,1.36-8.09-0.59-11.22c-1.54-2.48-5.57-0.64-8.47-1
			C327.43,355.14,326.59,355.23,325.76,355.23z M351.33,364.96c4.47,0.13,8.96,0.65,13.34-0.66
			C360.26,365.15,355.71,363.69,351.33,364.96z"/>
		<path class="st2" d="M283.43,320.06c-0.05,2.92,1.63,4.5,4.17,5.43c-5.93,4.43-12.65,4.03-17.18-1.03
			c-4.78-5.34-4.38-12.16,1.05-18.08c2,1.24-0.09,6.01,4.4,5.1c-1.79,2.71-2.44,5.53-0.09,8.18
			C278.1,322.26,280.8,321.48,283.43,320.06z"/>
		<path class="st2" d="M274.62,365.17c-0.29,1.05-0.21,2.61-1.72,2.51c-1.12-0.08-1.34-1.24-0.93-2.32c0.23-0.62,0.51-1.45-0.26-1.7
			c-3.13-1.04-2.14-3.08-1.4-5.13c0.44-1.24-0.43-2.19-0.83-3.23c0.65-1.34,1.62-2.37,2.96-3.04c1.58,1.78,3.36,3.46,3.15,6.16
			C274.15,360.5,274.32,362.83,274.62,365.17z"/>
		<path class="st1" d="M275.57,358.41c0.22-2.7-1.57-4.38-3.15-6.16c4.73-3.41,9.48-3.55,14.26-0.1c-2.39,1.25-4.7,2.76-7.58,2.54
			c-1.89-0.14-1.42,1.25-1.52,2.28C276.91,357.45,276.24,357.93,275.57,358.41z"/>
		<path class="st2" d="M287.86,306.36c-2.11,0.98-4.04,1.51-6.31-0.09c-2.52-1.78-5.66-0.42-8.49-0.89
			C278.22,302.16,283.16,302.35,287.86,306.36z"/>
		<path class="st2" d="M334.2,247.73c0.46-0.98,1.35-1.58,2.2-0.91c1.06,0.83-0.19,1.98-0.08,3
			C335.61,249.12,334.9,248.43,334.2,247.73z"/>
		<path class="st2" d="M343.43,403.11c-2.89,2.23-4.66,0.19-5.84-1.95c-0.77-1.4-1.47-1.97-2.96-1.96
			c-6.46,0.04-12.92,0.04-19.39,0.03c-1.75,0-2.74,0.26-2.27,2.57c0.48,2.4,0.29,4.94,0.32,7.41c0.07,4.98,0.06,5.01,4.86,5.05
			c4.64,0.04,9.28-0.04,13.92,0.04c2.03,0.03,4.4-0.69,5.3,2.32c0.54,1.79,0.99,0.1,1.46-0.24c1.69-1.22,2.06-3.88,4.57-4.21
			c-0.16,8.09-0.16,8.09-8.48,8.15c-7.97,0.05-15.94-0.01-23.91,0.19c-2.97,0.08-4.25-0.76-3.86-3.9c0.22-1.76,0.42-3.66-0.83-5.26
			c2.19-2.59,0.24-5.28,0.2-7.92c1.43-2.3,0.55-4.84,0.67-7.26c0.09-1.91,0.32-3.04,2.69-3.02c10.27,0.1,20.55,0.1,30.82-0.02
			c2.39-0.03,2.72,1.08,2.67,3.01C343.3,398.47,343.4,400.79,343.43,403.11z"/>
		<path class="st2" d="M244.66,347.39c1.21,3.69,2.03,7.36-0.47,10.89C244.97,354.68,244.24,351.01,244.66,347.39z"/>
		<path class="st2" d="M202.53,355.28c-1.29-1.29-1.27-2.59-0.01-3.89C202.52,352.69,202.53,353.98,202.53,355.28z"/>
		<path class="st0" d="M275.57,358.41c0.67-0.48,1.34-0.95,2.01-1.43c4.84-0.42,7.92,1.79,7.79,5.59c-0.12,3.51-3,5.38-7.79,5.06
			c-0.98-0.82-1.97-1.64-2.95-2.45C274.32,362.83,274.15,360.5,275.57,358.41z"/>
		<path class="st0" d="M279.76,412.38c-3.3,0-5.12-1.85-5.21-5.3c-0.09-3.57,1.99-5.79,5.36-5.72c3.23,0.06,5.6,2.6,5.45,5.86
			C285.22,410.23,282.9,412.37,279.76,412.38z"/>
		<path class="st0" d="M364.24,283.91c0,3.02-2.7,5.52-5.8,5.39c-2.67-0.11-4.93-2.44-4.99-5.14c-0.07-3.15,2.45-5.7,5.55-5.61
			C362.05,278.65,364.24,280.88,364.24,283.91z"/>
		<path class="st0" d="M162.87,368.42c-0.37-1.34-0.92-2.64-0.65-4.08c0.54-0.83,0.95-1.81,1.66-2.45c2.28-2.05,4.91-2.13,7.21-0.27
			c2.18,1.76,2.48,4.27,1.07,6.7c-1.39,2.38-4.93,3.11-7.38,1.66C164.08,369.56,163.5,368.94,162.87,368.42z"/>
		<path class="st2" d="M200.39,427.69c-0.25-1.84-0.49-3.67-0.74-5.51C203.35,423.55,201.73,425.64,200.39,427.69z"/>
		<path class="st2" d="M198.58,430.14c-0.15-0.87,0.4-1.26,1.07-1.58C199.5,429.23,199.32,429.88,198.58,430.14z"/>
		<path class="st2" d="M197.09,431.12c0.15-0.89,0.71-1.2,1.56-1.06C198.38,430.79,197.78,431.02,197.09,431.12z"/>
		<path class="st0" d="M283.43,320.06c-2.64,1.42-5.34,2.2-7.65-0.41c-2.35-2.65-1.71-5.47,0.09-8.18c2.66-1.29,5.35-1.82,7.61,0.6
			C285.89,314.66,285.19,317.41,283.43,320.06z"/>
		<path class="st0" d="M248.52,252.74c-5.62-0.01-10.82-5.15-10.9-10.78c-0.08-5.91,5.23-11.32,10.99-11.2
			c5.53,0.12,10.7,5.1,10.81,10.39C259.56,247.87,254.97,252.75,248.52,252.74z"/>
		<path class="st1" d="M245.58,311.44c0.01-0.32-0.03-0.65,0.03-0.97c0.24-1.17-0.64-2.65,0.83-3.47c0.55-0.3,0.89,0.33,0.94,0.77
			c0.15,1.57,0.67,3.38-1.84,3.62L245.58,311.44z"/>
		<path class="st0" d="M210.76,317.4c-0.03-0.67-0.05-1.34-0.08-2.01c3.13-4.78,5.89-5.75,9.09-3.35c2.29,1.71,1.55,4.19,1.92,6.4
			c-0.2,0.32-0.19,0.63,0.02,0.93c-0.31,1.69,0.01,3.57-3.08,2.54C215.62,320.91,212.16,321.1,210.76,317.4z"/>
		<path class="st2" d="M221.71,319.37c-0.21-0.31-0.22-0.62-0.02-0.93C222.42,318.73,222.41,319.04,221.71,319.37z"/>
		<path class="st0" d="M372.49,156.69c0.11,3.14-1.94,5.25-5.15,5.24c-3.18-0.02-4.83-1.66-4.97-4.83c-0.15-3.38,1.7-5.55,4.77-5.59
			C370.26,151.46,372.37,153.51,372.49,156.69z"/>
		<path class="st1" d="M214.01,343.98c-1.39,0.45-2.35,0.53-3.27,0.08c-0.35-0.17-0.26-0.57,0.2-0.6
			C211.88,343.39,212.89,343.02,214.01,343.98z"/>
		<path class="st1" d="M209.63,315.4c-0.07,0.15-0.17,0.42-0.22,0.41c-0.33-0.06-0.24-0.21,0.25-0.39L209.63,315.4z"/>
		<path class="st1" d="M325.76,355.23c0.83,0,1.67-0.09,2.49,0.02c2.9,0.37,6.93-1.48,8.47,1c1.95,3.13,0.62,7.43,0.59,11.22
			c-0.02,1.81-1.5,1.93-2.89,1.93c-5.98,0.01-11.96-0.06-17.94,0.03c-2.41,0.04-3.03-1.06-3.19-3.3
			c-0.78-10.94-0.84-10.93,9.98-10.92c0.83,0,1.66,0,2.49,0C325.76,355.21,325.76,355.22,325.76,355.23z"/>
		<path class="st1" d="M351.33,364.96c4.38-1.28,8.93,0.18,13.34-0.66C360.29,365.62,355.8,365.1,351.33,364.96z"/>
	</g>
</g>
</svg>
