<?xml version="1.0" encoding="UTF-8" standalone="no"?>
<svg
   xmlns:dc="http://purl.org/dc/elements/1.1/"
   xmlns:cc="http://creativecommons.org/ns#"
   xmlns:rdf="http://www.w3.org/1999/02/22-rdf-syntax-ns#"
   xmlns:svg="http://www.w3.org/2000/svg"
   xmlns="http://www.w3.org/2000/svg"
   xmlns:sodipodi="http://sodipodi.sourceforge.net/DTD/sodipodi-0.dtd"
   xmlns:inkscape="http://www.inkscape.org/namespaces/inkscape"
   width="27.120098mm"
   height="30.029339mm"
   viewBox="0 0 27.120098 30.029339"
   version="1.1"
   id="svg3797"
   inkscape:version="1.0.1 (3bc2e813f5, 2020-09-07)"
   sodipodi:docname="ET200.svg">
  <defs
     id="defs3791" />
  <sodipodi:namedview
     id="base"
     pagecolor="#ffffff"
     bordercolor="#666666"
     borderopacity="1.0"
     inkscape:pageopacity="0.0"
     inkscape:pageshadow="2"
     inkscape:zoom="2.8"
     inkscape:cx="20.512035"
     inkscape:cy="61.987355"
     inkscape:document-units="mm"
     inkscape:current-layer="layer1"
     inkscape:document-rotation="0"
     showgrid="false"
     fit-margin-top="0"
     fit-margin-left="0"
     fit-margin-right="0"
     fit-margin-bottom="0"
     inkscape:window-width="1438"
     inkscape:window-height="1040"
     inkscape:window-x="130"
     inkscape:window-y="0"
     inkscape:window-maximized="0" />
  <metadata
     id="metadata3794">
    <rdf:RDF>
      <cc:Work
         rdf:about="">
        <dc:format>image/svg+xml</dc:format>
        <dc:type
           rdf:resource="http://purl.org/dc/dcmitype/StillImage" />
        <dc:title></dc:title>
      </cc:Work>
    </rdf:RDF>
  </metadata>
  <g
     inkscape:label="Calque 1"
     inkscape:groupmode="layer"
     id="layer1"
     transform="translate(-49.939951,-55.288902)">
    <g
       transform="matrix(0.19043457,0,0,0.19043457,-1.046229,48.698172)"
       id="g4190">
      <path
         style="color:#000000;font-style:normal;font-variant:normal;font-weight:normal;font-stretch:normal;font-size:medium;line-height:normal;font-family:sans-serif;font-variant-ligatures:normal;font-variant-position:normal;font-variant-caps:normal;font-variant-numeric:normal;font-variant-alternates:normal;font-feature-settings:normal;text-indent:0;text-align:start;text-decoration:none;text-decoration-line:none;text-decoration-style:solid;text-decoration-color:#000000;letter-spacing:normal;word-spacing:normal;text-transform:none;writing-mode:lr-tb;direction:ltr;text-orientation:mixed;dominant-baseline:auto;baseline-shift:baseline;text-anchor:start;white-space:normal;shape-padding:0;clip-rule:nonzero;display:inline;overflow:visible;visibility:visible;opacity:1;isolation:auto;mix-blend-mode:normal;color-interpolation:sRGB;color-interpolation-filters:linearRGB;solid-color:#000000;solid-opacity:1;vector-effect:none;fill:#000000;fill-opacity:1;fill-rule:nonzero;stroke:none;stroke-width:5;stroke-linecap:butt;stroke-linejoin:round;stroke-miterlimit:4;stroke-dasharray:none;stroke-dashoffset:0;stroke-opacity:1;color-rendering:auto;image-rendering:auto;shape-rendering:auto;text-rendering:auto;enable-background:accumulate"
         d="m 301.39186,34.609302 c -0.37008,-0.0067 -0.73703,0.06883 -1.07437,0.221174 l -31.38198,18.424671 c -1.30474,0.591035 -1.21244,2.188641 -1.18856,3.42718 v 8.821169 c 1.7e-4,1.242727 0.91304,2.296708 2.14302,2.474266 l 2.9373,0.423747 v 27.868583 l -2.94711,1.668116 c -1.2858,0.383174 -2.09061,1.29271 -2.13321,2.577622 v 71.6349 c 1.6e-4,1.24273 0.91304,2.29671 2.14302,2.47427 l 16.8393,2.42827 v 8.15144 c 2e-4,1.24289 0.91334,2.29694 2.14352,2.47427 l 17.37416,2.50527 c 0.11201,0.0152 0.22492,0.0228 0.33795,0.0227 0.90935,0.19448 1.8515,-0.13178 2.44584,-0.84697 l 3.92276,-4.7346 c 17.7211,2.53052 35.33255,5.09484 53.02673,7.64658 0.74597,0.10715 1.50048,-0.1279 2.05362,-0.63975 0.39301,-0.13761 0.74543,-0.37119 1.02526,-0.67955 l 30.30204,-33.5473 c 0.42152,-0.46682 0.65161,-1.07536 0.64439,-1.70429 l -0.14882,-13.04313 9.74928,-16.35714 c 0.22961,-0.38531 0.35134,-0.82529 0.35243,-1.27383 l 0.18915,-74.839356 c 5.5e-4,-0.805129 -0.38666,-1.561257 -1.04026,-2.031402 -0.39611,-0.397679 -0.9145,-0.650506 -1.47175,-0.717785 L 301.64094,34.626355 c -0.0827,-0.0098 -0.16582,-0.01552 -0.24908,-0.01705 z"
         id="path4019"
         inkscape:connector-curvature="0"
         sodipodi:nodetypes="ccccccccccccccccccccccccccccccccc" />
      <path
         style="fill:#505453;fill-opacity:1;stroke:none;stroke-width:0.264583px;stroke-linecap:butt;stroke-linejoin:miter;stroke-opacity:1"
         d="m 270.34746,100.54687 4.56962,-2.440091 13.71499,1.920371 -0.0472,2.92932 z"
         id="path4017"
         inkscape:connector-curvature="0"
         sodipodi:nodetypes="ccccc" />
      <path
         inkscape:connector-curvature="0"
         style="opacity:1;vector-effect:none;fill:#3a393f;fill-opacity:1;stroke:none;stroke-width:0.391462;stroke-linecap:butt;stroke-linejoin:round;stroke-miterlimit:4;stroke-dasharray:none;stroke-dashoffset:0;stroke-opacity:1"
         d="m 1248.5586,603.01562 v 94.71485 l 66.0234,9.52148 v -94.74218 z m 136.0234,4.19922 -15.2968,13.16211 -50.7266,-7.29492 v 94.74219 l 66.0234,9.52148 z"
         transform="scale(0.26458333)"
         id="rect4003" />
      <path
         style="fill:#1f1e21;fill-opacity:1;stroke:none;stroke-width:0.264583px;stroke-linecap:butt;stroke-linejoin:miter;stroke-opacity:1"
         d="m 362.10118,163.00744 5.48066,-4.91369 -0.37799,31.18303 30.30201,-33.54721 -1.22564,-107.110392 -33.80106,30.855524 z"
         id="path4011"
         inkscape:connector-curvature="0"
         sodipodi:nodetypes="ccccccc" />
      <path
         inkscape:connector-curvature="0"
         style="fill:#1f1e21;fill-opacity:1;stroke:none;stroke-width:1px;stroke-linecap:butt;stroke-linejoin:miter;stroke-opacity:1"
         d="m 1162.1406,590.58789 -1.4258,119.07422 20.7129,-25 1.8223,-91.03906 z"
         transform="scale(0.26458333)"
         id="path4015" />
      <path
         inkscape:connector-curvature="0"
         style="opacity:1;vector-effect:none;fill:#cacaca;fill-opacity:1;stroke:none;stroke-width:0.391462;stroke-linecap:butt;stroke-linejoin:round;stroke-miterlimit:4;stroke-dasharray:none;stroke-dashoffset:0;stroke-opacity:1"
         d="m 1179.8438,593.13477 v 94.6875 l 66.0253,9.52148 v -94.71484 z"
         transform="scale(0.26458333)"
         id="rect3833" />
      <path
         inkscape:connector-curvature="0"
         style="opacity:1;vector-effect:none;fill:#25292c;fill-opacity:1;stroke:none;stroke-width:0.372376;stroke-linecap:butt;stroke-linejoin:round;stroke-miterlimit:4;stroke-dasharray:none;stroke-dashoffset:0;stroke-opacity:1"
         d="m 1193.7129,603.38867 v 15.48242 l 15.4824,2.23243 v -15.48243 z m 20.9004,3.01367 v 15.48243 l 15.4844,2.23242 v -15.48242 z m 47.8144,6.89454 v 15.48242 l 15.4825,2.23242 V 615.5293 Z m 20.9004,3.01367 v 15.48242 l 15.4824,2.23242 v -15.48242 z m 49.0996,7.08007 v 15.48243 l 15.4825,2.23242 v -15.48242 z m 20.9004,3.01368 v 15.48242 l 15.4824,2.23242 v -15.48242 z m -159.6152,9.01367 v 15.48242 l 15.4824,2.23242 v -15.48242 z m 20.9004,3.01367 v 15.48438 l 15.4844,2.23242 v -15.48438 z m 47.8144,6.89453 v 15.48242 l 15.4825,2.23243 v -15.48243 z m 20.9004,3.01563 v 15.48242 l 15.4824,2.23242 v -15.48242 z m 49.0996,7.08008 v 15.48046 l 15.4825,2.23243 V 657.6543 Z m 20.9004,3.01367 v 15.48242 l 15.4824,2.23242 v -15.48242 z m -159.6152,9.01367 v 15.48242 l 15.4824,2.23242 v -15.48242 z m 20.9004,3.01367 v 15.48242 l 15.4844,2.23242 v -15.48242 z m 47.8144,6.89453 v 15.48242 l 15.4825,2.23243 v -15.48243 z m 20.9004,3.01367 v 15.48243 l 15.4824,2.23242 v -15.48242 z m 49.0996,7.08008 v 15.48242 l 15.4825,2.23243 v -15.48243 z m 20.9004,3.01367 v 15.48243 l 15.4824,2.23242 v -15.48242 z"
         id="rect3835"
         transform="scale(0.26458333)" />
      <rect
         style="opacity:1;vector-effect:none;fill:#3a393f;fill-opacity:1;stroke:none;stroke-width:0.130478;stroke-linecap:butt;stroke-linejoin:round;stroke-miterlimit:4;stroke-dasharray:none;stroke-dashoffset:0;stroke-opacity:1"
         id="rect4007"
         width="9.7921429"
         height="88.803673"
         x="384.4158"
         y="9.3490953"
         transform="matrix(0.98976246,0.14272446,0,1,0,0)" />
      <path
         sodipodi:nodetypes="ccccc"
         inkscape:connector-curvature="0"
         style="opacity:1;vector-effect:none;fill:#3a393f;fill-opacity:1;stroke:none;stroke-width:0.72147;stroke-linecap:butt;stroke-linejoin:round;stroke-miterlimit:4;stroke-dasharray:none;stroke-dashoffset:0;stroke-opacity:1"
         d="m 1040.6075,255.22538 -0.6632,114.36157 51.052,2.64765 -0.032,-106.12755 z"
         transform="scale(0.26458333)"
         id="rect3790" />
      <rect
         ry="6.2847857"
         y="29.848145"
         x="281.66351"
         height="24.336832"
         width="10.816822"
         id="rect3792"
         style="opacity:1;vector-effect:none;fill:#d1d1d1;fill-opacity:1;stroke:none;stroke-width:0.185649;stroke-linecap:butt;stroke-linejoin:round;stroke-miterlimit:4;stroke-dasharray:none;stroke-dashoffset:0;stroke-opacity:1"
         transform="matrix(0.98976246,0.14272446,0,1,0,0)" />
      <rect
         style="opacity:1;vector-effect:none;fill:#b3b3b3;fill-opacity:1;stroke:none;stroke-width:0.122691;stroke-linecap:butt;stroke-linejoin:round;stroke-miterlimit:4;stroke-dasharray:none;stroke-dashoffset:0;stroke-opacity:1"
         id="rect3794"
         width="8.1927137"
         height="14.033713"
         x="283.07104"
         y="34.553711"
         ry="3.6240909"
         transform="matrix(0.98976246,0.14272446,0,1,0,0)" />
      <rect
         style="opacity:1;vector-effect:none;fill:#666666;fill-opacity:1;stroke:none;stroke-width:0.119873;stroke-linecap:butt;stroke-linejoin:round;stroke-miterlimit:4;stroke-dasharray:none;stroke-dashoffset:0;stroke-opacity:1"
         id="rect3794-4"
         width="8.0046024"
         height="13.711488"
         x="281.92856"
         y="35.132919"
         ry="3.5408788"
         transform="matrix(0.98976246,0.14272446,0,1,0,0)" />
      <path
         style="opacity:1;vector-effect:none;fill:#242427;fill-opacity:1;stroke:none;stroke-width:0.704372;stroke-linecap:butt;stroke-linejoin:round;stroke-miterlimit:4;stroke-dasharray:none;stroke-dashoffset:0;stroke-opacity:1"
         d="m 1021.4062,210.16992 v 37.40235 l 70.6817,10.19335 c 2.3061,-2.22035 26.8514,-20.31147 40.0524,-32.04325 z m 0,169.73242 v 270.7461 l 108.1387,15.59375 V 427.59961 l -36.3064,137.06347 -2.718,-170.71989 z"
         transform="scale(0.26458333)"
         id="rect3768"
         inkscape:connector-curvature="0"
         sodipodi:nodetypes="cccccccccccc" />
      <path
         inkscape:connector-curvature="0"
         style="opacity:1;vector-effect:none;fill:#3fc1c1;fill-opacity:1;stroke:none;stroke-width:0.792538;stroke-linecap:butt;stroke-linejoin:round;stroke-miterlimit:4;stroke-dasharray:none;stroke-dashoffset:0;stroke-opacity:1"
         d="m 1031.5527,216.72852 v 26.22656 l 66.0528,9.52539 c 5.6659,-5.40161 14.0473,-13.32398 21.7929,-20.42969 v -2.6543 z"
         transform="scale(0.26458333)"
         id="rect3770" />
      <rect
         y="114.22401"
         x="277.66608"
         height="11.975085"
         width="19.659901"
         id="rect3770-0"
         style="opacity:1;vector-effect:none;fill:#09090a;fill-opacity:1;stroke:none;stroke-width:0.253344;stroke-linecap:butt;stroke-linejoin:round;stroke-miterlimit:4;stroke-dasharray:none;stroke-dashoffset:0;stroke-opacity:1"
         transform="matrix(0.98976246,0.14272446,0,1,0,0)" />
      <path
         transform="scale(0.26458333)"
         inkscape:connector-curvature="0"
         style="opacity:1;vector-effect:none;fill:#3a393f;fill-opacity:1;stroke:none;stroke-width:0.750742;stroke-linecap:butt;stroke-linejoin:round;stroke-miterlimit:4;stroke-dasharray:none;stroke-dashoffset:0;stroke-opacity:1"
         d="m 1093.1504,261.57617 v 438.41016 l 65.666,9.46875 V 271.04492 Z m 68.6348,9.83985 V 588.7207 l 65.7773,9.48633 V 280.90234 Z m 69.7011,10.05273 v 317.30273 l 65.7754,9.48633 V 290.95312 Z m 69.6797,10.04687 v 317.30469 l 65.7774,9.48438 V 301 Z"
         id="rect3811" />
      <rect
         style="opacity:1;vector-effect:none;fill:#7ad4d4;fill-opacity:1;stroke:none;stroke-width:0.0695148;stroke-linecap:butt;stroke-linejoin:round;stroke-miterlimit:4;stroke-dasharray:none;stroke-dashoffset:0;stroke-opacity:1"
         id="rect3813"
         width="11.473624"
         height="21.512394"
         x="295.26105"
         y="74.743385"
         transform="matrix(0.98976246,0.14272446,0,1,0,0)" />
      <rect
         y="110.8288"
         x="295.26514"
         height="26.84971"
         width="11.465465"
         id="rect3815"
         style="opacity:1;vector-effect:none;fill:#25292c;fill-opacity:1;stroke:none;stroke-width:0.0776333;stroke-linecap:butt;stroke-linejoin:round;stroke-miterlimit:4;stroke-dasharray:none;stroke-dashoffset:0;stroke-opacity:1"
         transform="matrix(0.98976246,0.14272446,0,1,0,0)" />
      <rect
         y="40.019573"
         x="313.64478"
         height="56.215004"
         width="11.430758"
         id="rect3819"
         style="opacity:1;vector-effect:none;fill:#7ad4d4;fill-opacity:1;stroke:none;stroke-width:0.112162;stroke-linecap:butt;stroke-linejoin:round;stroke-miterlimit:4;stroke-dasharray:none;stroke-dashoffset:0;stroke-opacity:1"
         transform="matrix(0.98976246,0.14272446,0,1,0,0)" />
      <rect
         style="opacity:1;vector-effect:none;fill:#7ad4d4;fill-opacity:1;stroke:none;stroke-width:0.112162;stroke-linecap:butt;stroke-linejoin:round;stroke-miterlimit:4;stroke-dasharray:none;stroke-dashoffset:0;stroke-opacity:1"
         id="rect3825"
         width="11.430758"
         height="56.215004"
         x="332.27713"
         y="40.019573"
         transform="matrix(0.98976246,0.14272446,0,1,0,0)" />
      <rect
         y="40.019573"
         x="350.90402"
         height="56.215004"
         width="11.430758"
         id="rect3829"
         style="opacity:1;vector-effect:none;fill:#7ad4d4;fill-opacity:1;stroke:none;stroke-width:0.112162;stroke-linecap:butt;stroke-linejoin:round;stroke-miterlimit:4;stroke-dasharray:none;stroke-dashoffset:0;stroke-opacity:1"
         transform="matrix(0.98976246,0.14272446,0,1,0,0)" />
      <path
         style="fill:#69616d;fill-opacity:1;stroke:none;stroke-width:1px;stroke-linecap:butt;stroke-linejoin:miter;stroke-opacity:1"
         d="m 1138.6134,135.9442 -118.2775,73.94642 111.1192,16.08594 90.5605,-61.77734 -85.5117,62.86523 -41.416,31.31446 64.4746,9.86328 103.7031,-78.22266 -99.3398,78.89063 65.039,9.94922 104.5215,-78.83985 -100.123,79.51367 67.1211,10.26758 103.4004,-77.99609 -99.0508,78.66211 60.9746,9.32812 42.4102,-35.61328 -4.7911,3.61719 -54.3711,-8.99414 7.7774,-5.73438 53.9101,8.99024 4.5586,-3.82813 -53.3418,-8.94531 7.7071,-5.68555 52.4902,8.875 4.5195,-3.79687 -51.9257,-8.82813 7.6386,-5.63476 51.084,8.75781 3.9551,-3.32227 38.2226,5.82813 63.9024,-56.80274 z m -2.5252,4.9423 94.6638,13.48655 -6.5723,4.58593 -94.2137,-13.93576 z m -10.4745,7.07812 93.8804,14.2639 -7.6328,5.32617 -93.3233,-14.80686 z m -30.6687,20.13907 95.9964,14.0467 -10.6992,7.46484 -95.0981,-14.88654 z m -16.9053,11.42774 94.4193,15.51545 -12.9766,9.05468 -93.2377,-16.59748 z m 97.5658,22.90021 53.3984,9.15234 -7.418,5.59961 -53.6191,-9.11718 z m -12.7227,9.38477 53.7676,9.09179 -7.4824,5.64844 -53.9922,-9.05469 z m 81.2949,1.33007 53.3965,9.15235 -7.416,5.59765 -53.6211,-9.11523 z m -94.1308,8.13672 54.1426,9.03125 -7.5489,5.69727 -54.3691,-8.99219 z m 81.4082,1.24805 53.7676,9.0918 -7.4825,5.64843 -53.9922,-9.05664 z m 82.0078,0.97266 53.3984,9.15234 -7.4179,5.59766 -53.6192,-9.11524 z m -176.3652,7.33203 54.5214,8.96679 -7.6152,5.75 -54.7519,-8.92968 z m 81.5214,1.16211 54.1426,9.03125 -7.5488,5.69726 -54.3711,-8.99218 z m 82.1211,0.88867 53.7676,9.09375 -7.4824,5.64648 -53.9922,-9.05468 z m -176.7109,7.58789 54.9062,8.90234 -7.6835,5.79883 -55.1387,-8.86133 z m 81.6387,1.07617 54.5215,8.9668 -7.6153,5.74804 -54.7519,-8.92773 z m 82.2363,0.80469 54.1426,9.03125 -7.5489,5.69726 -54.3691,-8.99218 z m -177.0586,7.84375 55.2949,8.83594 -7.7539,5.85156 -55.5293,-8.79492 z m 81.7559,0.99023 54.9062,8.90235 -7.6836,5.79882 -55.1387,-8.86328 z m 82.3515,0.71875 54.5235,8.9668 -7.6153,5.74805 -54.7539,-8.92774 z m -95.5371,9.00586 55.2949,8.83594 -7.7519,5.85156 -55.5293,-8.79492 z m 82.4707,0.63282 54.9063,8.90234 -7.6836,5.79883 -55.1387,-8.86328 z m 81.9961,1.07617 54.5215,8.96679 -7.6152,5.74805 -54.752,-8.92773 z m -95.1797,8.64843 55.293,8.83594 -7.752,5.85156 -55.5293,-8.79492 z m 82.1133,0.98829 54.9043,8.90234 -7.6816,5.80078 -55.1407,-8.86328 z m -13.1855,9.72656 55.2949,8.83594 -7.752,5.85156 -55.5312,-8.79688 z"
         transform="scale(0.26458333)"
         id="path4009"
         inkscape:connector-curvature="0"
         sodipodi:nodetypes="cccccccccccccccccccccccccccccccccccccccccccccccccccccccccccccccccccccccccccccccccccccccccccccccccccccccccccccccccccccccccccccccccccccccccccccccccccccccccccccc" />
      <path
         style="fill:#1f1e21;fill-opacity:1;stroke:none;stroke-width:0.264583px;stroke-linecap:butt;stroke-linejoin:miter;stroke-opacity:1"
         d="m 390.4494,153.55803 17.00891,-28.53719 0.18901,-74.839294 -17.19792,15.119049 z"
         id="path4013"
         inkscape:connector-curvature="0"
         sodipodi:nodetypes="ccccc" />
      <path
         sodipodi:nodetypes="ccccc"
         style="fill:#000000;stroke:none;stroke-width:0.264583px;stroke-linecap:butt;stroke-linejoin:miter;stroke-opacity:1"
         d="m 288.6793,69.741814 0.82593,-0.815378 -0.3062,30.486509 -0.51973,-5.669642 z"
         id="path4116"
         inkscape:connector-curvature="0" />
      <path
         style="fill:#9b9b9b;fill-opacity:1;stroke:none;stroke-width:0.264583px;stroke-linecap:butt;stroke-linejoin:miter;stroke-opacity:1"
         d="m 361.48203,79.375785 c 6.21402,-5.011304 18.90932,-16.169804 18.90932,-16.169804 l 10.08943,1.737251 16.97162,-15.03391 -17.7066,13.363474 -8.21854,-1.403165 5.67946,-5.078121 c 0,0 -10.15624,6.748555 -25.72469,22.584275 z"
         id="path4114"
         inkscape:connector-curvature="0"
         sodipodi:nodetypes="cccccccc" />
      <path
         inkscape:connector-curvature="0"
         id="path4192"
         d="m 397.25289,142.03717 -7.07088,12.09494 9.05569,-11.59874 z"
         style="fill:#000000;stroke:none;stroke-width:1.38937px;stroke-linecap:butt;stroke-linejoin:miter;stroke-opacity:1" />
      <path
         d="m 281.7445,78.056299 a 0.46580684,0.73198223 0 0 1 -0.4129,0.787757 0.46580684,0.73198223 0 0 1 -0.51268,-0.626494 0.46580684,0.73198223 0 0 1 0.38415,-0.822889 0.46580684,0.73198223 0 0 1 0.53422,0.580347 l -0.45702,0.141511 z"
         sodipodi:end="6.0886335"
         sodipodi:start="6.2008058"
         sodipodi:ry="0.73198223"
         sodipodi:rx="0.46580684"
         sodipodi:cy="78.116531"
         sodipodi:cx="281.28027"
         sodipodi:type="arc"
         id="path4838"
         style="opacity:1;vector-effect:none;fill:#000000;fill-opacity:1;stroke:none;stroke-width:19.9181;stroke-linecap:butt;stroke-linejoin:round;stroke-miterlimit:4;stroke-dasharray:none;stroke-dashoffset:0;stroke-opacity:1"
         sodipodi:arc-type="slice" />
      <path
         style="opacity:1;vector-effect:none;fill:#000000;fill-opacity:1;stroke:none;stroke-width:19.9181;stroke-linecap:butt;stroke-linejoin:round;stroke-miterlimit:4;stroke-dasharray:none;stroke-dashoffset:0;stroke-opacity:1"
         id="path4840"
         sodipodi:type="arc"
         sodipodi:cx="281.24698"
         sodipodi:cy="80.226585"
         sodipodi:rx="0.46580684"
         sodipodi:ry="0.73198223"
         sodipodi:start="6.2008058"
         sodipodi:end="6.0886335"
         d="m 281.71121,80.166353 a 0.46580684,0.73198223 0 0 1 -0.4129,0.787757 0.46580684,0.73198223 0 0 1 -0.51268,-0.626494 0.46580684,0.73198223 0 0 1 0.38415,-0.822889 0.46580684,0.73198223 0 0 1 0.53422,0.580347 l -0.45702,0.141511 z"
         sodipodi:arc-type="slice" />
      <path
         d="m 281.71121,82.276621 a 0.46580684,0.73198223 0 0 1 -0.4129,0.787756 0.46580684,0.73198223 0 0 1 -0.51268,-0.626493 0.46580684,0.73198223 0 0 1 0.38415,-0.822889 0.46580684,0.73198223 0 0 1 0.53422,0.580346 l -0.45702,0.141512 z"
         sodipodi:end="6.0886335"
         sodipodi:start="6.2008058"
         sodipodi:ry="0.73198223"
         sodipodi:rx="0.46580684"
         sodipodi:cy="82.336853"
         sodipodi:cx="281.24698"
         sodipodi:type="arc"
         id="path4842"
         style="opacity:1;vector-effect:none;fill:#000000;fill-opacity:1;stroke:none;stroke-width:19.9181;stroke-linecap:butt;stroke-linejoin:round;stroke-miterlimit:4;stroke-dasharray:none;stroke-dashoffset:0;stroke-opacity:1"
         sodipodi:arc-type="slice" />
      <path
         style="opacity:1;vector-effect:none;fill:#000000;fill-opacity:1;stroke:none;stroke-width:19.9181;stroke-linecap:butt;stroke-linejoin:round;stroke-miterlimit:4;stroke-dasharray:none;stroke-dashoffset:0;stroke-opacity:1"
         id="path4844"
         sodipodi:type="arc"
         sodipodi:cx="281.24698"
         sodipodi:cy="84.446854"
         sodipodi:rx="0.46580684"
         sodipodi:ry="0.73198223"
         sodipodi:start="6.2008058"
         sodipodi:end="6.0886335"
         d="m 281.71121,84.386621 a 0.46580684,0.73198223 0 0 1 -0.4129,0.787757 0.46580684,0.73198223 0 0 1 -0.51268,-0.626494 0.46580684,0.73198223 0 0 1 0.38415,-0.822889 0.46580684,0.73198223 0 0 1 0.53422,0.580347 l -0.45702,0.141512 z"
         sodipodi:arc-type="slice" />
      <path
         d="m 281.71121,86.496775 a 0.46580684,0.73198223 0 0 1 -0.4129,0.787756 0.46580684,0.73198223 0 0 1 -0.51268,-0.626493 0.46580684,0.73198223 0 0 1 0.38415,-0.82289 0.46580684,0.73198223 0 0 1 0.53422,0.580347 l -0.45702,0.141512 z"
         sodipodi:end="6.0886335"
         sodipodi:start="6.2008058"
         sodipodi:ry="0.73198223"
         sodipodi:rx="0.46580684"
         sodipodi:cy="86.557007"
         sodipodi:cx="281.24698"
         sodipodi:type="arc"
         id="path4846"
         style="opacity:1;vector-effect:none;fill:#000000;fill-opacity:1;stroke:none;stroke-width:19.9181;stroke-linecap:butt;stroke-linejoin:round;stroke-miterlimit:4;stroke-dasharray:none;stroke-dashoffset:0;stroke-opacity:1"
         sodipodi:arc-type="slice" />
      <path
         style="opacity:1;vector-effect:none;fill:#000000;fill-opacity:1;stroke:none;stroke-width:19.9181;stroke-linecap:butt;stroke-linejoin:round;stroke-miterlimit:4;stroke-dasharray:none;stroke-dashoffset:0;stroke-opacity:1"
         id="path4848"
         sodipodi:type="arc"
         sodipodi:cx="284.21878"
         sodipodi:cy="79.607719"
         sodipodi:rx="0.46580684"
         sodipodi:ry="0.73198223"
         sodipodi:start="6.2008058"
         sodipodi:end="6.0886335"
         d="m 284.68301,79.547487 a 0.46580684,0.73198223 0 0 1 -0.4129,0.787757 0.46580684,0.73198223 0 0 1 -0.51268,-0.626494 0.46580684,0.73198223 0 0 1 0.38415,-0.822889 0.46580684,0.73198223 0 0 1 0.53422,0.580347 l -0.45702,0.141511 z"
         sodipodi:arc-type="slice" />
      <path
         d="m 284.64971,81.657541 a 0.46580684,0.73198223 0 0 1 -0.41289,0.787757 0.46580684,0.73198223 0 0 1 -0.51268,-0.626494 0.46580684,0.73198223 0 0 1 0.38414,-0.822889 0.46580684,0.73198223 0 0 1 0.53422,0.580347 l -0.45701,0.141511 z"
         sodipodi:end="6.0886335"
         sodipodi:start="6.2008058"
         sodipodi:ry="0.73198223"
         sodipodi:rx="0.46580684"
         sodipodi:cy="81.717773"
         sodipodi:cx="284.18549"
         sodipodi:type="arc"
         id="path4850"
         style="opacity:1;vector-effect:none;fill:#000000;fill-opacity:1;stroke:none;stroke-width:19.9181;stroke-linecap:butt;stroke-linejoin:round;stroke-miterlimit:4;stroke-dasharray:none;stroke-dashoffset:0;stroke-opacity:1"
         sodipodi:arc-type="slice" />
      <path
         style="opacity:1;vector-effect:none;fill:#000000;fill-opacity:1;stroke:none;stroke-width:19.9181;stroke-linecap:butt;stroke-linejoin:round;stroke-miterlimit:4;stroke-dasharray:none;stroke-dashoffset:0;stroke-opacity:1"
         id="path4852"
         sodipodi:type="arc"
         sodipodi:cx="284.18549"
         sodipodi:cy="83.828041"
         sodipodi:rx="0.46580684"
         sodipodi:ry="0.73198223"
         sodipodi:start="6.2008058"
         sodipodi:end="6.0886335"
         d="m 284.64971,83.767809 a 0.46580684,0.73198223 0 0 1 -0.41289,0.787756 0.46580684,0.73198223 0 0 1 -0.51268,-0.626493 0.46580684,0.73198223 0 0 1 0.38414,-0.822889 0.46580684,0.73198223 0 0 1 0.53422,0.580346 l -0.45701,0.141512 z"
         sodipodi:arc-type="slice" />
      <path
         d="m 284.64971,85.87781 a 0.46580684,0.73198223 0 0 1 -0.41289,0.787756 0.46580684,0.73198223 0 0 1 -0.51268,-0.626493 0.46580684,0.73198223 0 0 1 0.38414,-0.82289 0.46580684,0.73198223 0 0 1 0.53422,0.580347 l -0.45701,0.141512 z"
         sodipodi:end="6.0886335"
         sodipodi:start="6.2008058"
         sodipodi:ry="0.73198223"
         sodipodi:rx="0.46580684"
         sodipodi:cy="85.938042"
         sodipodi:cx="284.18549"
         sodipodi:type="arc"
         id="path4854"
         style="opacity:1;vector-effect:none;fill:#000000;fill-opacity:1;stroke:none;stroke-width:19.9181;stroke-linecap:butt;stroke-linejoin:round;stroke-miterlimit:4;stroke-dasharray:none;stroke-dashoffset:0;stroke-opacity:1"
         sodipodi:arc-type="slice" />
    </g>
  </g>
</svg>
