<?xml version="1.0" encoding="UTF-8"?>
<svg id="_Слой_2" data-name="Слой 2" xmlns="http://www.w3.org/2000/svg" viewBox="0 0 459 460">
  <defs>
    <style>
      .cls-1, .cls-2 {
        stroke-width: 0px;
      }

      .cls-2 {
        fill: #fff;
      }
    </style>
  </defs>
  <g id="_Слой_1-2" data-name="Слой 1">
    <g>
      <path class="cls-2" d="m0,460V0h459v460H0Zm321.4-199.9c2.56-1.12,5.36-2.17,8.01-3.52,22.94-11.73,37.97-30.44,47.02-54.15,1.59-4.17,3.79-5.81,8.04-6.72,7.25-1.55,14.31-4,21.4-6.23,2.66-.83,5.09-2.56,7.78-3.08,7.49-1.44,13.11-5.46,17.51-11.49,6.65-9.1,10-19.58,12.04-30.42,1.13-6.03,4.33-12.67-1.93-18.1-.27-.24-.16-.96-.18-1.45-.2-4.66-.49-9.31-.51-13.97,0-1.16.92-2.31,1.34-3.49.84-2.34,2.61-4.85,2.29-7.03-1.3-8.71-2.26-17.68-5.15-25.91-7.54-21.42-12.02-44.75-36.41-55.78-10.83-4.9-22.05-4.41-33.08-6.46-.3-.06-.65.12-.98.18-15.56,2.84-31.15,5.55-46.68,8.6-4.07.8-7.44.43-10.73-2.13-9.5-7.38-19.9-8.82-31.58-5.79-10.95,2.84-22.41,3.73-33.28,6.79-13.19,3.72-24.75,1.96-36.47-5.09-10.34-6.22-22.17-8.06-34.28-6.54-32.99,4.15-55.23,22.92-69.87,51.79-1.6,3.16-3.55,4.58-6.98,5.34-12.87,2.85-26.62,2.51-38.15,10.49-2.03,1.4-5.18,1.06-7.69,1.9-3.6,1.2-7.5,2.14-10.53,4.26-8.4,5.86-13.68,14.47-15.99,24.1-2.09,8.72-9.39,17.7-1.23,27.04-1.34,7.18,3.41,15.18-3.08,21.76-.93.94-.95,3.17-.79,4.74,2.45,24.39,8.79,47.56,23.25,67.73,3.97,5.53,9.22,10.54,14.82,14.42,9.63,6.68,20.16,11.64,32.54,7.81,8.64,2.93,17.28,1.04,25.67-.79,6.44-1.41,11.76-1.04,17.06,3.17,2.31,1.83,5.72,2.27,9.07,3.5v26.85c-3.87-.96-7.47-1.23-10.46-2.72-5.44-2.71-10.45-5.11-17-3.62-12.03,2.75-24.58,3.84-35.37,10.4-6.21,3.77-13.09,8.43-13.5,16.14-.41,7.76-2.23,13.97-6.39,20.68-5.06,8.16-11.48,13.36-20.2,15.94-5.72,1.7-11.71,2.6-17.63,3.46-8.64,1.25-13.02,6.93-15.2,14.55-2.16,7.54-.57,14.88,2.72,21.85,4.66,9.89,13.23,13.9,23.85,11.58,6.83-1.49,13.73-2.69,20.63-3.85,1.33-.22,2.95-.02,4.14.57,3.04,1.5,5.92,3.33,9.05,5.14-1.48,7.12-.99,14.35,3,20.95,2.45,4.06,5.52,7.48,10.96,7.45,6.21-.03,12.75-1.01,18.54.6,7.48,2.07,14.41,1.6,21.64.03,7.57-1.64,15.26-4.21,20.73,1.1,1.59,7.71,2.2,14.53,4.47,20.75,2.8,7.67,7.82,9.7,15.81,8.3,1.09-.19,2.25-.04,3.38.01,4.7.24,9.42.93,14.08.65,5.28-.32,10.49-1.74,15.77-2.23,4.2-.39,8.54.37,12.7-.22,6.75-.97,13.36-2.9,20.1-3.92,6.17-.94,9.71-4.07,10.27-10.25.28-3.17,1.8-4.48,4.88-5.15,21.31-4.68,42.74-8.96,63.81-14.6,9.17-2.45,16.6-1.14,24.55,3.07,3.26,1.73,7.68,2.45,11.37,1.97,8.9-1.15,17.69-3.22,26.5-5.06,1.56-.33,3.01-1.27,4.44-2.07,5.61-3.16,10.87-7.48,16.88-9.27,6.28-1.88,9.14-5.27,10.52-11.11.46-1.97,1.3-4.34,2.78-5.49,10.48-8.15,14.19-18.5,11.04-31.38-.14-.58.08-1.25.16-2.2,8.73-1.81,17.43-3.28,25.93-5.54,3.28-.87,6.92-2.89,8.96-5.5,7.63-9.78,5.37-20.38,1.09-30.75-3.14-7.62-12.4-14.16-22.49-11.24-6.85,1.98-14.02,2.84-21.06,4.16-4.97.94-5.55.06-6.15-4.92-.62-5.21-1.5-10.57-3.42-15.41-2.57-6.49-7.56-8.57-14.48-7.7-1.72.22-3.54-.26-5.31-.44-3.23-.32-6.57-1.33-9.68-.86-9.38,1.41-18.71,3.24-27.99,5.2-6.74,1.42-11.2-3.31-16.56-5.61-.61-.26-.81-1.72-1.03-2.66-1-4.18-1.95-8.37-3.05-13.11Z"/>
      <path class="cls-1" d="m321.4,260.1c1.09,4.74,2.04,8.93,3.05,13.11.23.94.42,2.39,1.03,2.66,5.36,2.29,9.82,7.03,16.56,5.61,9.29-1.96,18.61-3.79,27.99-5.2,3.11-.47,6.45.54,9.68.86,1.77.18,3.59.66,5.31.44,6.92-.87,11.91,1.21,14.48,7.7,1.92,4.84,2.8,10.2,3.42,15.41.59,4.98,1.18,5.86,6.15,4.92,7.04-1.33,14.21-2.18,21.06-4.16,10.09-2.92,19.34,3.62,22.49,11.24,4.28,10.37,6.54,20.96-1.09,30.75-2.04,2.61-5.68,4.63-8.96,5.5-8.49,2.26-17.2,3.73-25.93,5.54-.08.95-.3,1.62-.16,2.2,3.15,12.87-.56,23.22-11.04,31.38-1.48,1.15-2.31,3.52-2.78,5.49-1.38,5.83-4.25,9.23-10.52,11.11-6.01,1.8-11.26,6.11-16.88,9.27-1.42.8-2.88,1.75-4.44,2.07-8.8,1.84-17.59,3.91-26.5,5.06-3.68.48-8.1-.24-11.37-1.97-7.96-4.22-15.38-5.53-24.55-3.07-21.06,5.64-42.49,9.92-63.81,14.6-3.08.68-4.59,1.99-4.88,5.15-.55,6.19-4.1,9.32-10.27,10.25-6.74,1.03-13.35,2.95-20.1,3.92-4.16.6-8.49-.17-12.7.22-5.28.49-10.49,1.91-15.77,2.23-4.66.28-9.38-.41-14.08-.65-1.13-.06-2.29-.21-3.38-.01-7.99,1.4-13.01-.64-15.81-8.3-2.27-6.22-2.88-13.04-4.47-20.75-5.47-5.31-13.17-2.74-20.73-1.1-7.23,1.57-14.16,2.04-21.64-.03-5.79-1.6-12.33-.63-18.54-.6-5.45.03-8.51-3.39-10.96-7.45-3.99-6.6-4.48-13.83-3-20.95-3.13-1.81-6.01-3.64-9.05-5.14-1.2-.59-2.82-.79-4.14-.57-6.9,1.16-13.8,2.36-20.63,3.85-10.62,2.32-19.19-1.7-23.85-11.58-3.29-6.97-4.88-14.32-2.72-21.85,2.18-7.62,6.56-13.29,15.2-14.55,5.93-.86,11.91-1.76,17.63-3.46,8.72-2.59,15.14-7.78,20.2-15.94,4.16-6.71,5.98-12.91,6.39-20.68.41-7.71,7.29-12.37,13.5-16.14,10.8-6.56,23.34-7.65,35.37-10.4,6.55-1.5,11.57.9,17,3.62,2.99,1.49,6.6,1.77,10.46,2.72v-26.85c-3.35-1.23-6.77-1.67-9.07-3.5-5.3-4.21-10.62-4.58-17.06-3.17-8.39,1.83-17.02,3.72-25.67.79-12.38,3.83-22.9-1.13-32.54-7.81-5.6-3.89-10.85-8.89-14.82-14.42-14.45-20.17-20.8-43.34-23.25-67.73-.16-1.57-.14-3.79.79-4.74,6.48-6.58,1.73-14.58,3.08-21.76-8.17-9.34-.86-18.32,1.23-27.04,2.31-9.63,7.6-18.24,15.99-24.1,3.03-2.12,6.93-3.06,10.53-4.26,2.51-.84,5.67-.5,7.69-1.9,11.54-7.99,25.28-7.65,38.15-10.49,3.43-.76,5.38-2.18,6.98-5.34,14.64-28.86,36.88-47.64,69.87-51.79,12.11-1.52,23.93.32,34.28,6.54,11.72,7.05,23.28,8.81,36.47,5.09,10.87-3.06,22.33-3.95,33.28-6.79,11.68-3.03,22.08-1.59,31.58,5.79,3.29,2.56,6.66,2.93,10.73,2.13,15.52-3.05,31.11-5.76,46.68-8.6.33-.06.67-.24.98-.18,11.02,2.05,22.24,1.56,33.08,6.46,24.39,11.04,28.87,34.36,36.41,55.78,2.9,8.23,3.86,17.2,5.15,25.91.32,2.18-1.44,4.69-2.29,7.03-.42,1.18-1.35,2.33-1.34,3.49.02,4.66.31,9.31.51,13.97.02.5-.1,1.22.18,1.45,6.25,5.43,3.06,12.07,1.93,18.1-2.04,10.84-5.39,21.32-12.04,30.42-4.4,6.03-10.01,10.05-17.51,11.49-2.69.52-5.12,2.24-7.78,3.08-7.09,2.23-14.16,4.67-21.4,6.23-4.25.91-6.45,2.55-8.04,6.72-9.06,23.71-24.08,42.43-47.02,54.15-2.65,1.35-5.45,2.4-8.01,3.52Zm-69.35,113.85c-9.12,2.69-15.94,13.02-15.91,24.1.02,7.75,3.1,13.7,7.79,15.03-7.45-8.19-8.91-17.83-2.98-27.34,2.8-4.48,7.39-7.85,11.16-11.72h14.5c-3.53-2.77-8.53-3.14-14.55-.07ZM128.02,49.93c.89-4.92-3.66-4.98-6.25-6.56-.57-.34-2.44,1.46-3.72,2.28.08.67.16,1.33.24,2l9.73,2.27c-.39,3.22-2.17,3.26-4.5,1.94-2.28-1.29-4.54-2.62-7.08-4.09-.92,1.59-1.63,2.81-2.25,3.88,3.3,2.91,6.33,5.58,9.99,8.81,4.2-.83,6.51-4.54,10.1-18.06q-8.73-6.12-12-1.2c1.95,1.2,3.94,2.35,5.85,3.62,3.12,2.08,3.09,2.26-.12,5.12Zm-35.91,326.98c-8.67-1.79-16.68,2.51-20.52,10.37,7.77-.14,14.27-3.06,18.96-9.56.32-.45,1.08-.59,1.63-.87-2.24,3.36-4.47,6.73-6.97,10.49,1.11,1.4,2.43,3.08,3.63,4.59,1.46-3.35,2.04-6.88,4.09-8.92,4.01-3.98,4.54-8.48,4.31-13.59-.27-5.98.44-12.07-.5-17.92-1.4-8.71-3.89-17.24-5.93-25.95-4.5.91-7.6,1.54-11.82,2.39,14.37,11.46,16.21,26.63,15.64,42.51-.08,2.18-1.63,4.31-2.51,6.47Zm-27.1-170.94c-1.44-1.51-3.22-2.82-4.27-4.57-12.08-20.15-16.1-42.02-13.42-65.21,1.03-8.94,4.05-17.23,9.43-24.61-5.67,3.49-8.66,8.8-10.51,14.77-4.97,16.05-4.26,32.19-.28,48.28,3.43,13.87,8.16,27.22,19.25,37.03,3.29,2.91,7.61,4.65,11.46,6.92,0-.19,0-.38,0-.57-3.9-4.03-7.81-8.06-11.71-12.09,1.64,1.29,3.22,2.65,4.92,3.85,3,2.1,6.07,4.11,9.11,6.15-15.44-12.82-21.82-30.09-25.36-48.73-3.51-18.46-3.64-36.73,4.93-54.28-2.87,4.3-5.75,8.66-7.14,13.45-6.07,20.81-3.39,41.21,4.33,61.05,2.5,6.42,6.14,12.39,9.27,18.56ZM138.01,38.96c-2.14-1.94-4.13-4.1-6.52-5.67-.58-.38-2.44,1.17-4.7,2.35,4.46,1.91,6.89,5.75,11.29,3.25,2.95-.48,6.64.02,8.72-1.58,18.57-14.25,38.96-21.94,63.44-18.65-5.86-1.97-10.98-3.7-15.07-5.08-1.9,1.11-2.95,1.96-4.15,2.37-4.66,1.57-8.72-.1-12.78-2.33-1.92-1.05-4.24-1.36-6.39-2.01-.14.39-.27.78-.41,1.18,2.26,1.42,4.53,2.85,7.02,4.42-5.39,3.64-9.63,2-14.02-.66-1.88-1.14-4.36-1.29-6.57-1.89-.19.56-.38,1.12-.57,1.68,2.43,1.74,4.86,3.48,7.55,5.41-4.18,3.56-7.69,4.52-12.05,1.27-2.4-1.79-5.61-5.04-8.65.1,2.66,1.75,5.21,3.42,7.81,5.13-5.03,5.83-5.41,5.93-11.84,1.86-2.89-1.83-5.52-3.44-7.51,1.27,2.18,1.35,4.35,2.57,6.38,3.99,2.81,1.97,1.83,3.08-.99,3.59Zm126.04,297c.74,1.17,1.97,2.28,2.13,3.53,1.18,9.39,2.03,18.83,3.28,28.21.35,2.62,1.14,5.49,2.65,7.58,3.5,4.84,5.02,10.06,4.72,15.91-.11,2.06-.36,4.1-.56,6.34,13.88-2.75,10.77-.73,12.47-12.37.26-1.81.41-3.64.59-5.46,1.47-15.4-.04-30.57-3.79-45.52-.28-1.13-2.24-2.86-3.07-2.68-6.16,1.28-12.23,2.97-18.32,4.53-7.7,1.43-15.4,2.86-23.09,4.3.12.56.24,1.13.36,1.69,6.82-1.52,13.63-3.04,21.65-4.82,1.37,10.77,2.76,21.62,4.14,32.47.33-.04.66-.08.99-.12-1.38-11.2-2.75-22.4-4.13-33.6Zm-86.14,20.92c.83-.02,1.75.17,2.48-.11,5.2-1.98,8.13-.03,9.33,5.17.06.25.49.4.47.39,2.81-3.69,5.66-7.32,8.37-11.05.95-1.31,2.09-2.84,2.2-4.33.56-8.21.34-16.34-4.52-23.55-.67-1-1.09-2.16-1.63-3.25,13.08,5.06,24.37-2.38,37.47-3.3-1.6-1.3-2.17-1.83-2.8-2.28-5.55-3.9-11.6-3.31-17.73-1.95-9.59,2.13-18.57,1.31-27.51-3.49-18.03-9.67-36.43-18.66-54.61-28.04-3.82-1.97-7.45-3.2-11.86-1.97-9.94,2.77-19.97,5.21-30.4,7.89,4.2,6.28,8.53,8.1,14.86,5.93,5-1.71,10.5-1.87,15.6-3.35,6.58-1.9,12.31-.4,18.19,2.56,16.35,8.22,32.85,16.15,49.7,24.4-5.29,1.3-10.47,2.57-16.41,4.03,11.03,8.14,12.14,19.24,11.51,30.82-.1,1.89-1.7,3.69-2.61,5.53-1.29.52-2.58,1.05-3.88,1.57,9.64,22.13,9.59,44.1,3.78,66.27,9.72-1.35,12.95-3.41,13.94-13.35,1.61-16.19,3.12-32.57-3.84-48.22-1.46-3.29-2.44-6.12-6.96-4.78-.82.24-2.09-1.01-3.15-1.57Zm65.58-112.61c-.35-.99-.7-1.97-1.44-4.07,4.17,1.57,7.32,2.75,10.48,3.93-3.62-2.54-7.59-4.21-11.45-6.09-3.77-1.82-7.68-3.64-8.26-9.58,4.58,1.93,8.34,3.51,12.11,5.1-4.76-7.16-17.05-5.05-19.14-17.11,5.4,2.24,9.59,3.98,13.77,5.72l.68-1.09c-1.45-1.12-2.8-2.43-4.38-3.31-3.35-1.85-6.79-3.56-10.27-5.14-3.92-1.79-4.33-4.78-3.55-8.95,5.06,2.37,9.71,4.55,14.74,6.9-4.6-10.49-3.5-20.6-2.42-30.65.22-2.05,2.68-4.83,2.01-5.79-1.28-1.82-4.08-2.58-6.27-3.74-1.17-.63-2.39-1.17-3.58-1.77-6.01-3.08-6.45-4.83-2.55-11.75,5.14,2.47,10.33,4.96,15.97,7.67.76-2.28,1.37-4.08,2.05-6.1-4.5-2.38-8.52-4.74-12.74-6.66-4.1-1.87-2.9-4.5-1.64-7.38,1.36-3.11,3.31-3.09,5.99-1.58,4.01,2.25,8.17,4.23,12.52,6.45,1.09-2.26,1.92-3.98,2.87-5.96-4.34-2.38-8.2-4.65-12.19-6.65-2.57-1.29-4.37-2.54-2.23-5.61,1.67-2.39,2.68-5.63,6.8-3.23,4.15,2.41,8.53,4.42,13.16,6.79,1.26-1.81,2.34-3.38,3.59-5.18-5.39-3.07-10.37-5.92-15.33-8.75,3.9-7.59,5-7.96,11.49-4.36,2.18,1.21,4.56,2.15,6.55,3.62,4.06,2.99,6.13,1.03,8.11-2.88-4.91-2.84-9.61-5.55-14.28-8.25,3.25-6.41,5.49-7.22,10.99-4.2,2.63,1.44,5.31,2.83,7.75,4.55,3.5,2.48,6.07,1.59,8.58-1.81-4.7-2.92-9.25-5.74-14.14-8.78,3.94-4.23,7.3-5.87,11.83-2.62,2.69,1.94,5.84,3.24,8.56,5.14,2.93,2.05,5.11,1.53,7.49-1.53-4.21-2.76-8.28-5.42-12.87-8.43,4.13-2.72,7.51-4.28,11.54-1.66,2.79,1.81,5.56,3.71,8.54,5.17,1.84.9,4.04,1.06,6.08,1.55l.42-1.42c-3.37-2.4-6.73-4.8-10.96-7.81,11.82-4.11,17.28,6.39,25.92,7.81-2.74-2.14-5.49-4.28-8.23-6.42.32-.59.65-1.18.97-1.77,5.47,2.15,10.94,4.3,16.41,6.45-2.41-2.71-5.22-4.63-8.3-5.94-15.24-6.48-30.79-6.73-46.36-1.45-42.45,14.39-72.19,64.6-65.24,109.5,2.06,13.31,7.44,25.12,14.69,36.24-.11.65-.55,1.67-.3,1.89,4.94,4.23,9.97,8.37,14.97,12.53.16-.52.33-1.04.49-1.55Zm-120.05.81c15.63-3.19,31.42-5.8,46.82-9.85,6.87-1.8,12.98-6.5,19.41-9.92,2.32-1.24,2.27-2.88,1.61-5.41-2.42-9.31-5.27-18.64-6.35-28.14-3.25-28.75-.34-57.18,6.3-85.26,1.59-6.72,3.42-13.39,5.34-20.84-4.51.68-8.29,1.06-11.97,1.85-10.96,2.34-19.6-1.37-26.57-9.78-1.91-2.31-3.77-4.68-5.88-6.8-6.74-6.79-14.46-10.37-24.35-7.84-5.47,1.4-11.12,2.07-16.68,3.09-5.7,1.05-11.39,2.15-17.08,3.22,9.6,4.74,16.28,11.94,21.52,20.35,20.67,33.15,27.68,69.61,24.77,108.12-1.28,16.9-4.88,33.31-16.89,47.19Zm180.2-180.75c2.81,2.12,4.43,3.45,6.15,4.61,10.46,7.08,21.5,13.45,31.25,21.4,8.81,7.18,16.79,15.61,24.12,24.34,9.25,11.01,16.43,23.01,15.54,38.63-.74,12.94,2.51,26.02-.8,38.97-.05.21.29.51.49.84,9.47.09,16.49-4.34,21.62-12.04,6.02-9.03,9.2-19.15,10.97-29.76,2.76-16.58,2.39-33.19-.04-49.75-3.54-24.15-10.44-47.16-24.6-67.39-8.92-12.74-19.96-20.55-36.92-15.64-9.61,2.78-19.73,3.79-29.62,5.59l-1,1.35c9.93,2.41,11.83,9.51,13.37,17.88,1.81,9.82-.06,14.52-9.88,16.77-6.31,1.45-12.69,2.59-20.65,4.19Zm39.18,99.66c.43-.12.86-.24,1.29-.36-2.06-7.46-3.46-15.2-6.38-22.31-3.09-7.54-8.26-13.75-17.22-15.12-8.78-1.34-17.3-.57-25.35,3.36-18.92,9.22-29.28,24.98-34,44.95-3.25,13.75-1.67,26.85,6.07,38.84,6.64,10.27,16.93,14.3,28.91,11.74,26.31-5.6,46.57-32.13,46.67-61.11Zm-29.39,97.62c-.81.07-1.63.09-2.43.22-11.16,1.86-22.27,3.79-33.38-.63-1.93-.77-4.58-.04-6.83.37-25.47,4.7-51.07,5.3-76.51.73-12.02-2.16-23.69-6.38-35.4-10.04-6.93-2.16-12.4,1.29-12.28,8.33.08,4.83-.31,9.7.22,14.47.36,3.16,1.99,6.18,3.05,9.26.49-.14.98-.28,1.46-.42.13-2.67.26-5.34.45-9.28,4.1,3.46,9.7,2.98,9.93,9.23.31,8.51.39,8.62,8.6,11.21,29.01,9.15,58.68,9.04,88.58,6.48,5.23-.45,6.82-2.43,6.53-7.36-.1-1.74,1.01-4.79,2.21-5.16,4.52-1.4,9.3-1.95,14.4-2.9.29,3.92.52,7.13.83,11.35,6.12-2.27,11.74-3.82,16.87-6.37,16-7.94,15.6-11.81,13.7-29.51Zm-84.49-18.54c.26-.39.52-.77.78-1.16-14.15-14.44-21.22-26.13-23.93-42.76-6.34-38.83,4.99-72.25,33.14-99.44,20.22-19.53,44.39-29.01,73.01-23.86.95.17,1.92.26,4.09.56-4.26-2.93-7.48-4.98-10.53-7.26-9.45-7.09-20.14-11.01-31.8-12.08-27.25-2.51-49.79,7.9-69.24,26.09-2.03,1.9-3.58,4.93-4.13,7.69-3.77,18.75-7.97,37.45-10.55,56.38-3.15,23.09-2.39,46.22,4.74,68.72.77,2.44,1.81,5.45,3.71,6.78,10.06,7.03,20.44,13.61,30.71,20.34ZM139.45,43.07c8.27,4.99,15.39,8.9,22.08,13.45,6.55,4.46,13.42,5.32,20.96,3.87,45.47-8.76,90.95-17.45,136.41-26.22,2.18-.42,4.28-1.26,7.88-2.35-8.24-4.91-15.3-8.85-22.08-13.23-6.17-3.98-12.62-4.62-19.62-3.29-44.34,8.45-88.69,16.83-133.04,25.24-3.68.7-7.34,1.47-12.59,2.53Zm228,240.41c4.52.67,7.76,3.3,8.67,7.45,1.26,5.79,1.35,11.83,2.41,17.68.42,2.35,1.49,5.22,3.25,6.57,5.39,4.15,9.03,8.92,10.32,15.85.8,4.29,2.38,9.08,9.52,9.68-1.51-6.84-2.74-13.14-4.33-19.36-.79-3.1-1.36-6.71-6.17-6.42-.71.04-2.09-2.37-2.27-3.75-.43-3.46.21-7.12-.59-10.45-1.34-5.58-2.94-11.22-5.43-16.36-2.29-4.72-6.65-6.52-12.23-5.27-8.61,1.93-17.38,3.17-25.97,5.17-5.06,1.18-9.42.41-13.88-2.02-4.3-2.34-8.85-4.22-13.29-6.3-1.91,3.66-1.37,5.66,2.25,6.97,3.26,1.18,6.49,2.76,9.35,4.72,8.39,5.76,17.1,6.82,26.73,3.47,4.64-1.61,9.69-2.05,14.56-3.01.1.47.19.94.29,1.4-9.4,2.11-18.81,4.22-28.31,6.35.48,2.22.9,3.66,1.09,5.14,1.42,10.5,2.54,20.79-5.74,29.63-4.08,4.36-5.4,10.15-5.29,16.26.17,9.33.28,18.68-.12,28-.29,6.66,1.88,11.67,7.4,15.31,3.49,2.3,5,5.48,4.83,9.75-.24,5.9-.06,11.81-.06,18.11,8.72-1.72,17.05-3.29,25.34-5.03,4.19-.88,6-4.16,6.39-8,.49-4.96.52-9.97.65-14.96.14-5.58-1.18-6.21-6.42-4.67-2.42.71-5.71.62-7.92-.47-6.7-3.33-13.01-7.43-19.59-11.03-3.5-1.92-5-4.62-4.8-8.53.37-7.16.27-14.36,1.1-21.46.33-2.83,2-6.12,4.12-7.99,5.48-4.84,11.53-9.03,17.38-13.45,3.27-2.47,6.6-2.55,10.27-.62,5.99,3.14,12.13,6,18.74,9.24-.25-6-3.04-9.94-7.23-12.45-4.66-2.79-5.99-6.41-5.81-11.59.3-8.95-.31-17.8-9.2-23.56Zm-276.28-37.18c9.69.22,17.64-2.51,23.25-10.77,6.28-9.24,10.78-19.3,12.36-30.27,5.95-41.36-4.32-78.93-28.01-112.94-5.16-7.41-12.08-13.37-21.35-15.61-4.75-1.15-10.09-.07-13.24,2.7,1.74.68,3.58,1.11,5.1,2.05,2.79,1.73,5.72,3.48,7.81,5.89.44.51-2.44,3.91-3.92,6.17.42.59.82,1.3,1.36,1.89,8.01,8.82,15.26,18.28,18.86,29.72,4.13,13.12,7.4,26.53,10.79,39.87.9,3.54.64,7.23,5.77,7.76,1.11.11,2.64,2.85,2.78,4.47.41,4.97.33,9.98.27,14.97-.09,8.71-.14,8.71-8.34,10.46-1.37,5.98-2.3,12.11-4.22,17.91-4.13,12.46-9.86,23.72-24.6,26.53,11.64,2.49,17.46-5.92,23.71-13.51.32.37.63.73.95,1.1-3.04,3.78-6.09,7.57-9.33,11.6Zm145.04-65.52v24.23c4.21-.74,7.47-1.29,10.73-1.89,8.11-1.48,10.93-.1,13.76,7.62,5.78,15.76,15.33,27.15,32.98,29.7,3.83.55,5.77,3.04,5.77,6.94,0,4.45,0,8.91,0,14.22,5.13-1,9.79-1.98,14.49-2.8,3.91-.68,5.73-2.61,5.24-6.81-.38-3.29.09-6.67-.17-9.98-.29-3.68,1.31-5.71,4.47-7.45,17.35-9.53,29.29-24.07,34.26-42.93,2.63-9.98,6.34-15.65,16.87-15.91,1.13-.03,3.15-1.46,3.18-2.3.26-6.86.15-13.73.15-21.25-4.51,1.04-7.73,1.75-10.94,2.53-4.1,1.01-6.5-.3-7.86-4.54-5.46-16.98-16.26-28.47-34.37-31.73-4.63-.83-6.06-3.17-5.83-7.55.25-4.75.06-9.53.06-15.3-7.57,1.83-14.24,3.44-20.33,4.91v24.19c.7-.07,1.22-.05,1.68-.18,25.74-7.81,48.94,8.94,52.12,35.56,3.05,25.52-6.3,46.43-26.7,62.05-9.98,7.64-21.41,11.62-34.17,9.68-21.29-3.23-32.77-20.16-34.63-40.67-.38-4.22-.06-8.51-.06-12.61-6.89.76-13.45,1.48-20.68,2.28Zm-137.45-.06c-.47-2.58.03-7.48-2.18-10.01-2.65-3.05-3.65-6.01-4.37-9.58-1.01-5.05-1.99-10.14-3.52-15.04-3.68-11.82-8.58-23.08-16.99-32.45-4.56-5.08-7.11-4.95-10.66.98-1.95,3.25-3.7,6.75-4.78,10.36-4.97,16.61-3.6,33.23.8,49.71,3.29,12.32,7.74,24.21,17.14,33.29,3.06,2.96,7.4,4.59,11.16,6.83,2.11-3.98,4.42-7.88,6.26-11.98,1.07-2.38.57-6.42,2.19-7.41,5.58-3.4,3.66-8.71,4.94-14.68Zm312.63,2.46c6.96-.51,11.5-2.9,15.86-8.34,8.63-10.77,12.1-23.53,13.89-36.89.14-1.04-.11-2.9-.7-3.14-3.48-1.46-2.37-4.3-2.41-6.82-.11-5.82-.24-11.64-.28-17.46-.01-1.45-.21-3.79.52-4.2,4.67-2.6,3.07-6.58,2.46-10.17-1.07-6.23-2.17-12.48-3.82-18.57-4.81-17.81-11.52-34.77-23.72-49.01-1.45-1.69-3.41-3.06-5.38-4.14-2.54-1.39-5.5-2.05-7.98-3.52-3.75-2.22-7.43-4.05-10.99-3.16,5.45,7.44,11.69,14.43,16.22,22.4,14.11,24.83,20.23,52,21.02,80.33.61,21.84-1.46,43.29-14.68,62.67Zm-206.82,140.87c.38,1.57.75,2.66.91,3.77,1.57,10.86,3.85,21.61-5.64,30.74-4.97,4.78-6.08,11.46-5.62,18.53.62,9.46.91,18.99.49,28.45-.3,6.63,1.58,11.4,7.44,14.44,3.69,1.92,5.1,4.9,4.99,8.98-.16,6.09-.04,12.19-.04,18.45,6.63-1.38,13.94-2.85,21.23-4.44,6.55-1.43,7.97-2.99,8.62-9.62.61-6.26,1.05-12.54,1.59-19.21-3.12-1.95-6.16-4.79-10.83-2.3-1.17.62-3.36.07-4.75-.61-7.33-3.56-14.64-7.19-21.77-11.14-1.68-.93-3.71-3.14-3.76-4.81-.45-15.46-4.37-32.23,13.97-41.43,1.6-.8,3.01-2.13,4.25-3.46,5.65-6.03,11.59-5.86,18.33-1.7,4.49,2.77,9.49,4.69,14.26,6.99.25-.37.5-.74.75-1.1-1.86-2.06-3.45-4.49-5.64-6.11-4.3-3.18-5.79-7.1-5.87-12.41-.08-4.9-1.4-9.81-2.57-14.63-.28-1.15-2.32-2.87-3.27-2.7-8.97,1.55-17.88,3.46-27.06,5.32Zm36.3,14.06c.47.05.98.22,1.43.12,30.4-6.75,60.79-13.51,91.17-20.32,1.24-.28,2.64-.8,3.5-1.68,2.48-2.52,2.03-10.57-.38-14.78-2.37-4.15-5.82-3.57-9.58-2.73-26.18,5.8-52.37,11.53-78.55,17.3-3.68.81-7.34,1.69-10.69,2.47,1.09,6.87,2.09,13.21,3.1,19.62Zm-78.84-87.61c0,.48-.02.97-.02,1.45,35.39,13.45,71.78,13.47,108.63,7.59-.36-.73-.76-1.11-1.19-1.15-19.1-1.79-36.51-8.41-52.74-18.39-5.95-3.66-11.66-7.71-17.69-11.21-1.4-.82-3.97-.78-5.48-.05-4.78,2.29-9.13,5.55-14,7.56-3.99,1.64-6,3.44-6.09,8.1-.1,5.5-2.18,6.59-7.81,5.93-1.18-.14-2.4.1-3.6.17Zm115.33,39.99c-9.06-.3-9.45-.18-9.37,7.54.05,4.47-1.97,5.6-5.91,5.95-32.35,2.94-64.49,3.17-95.95-6.96,5.52,3.11,11.32,5.62,16.74,8.8,9.11,5.34,18.57,6.91,28.78,4.13,6.69-1.82,13.12-1.42,19.31,2.11,1.45.82,3.59.98,5.3.71,16.75-2.63,33.54-5.07,50.16-8.37,4.63-.92,9.06-4.09,12.93-7.07,2.72-2.09,4.83-2.96,7.36-.7,3.86,3.44,8.06,3.2,12.57,1.85,2.55-.77,5.18-1.22,7.77-1.88,6.8-1.72,10.84.51,12.92,7.19,2.55,8.17.09,15.17-6.45,16.03-8.14,1.06-7.97,8.1-10.06,13.07-1.8,4.27,4.25,3.47,5.85,5.9.14.21.1.54.22,1.24-2.15-.64-4.11-1.23-6.12-1.84,0,11.56.23,22.83-.07,34.1-.26,9.51,1.46,12.54,9.21,15.36-.68-4.18-1.92-8.94-2.12-13.73-.34-8.15.25-16.33-.05-24.49-.33-8.97,2.36-16.65,8.08-23.49,1.55-1.85,3.36-4.24,3.41-6.43.17-6.78-.18-13.6-.93-20.35-.21-1.92-2.07-4.29-3.83-5.28-6.23-3.51-12.71-6.6-19.21-9.6-1.15-.53-3.47-.45-4.21.34-7.94,8.37-18.35,11.85-28.95,14.91-4.8,1.39-6.75-.24-7.09-5.28-.08-1.15-.17-2.29-.29-3.76ZM63.66,80.77c0,6.78-.1,12.03.03,17.28.1,4.06-1.93,5.51-5.6,4.8-7.6-1.47-13.16,1.81-16.91,7.87-2.67,4.32-4.47,9.23-6.23,14.04-1.41,3.85-3.16,8.18,2.4,11.15-2.79-.6-5.57-1.2-8.88-1.92-.15,2.84-.25,5.28-.41,7.72-.43,6.59-.7,12.88,7.35,15.8,2.77,1.01,2.91,3.36-.44,4.9-.98.45-2.13,2.18-2,3.16,2.45,18.42,7.67,35.83,19.66,50.5,1.04,1.28,3.7,2.22,5.29,1.86,3.91-.87,4.81.76,4.78,4.08-.04,4.5.18,9,0,13.5-.17,4.28,1.96,6.19,6.3,7.07,0-3.88-.4-7.43.18-10.82.26-1.55,2.38-3.87,3.78-3.96,6.76-.42,10.1-4.73,13.96-10.82-10.2,4.89-17.51,1.53-24.05-4.79-7.63-7.36-12.28-16.56-15.56-26.44-6.7-20.17-9.23-40.61-2.3-61.27,4.35-12.97,11.02-17.25,24.36-16.23,1.95-6.82-2.9-15.47,6.54-20.92-4.21-2.25-7.55-4.05-12.25-6.56Zm252.19,245.34c.15.5.3,1,.44,1.49-1.67.44-3.33.94-5.02,1.3-6.02,1.3-12.01,2.76-18.09,3.74-3.99.64-5.22,2.05-4.24,6.24,3.09,13.24,3.71,26.69,2.48,40.23-.45,4.91-.83,9.82-1.32,15.53,10.94-2.47,21.19-4.79,32.33-7.31-5.5-5.5-5.54-11.26-4.88-17.72.82-8.07.72-16.33-.01-24.42-.68-7.5-2.55-14.85,2.39-22.19-10.67,2.42-21.33,4.85-32,7.27.11.51.23,1.02.34,1.53,9.19-1.9,18.37-3.8,27.56-5.7Zm-75.41,102.07c2.29-.38,4.24-.61,6.15-1.03,9.42-2.1,18.82-4.29,28.24-6.38,19.17-4.25,38.38-8.35,57.5-12.81,2.18-.51,5.08-2.52,5.66-4.44,2.64-8.64-5-16.6-13.76-14.65-14.95,3.32-29.83,6.9-44.79,10.18-3.07.67-4.8,2.11-6.24,4.9-5.41,10.5-15.84,15.83-25.85,13.59-7.31-1.64-7.52-1.47-7.38,6.32.02,1.28.27,2.56.47,4.32Zm-138.18-53.64c15.62-1.83,13.46-.67,13.21-12.58-.22-10.43-1.64-20.87-3.14-31.22-.78-5.36.63-8.65,5.56-10.72,2.76-1.15,5.55-2.41,7.96-4.13,1.4-.99,3.1-3.13,2.92-4.52-.84-6.21-2.19-12.37-3.66-18.47-.24-.98-2.2-2.39-3.1-2.22-8.75,1.68-17.45,3.65-25.29,5.34.86,7.53,1.79,14.4,2.32,21.3.14,1.83-.39,4.4-1.62,5.5-2.49,2.22-1.91,4.34-.93,6.67,4.82,11.44,6.06,23.44,5.77,35.71-.07,2.97-.01,5.94-.01,9.33Zm-30.21-302c-.06.66-.12,1.32-.18,1.98,10.76-.49,18.36,5.41,24.97,12.7,13.15,14.52,20.04,32.34,26.38,50.52,8.31,23.83,7.07,48.44,6.63,72.99-.07,4.04-1.44,8.28-3.11,12.02-3.49,7.82-7.59,15.38-10.97,22.11,8.9-5.96,13.45-16.21,15.87-27.18,9.81-44.49,2.54-86.42-21.01-125.26-4.08-6.74-10.87-11.96-16.91-17.32-2.41-2.14-6.18-2.77-9.33-4.08,24.66,15.04,32.75,39.76,40.42,64.7-1.17-1.14-1.64-2.65-2.27-4.1-4.61-10.68-8.72-21.62-14.04-31.94-5.31-10.3-12.5-19.48-23.51-24.35-3.96-1.75-8.62-1.9-12.96-2.79Zm154.29-13.19c-13.79,2.67-28.47,5.49-43.15,8.35-9.04,1.76-17.42.61-25.29-4.64-6.9-4.6-14.19-8.59-21.78-13.14-.28,3.38-2.86,7.76,1.26,8.44,11.68,1.94,18.68,9.46,25.09,18.22,7.54,10.29,25.57,12.99,35.74,5.15,9.68-7.46,19.14-15.21,28.13-22.38Zm150.05,124.23c-8.69-.23-8.96.21-11.44,7.83-6.33,19.45-17.14,35.56-35.25,46.06-1.15.67-2.58,1.98-2.7,3.11-.36,3.39-.13,6.84-.13,10.48,25.58-9.2,48.57-43.82,49.52-67.49Zm-197.08,132.15c-18.02-8.84-34.9-17.12-51.88-25.44,1.27,7.72,2.37,14.7,3.61,21.67.15.87.79,1.95,1.52,2.36,6.35,3.6,12.73,7.16,19.22,10.5.93.48,2.58-.03,3.75-.47,5.67-2.13,11.27-4.44,16.94-6.59,1.8-.69,3.71-1.11,6.85-2.02Zm117.04-59.2c2.23-9.04,1.59-10.27-6.79-12.98-.95-.31-1.88-.65-2.81-1-14.35-5.48-23.54-15.79-28.08-30.31-1.03-3.28-2.36-4.93-5.98-3.4-1.62.68-3.44.9-5.13,1.32,5.31,31.05,31.85,47.52,48.8,46.37Zm30.73-151.01c-1.74,9.8-1.52,10.19,6.95,12.99.47.16.94.33,1.41.51,14.02,5.25,23.19,15.35,28.39,29.09,1.31,3.47,2.98,4.44,6.26,3.38,1.98-.64,3.96-1.27,5.86-1.87-4.46-23.88-25.77-43.02-48.87-44.1Zm-53.34-55.34c8.91,3.54,18.64,7.44,28.4,11.26.89.35,2,.48,2.92.31,7.01-1.35,14.1-2.45,20.96-4.34,6.11-1.68,7.76-5.93,5.64-11.96-.76-2.16-1.41-4.35-2.01-6.23-19.22,3.77-38.2,7.49-55.92,10.97Zm-135.42-5.55c-.56.14-1.12.28-1.67.42.71,1.42,1.05,3.42,2.2,4.16,6.99,4.52,14.21,8.67,21.25,13.12,6.23,3.93,12.88,5.31,20.07,3.88,23.65-4.72,47.27-9.65,70.95-14.22,23.69-4.57,47.44-8.8,71.16-13.23,1.94-.36,3.9-.93,5.66-1.8.67-.33.79-1.77,1.16-2.7-.96-.18-2-.69-2.87-.48-2.73.64-5.35,1.78-8.09,2.32-15.02,2.97-30.06,5.83-45.09,8.72-30.56,5.88-61.09,11.95-91.72,17.45-4.97.89-11.04.63-15.47-1.48-9.56-4.56-18.39-10.66-27.52-16.14Zm-15.1,325.5c7.4-.37,14.57-5.83,16.91-12.56.97-2.77,2.76-5.25,4.01-7.94.65-1.4,1.33-2.96,1.33-4.45,0-3.72-1.61-6.12-5.44-7.71-6.93-2.88-13.52-6.56-20.17-9.87,1.15,14.54,2.24,28.37,3.36,42.54ZM374.74,15.44c12.19,7.56,17.59,12.97,24.72,26.06,15.01,27.56,21.18,57.26,20.95,88.44-.11,15.3-2.37,30.24-9,44.18-2.19,4.61-5.33,8.77-8.03,13.14.3.29.61.58.91.87,1.79-2.18,3.62-4.32,5.35-6.54,6.94-8.92,10.35-19.35,12.33-30.24,5.26-28.87,1.88-57.09-7.31-84.7-4.92-14.76-11.22-28.93-22-40.52-4.88-5.25-10.41-9.74-17.91-10.7Zm-126.43,160.96c7.78.22,8.41-.11,10.27-6.63,5.3-18.57,15.9-33.45,32.25-43.55,5.91-3.65,6.99-7.58,5.67-13.41-19.86,5.39-46.81,40.81-48.18,63.6Zm47.15-73.04c-29.08,11.2-51.42,44.01-56.37,73.98,4.36,1.68,6.42.37,7.6-4.37,6.7-26.88,21.68-47.7,46.28-60.97,4.49-2.42,4.61-4.88,2.49-8.64Zm-21.52,286.65c-.15-4.72-2.32-9.98-7.94-13.09-5.93-3.28-11.8-1.98-16.85,1.88-7.77,5.93-11.19,13.89-9.3,23.71,1.39,7.22,6.85,11.53,14.18,11.43,10.41-.14,19.9-10.83,19.91-23.93ZM31.19,131.36c1.52-5.04,2.71-10.22,4.65-15.1,2.43-6.13,5.95-12.46,12.57-13.96,7.11-1.61,7.34-5.59,6.72-10.99-.11-.98-.1-2-.03-2.99.17-2.71-1.28-3.44-3.7-3.26-6.62.49-11.49,3.88-15.35,9.04-6.26,8.36-8.73,18.17-10.7,28.15-1.2,6.07-.65,6.78,5.85,9.12Zm64.83,67.08c-2.03,6.13-3.61,12.25-6.09,17.99-2.69,6.24-6.88,11.66-14,13.11-3.68.75-4.58,2.42-4.28,5.68.17,1.81.18,3.66.04,5.48-.29,3.77,1.68,4.57,4.91,4.08,6.53-.99,11.22-4.76,14.91-9.92,5.74-8.02,8.03-17.34,10.24-26.77,1.27-5.45-.03-8.58-5.73-9.66Zm7.24-28.71c-4.14-26.95-10.99-51.99-30.39-72.13-.21,4.89-1.2,10.95,1.37,14.12,11.88,14.63,17.44,31.65,20.75,49.61.86,4.67,2.64,7.21,8.27,8.4Zm-49.02,65.14c.98-8.43.16-14.42-4.94-20.53-11.41-13.67-15.53-30.67-18.24-47.89-.63-4-2.47-5.8-6.74-6.85,2.95,27.8,10.71,53.13,29.91,75.27ZM310.7,77.67c-8.33-2.85-24.49-2.06-37.61,2.78-47.88,17.65-77.33,73.79-64.51,123.38,2.25,8.69,5.72,17,11.4,24.08-3.07-7.71-7.04-15.15-9.02-23.09-7.84-31.41-.37-60.1,17.57-86.26,13.85-20.21,32.38-34.52,56.86-39.28,8.99-1.75,18.41-1.23,25.31-1.61Zm-130.44,371.82c4.97-.85,10.82-1.74,16.6-2.93,1.05-.22,2.56-1.59,2.66-2.55.58-6.06,1.73-12.28.82-18.17-.51-3.25-4.65-5.94-8.01-9.9-1.48,7.52-5.92,10.07-10.81,10.33-.44,8.11-.84,15.58-1.25,23.21Zm201.99-78.71c-.06,13.01,9.87,19.68,19.85,14.52,7.58-3.92,12.72-13.54,11.77-22.02-1.16-10.34-10.4-15.45-19.69-10.69-7.8,4-11.31,10.86-11.93,18.19Zm-154.16,38.25c-16.35-10.9-21.09-21.39-15.31-34.13,3.15-6.96,7.75-13,15.57-15.26,7.42-2.15,14.69-.76,22.42,2.45-7.25-7.92-16.42-10.95-24.38-7.51-16.06,6.96-24.16,24.06-19.94,39.28,2.38,8.6,12.5,15.84,21.64,15.16Zm162.67-72.74c-6.34-7.29-15.68-9.9-24.12-6.75-14.18,5.3-23.45,24.39-18.82,38.74,2.78,8.63,11.91,15.06,19.81,13.94-16.2-12.97-19.52-22.13-12.81-35.34,6.5-12.81,16.44-15.74,35.94-10.59Zm-229.5,71.84c16.66-1.87,13.22-.49,13.64-13.35.08-2.3-.07-4.67-.52-6.92-2.38-11.72.21-10.01-12.47-7.58-.98.19-2.44,1.92-2.39,2.87.41,8.23,1.1,16.44,1.74,24.98ZM294.63,60.42c.16-.55.32-1.11.48-1.66-7.51-1.85-14.92-4.52-22.53-5.4-29.28-3.36-52.22,9.68-72.39,29.22-.88.86-1.48,2.18-1.82,3.4-1.53,5.62-2.89,11.28-4.35,16.91-6.62,25.48-9.59,51.38-8.45,77.66.39,8.94,2.04,17.82,3.11,26.73.43-.06.85-.12,1.28-.18-.2-1.11-.48-2.22-.58-3.34-.98-11.58-2.64-23.16-2.75-34.75-.24-25.99,5.1-51.27,11.15-76.41,1.29-5.38,3.68-9.75,7.99-13.36,26.31-22.04,55.22-31.43,88.86-18.82ZM91.33,346.25c-4.74.81-7.9,1.1-10.89,1.98-1.19.35-2.89,2.03-2.85,3.05.28,8.1.92,16.18,1.48,24.77,4.23-.74,7.7-1.14,11.02-2.05,1.07-.29,2.54-1.96,2.51-2.96-.23-8.06-.78-16.1-1.27-24.79Zm204.98-86.67c-3.48-.77-6.53-1.25-9.45-2.13-21.11-6.36-33.95-20.79-39.99-41.6-1.19-4.09-2.69-7.02-7.88-6.15,4.2,20.49,14.49,36.61,33.41,46.29,9.81,5.02,19.93,6.33,23.91,3.59ZM159.39,36.23c20.43-3.89,40.85-7.79,62.27-11.87-14.53-7.32-48.13-2.31-62.27,11.87Zm1.86,323.64c2.56,2.9,4.49,5.17,6.52,7.35,8.66,9.36,8.71,21.06,9.27,32.77.42,8.66-4.88,13.71-10.37,18.89-.2.19-.2.59-.4,1.24,1.77,1.86,3.64,3.84,6.67,7.02,2.28-4.78,5.2-8.4,5.66-12.31,2.11-18.1,2.78-36.17-5.53-53.3-1.45-2.99-3.05-4.04-6.16-2.98-1.53.52-3.17.75-5.66,1.32Zm104.27,9.35c-1.35-9.68-2.51-18.46-3.91-27.19-.12-.75-1.97-1.91-2.81-1.75-5.44,1.02-10.82,2.34-15.81,3.48,3.23,4.63,7.72,8.55,8.86,13.27,1.75,7.28,6.46,9.6,13.67,12.2Zm26.65-141.65c17.18,1.88,37.32-10.78,47.2-30.21,9.57-18.83,11.97-37.94.9-57.05,15.8,38.98-12.31,83.99-48.1,87.26Zm108.31,92.21c.98,6.88,2.03,12.9,2.64,18.96.58,5.79,4.78,8.58,11.77,6.28-1.25-7.91-2.41-16.04-3.98-24.09-.21-1.07-2.46-2.39-3.8-2.43-2.21-.07-4.44.81-6.64,1.28Zm-310.11,24.48c-4.88-5.99-8.79-10.85-12.78-15.65-.48-.57-1.45-1.2-2.08-1.1-3.94.68-7.84,1.56-12.79,2.58,4.59,5.57,8.4,10.32,12.41,14.9.73.83,2.31,1.46,3.4,1.34,3.4-.37,6.76-1.15,11.84-2.09Zm30.71-18.19c8.22,4.07,15.73,7.79,22.62,11.2,2.26-3.94,4.28-7.44,6.54-11.37-4.5-2.16-9.23-4.5-14.02-6.67-.78-.35-2.04-.32-2.8.07-3.93,2.03-7.76,4.23-12.33,6.77Zm92.14-116.35c.54-.08,1.08-.16,1.62-.24-.08-.63-.07-1.28-.25-1.88-6.68-23.14-4.03-45.67,5.47-67.33,11.18-25.52,28.88-44.98,55.43-55.26,11.15-4.31,22.75-5.76,34.68-4.43-13.38-2.99-26.26-.76-38.48,4.61-38.05,16.73-63.71,58.16-61.78,99.76.38,8.29,2.16,16.51,3.3,24.77Zm-42.07,166.6c-7.22-15.31-13.26-18.59-26.05-14.02,4.35,5.27,8.48,10.39,12.79,15.35.58.66,2.14.85,3.16.69,3.24-.5,6.43-1.26,10.1-2.02ZM324.83,97.81c.62,3.1,1.38,5.33,5.29,5.93,21.55,3.32,36.05,15.74,44.69,35.44.57,1.3,1.15,2.6,1.72,3.9-7.46-28.17-28.36-44.06-51.7-45.27Zm20.78,47.57c6.47,17.85,4.31,35.13-4.11,51.68-8.53,16.78-21.88,28-40.48,32.55,34.42-2.25,62.38-49.35,44.58-84.23Zm-202.34,271.26c2.66,3.69,5.55,3.89,8.37.86,1.99-2.15,4.42-4.54,5.07-7.2,3.84-15.85,1.13-30.39-10.39-42.5-4.64-4.87-6.85-4.42-11.74,1.44,1.1.22,2.05.68,2.91.55,5.62-.86,9.16,2.16,11.99,6.38,4.48,6.69,6.58,14.15,6.24,22.17-.31,7.26-1.75,14-10.12,16.44-.84.25-1.48,1.17-2.32,1.87Zm-90.72-78.84c14.38-.81,17.87,9.59,20.01,19.99,2.19,10.64,2.78,21.64-10.95,26.21,2.75,3.93,5.46,4.75,7.89,1.16,2.38-3.51,5.32-7.27,5.91-11.24,2.07-13.72-.57-26.53-10.13-37.28-4.64-5.22-7.69-5.06-12.74,1.15Zm57.98,67.7c-.4-7.39-2.09-14.25-7.09-19.83-3.76-4.2-7.83-3.4-10.11,1.66-3.4,7.56-.27,22.76,5.86,28.42,4.11,3.8,8.05,2.89,9.87-2.5.83-2.47,1.01-5.16,1.48-7.75Zm-82.34-31.87c.45-.17.9-.34,1.35-.51-2.27-5.95-4.18-12.08-6.99-17.76-.96-1.94-4.34-3.98-6.31-3.72-1.85.24-4,3.22-4.81,5.43-2.62,7.14-.86,14.15,2,20.85,1.66,3.88,4.04,8.21,8.84,7.51,5.37-.78,5.39-5.98,5.84-10.3.05-.5.05-1,.08-1.5Zm82.69-175.46c0-7.66.09-14.43-.1-21.18-.03-.92-1.29-2.27-2.26-2.61-2.27-.78-4.72-1.06-7.21-1.57-.33,6.15-.72,11.93-.88,17.72-.02.92.77,2.23,1.58,2.75,2.5,1.6,5.2,2.9,8.87,4.89Zm299.1-26.09c17.33-30.9,7.36-102.99-14.9-133.61,21.32,42.66,29.4,87.13,14.9,133.61Zm-243.2,66.23c-5.72,1.16-11.53,2.29-17.33,3.54-6.96,1.5-6.95,1.54-5.49,9.38,6.14-1.16,12.28-2.34,18.43-3.48,5.97-1.11,6.79-2.68,4.39-9.43Zm-79.55,167.24c.19-.05.39-.09.58-.14-1.01-4.14-1.34-8.64-3.28-12.28-1.15-2.17-4.78-4.05-7.38-4.16-3.58-.15-6.15,2.79-6.04,6.59.13,4.57.33,9.31,1.67,13.61,1.29,4.15,3.73,9.07,9.13,8.23,5.84-.92,5.17-6.4,5.36-10.84.01-.33-.03-.66-.04-.99Zm77.2-58.66c-1.65-4.34-3.25-9.66-5.75-14.51-.89-1.72-4.58-3.65-5.96-3.06-2.22.94-4.66,3.69-5.13,6.04-1.48,7.36.44,14.24,5.51,19.91,3.18,3.55,6.48,3.15,8.82-.98,1.03-1.81,1.39-3.99,2.52-7.4Zm-78.28-32.55c-.41-6.13-.62-11.94-5.78-16.07-4.28-3.42-8.46-2.88-9.32,2.42-.85,5.27-.17,11.12,1.26,16.33,1.06,3.87,3.81,8.58,9.06,7.58,5.74-1.09,4.55-6.4,4.79-10.27Zm61.15,116.44c-.43.2-.86.4-1.28.6,2.34,4.96,4.42,10.07,7.19,14.79.85,1.45,4.09,2.94,5.34,2.39,1.93-.85,4.23-3.37,4.36-5.32.32-4.86.01-9.91-1.02-14.67-.84-3.86-2.91-7.58-8.24-6.63-4.84.86-6.29,2.81-6.34,8.85Zm215.14-248.08c-5.32,23.33-17.31,41.37-38.16,53.86,16.41-1.64,44.72-41.38,38.16-53.86ZM98.96,380.16c12.05,5.83,18.1,28.87,9.02,40.18,2.21-.92,4.8-2.06,5.61-3.97,4.58-10.78,2.74-21.13-3.39-30.77-2.2-3.46-5.06-6.48-11.24-5.44Zm279.85,7.37v19c6.26-.13,8.32-2.38,9.25-9.85.71-5.7.01-6.45-9.25-9.16Zm-214.01-53.1c.43,4.79.56,8.75,1.27,12.61.21,1.12,2.13,2.73,3.21,2.69,2.13-.07,6.08-1.27,6.04-1.78-.32-4.54-1.01-9.14-2.46-13.42-.26-.75-4.61-.11-8.06-.11Zm160.3,52.01c-5.52-5.91-3.28-12.82-3.22-19.5.07-8.29.02-16.61-.62-24.87-.42-5.43-.82-10.54,2.46-15.3.73-1.06.83-2.55,1.22-3.85-5.11,4.37-6.97,9.6-6.59,16.19.67,11.72.83,23.49.56,35.22-.12,5.38,1.89,9.03,6.2,12.12Zm.16,25.74c4.68,2.23,8.39,3.98,12.1,5.76,3.28,1.57,5.03-.19,5.17-3.06.28-5.81.14-11.64-.11-17.46-.06-1.39-1.22-2.73-1.88-4.09q.45,14.54-15.28,18.85Zm-210.49-85.02c1.16,14.99,2.29,29.64,3.43,44.35,4.79-5.03,2.24-39.63-3.43-44.35Zm-34.22-33.5c2.47,4.4,5.74,8.43,7.05,13.01,1.35,4.72.79,9.99,1.09,15.26,5.24-1.91,6.13-5.33,4.55-14.34-1.47-8.35-6.54-13.86-12.69-13.94Zm67.86,117.74c7.63-8.26,6-17.62,3.13-26.99-2.27-7.41-6.72-11.93-11.46-12.28,9.22,11.73,12.93,24.56,8.34,39.27Zm-89.72-71.05c9.18,11.74,11.48,24.65,7.59,39,5.43-4.42,6.06-10.53,5.26-16.73-1.18-9.09-3.34-17.88-12.85-22.27Zm106.65,86.76c.29,4.47.33,8.56.97,12.55.17,1.07,2.3,2.74,3.3,2.59,2.18-.33,5.54-1.17,6.07-2.65,2.5-6.98-1.47-12.11-10.34-12.49Zm-140-39.51c5.39-.16,8.13-5.64,7.77-15.55-.49-13.46-6.71-23.72-14.25-23.47,12.01,8.4,14.55,30.03,6.48,39.02Zm363.19-100.97c1.36,5.89,2.39,10.35,3.63,15.73,2.71-1.03,7.25-2.05,7.22-2.86-.19-4.15-1.02-8.51-2.83-12.21-.56-1.15-4.88-.47-8.02-.67Zm-187.6,78.39c4.85,2.23,18.11-6.54,24.93-16.77-9.92,2.59-16.48,10.44-24.93,16.77Zm167.15-41.23c-3.91-1.85-18.66,7.43-24.61,15.15,3.4,2.3,15.34-4.98,24.61-15.15Zm-26.12,47.4c.67-.17,1.35-.33,2.02-.5.25-8.56.59-17.12.65-25.69,0-1.13-1.41-2.28-2.16-3.42-.43.25-.86.51-1.28.76-.26,4.12-.59,8.24-.77,12.36-.17,3.97-.36,7.96-.18,11.93.07,1.54,1.12,3.04,1.72,4.56Zm47.39,17.07c-9.9-5.73-11.12-17.49-6.71-25.34,2.63-4.68,6.85-8.9,11.27-12.03,4.7-3.34,10.5-2.6,15.85.04-5.24-4.56-11.69-5.02-18.03-1.63-8.34,4.45-13.54,14.58-12.42,24.84.71,6.51,3.04,12.15,10.04,14.12Zm-189.1-20.4c-2.65,7.97-1.67,27.35,1.49,29.38,2.75-7.76,1.76-27.42-1.49-29.38Zm-78.57,6.42c11.5,12.57,13.94,26.42,9.7,42.1,9.04-8.88,2.5-37.53-9.7-42.1Zm76.7-51.49c.36.86.76,1.7,1.08,2.57,4.12,11.32,6.65,22.34-3.51,32.26-2.16,2.11-2.96,5.6-4.39,8.45,4.28-4.84,8.06-9.78,11.62-14.87.89-1.27,1.48-3.01,1.54-4.56.18-4.31.4-8.68-.13-12.94-.53-4.25-.59-9.07-6.2-10.92Zm234.61-16.78c2.28,5.56,6.03,11.94,7.4,18.8,1.35,6.79.3,14.06.3,20.1,7.44-8.95,1.99-35.26-7.69-38.9Zm-300.25,68.28c2.33,5.53,6.13,11.79,7.47,18.54,1.36,6.84.3,14.17.3,20.64,7.49-9.07,2.4-33.1-7.77-39.18Zm2.66,40.97c9.45-6.94,1.84-40.2-9.11-41.03,10.28,10.74,13.21,23.93,9.11,41.03Zm37.28-6.4c-8.76-.52-14.68,3.1-18.97,10.35,8.45.25,14.76-2.64,18.97-10.35Zm-49.45,8.66c8.88-9.82,2.53-38.17-8.76-40.69,10.16,11.85,13.43,25.33,8.76,40.69Zm304.04-111.31c9.94,12.23,12.24,25.46,8.28,41.14,8.01-12.48,3.24-35.14-8.28-41.14Zm-385.89,37.93c2.35,5.4,6.24,11.57,7.6,18.26,1.39,6.84.31,14.18.31,20.83,7.67-9.34,2.06-34.7-7.91-39.09Zm86.04,72.49c8.75-10.85,2.69-36.45-9.19-41,10.35,11.82,13.58,25.28,9.19,41Zm295.39-110.11c9.95,12.26,12.88,25.62,8.63,41.33,8.39-11.54,3.25-35.14-8.63-41.33Zm-310.96,71.58c2.5,5.61,6.55,11.95,8.04,18.84,1.46,6.8.32,14.16.32,20.27,7.65-9,2.4-33.18-8.36-39.11Zm-66.73,6.06c5.55-9.17,3.59-18.57.42-27.89-2.35-6.93-5.89-10.89-9.22-11.26,9.47,11.52,12.1,24.62,8.8,39.15Zm-14.2-39.73c10.86,12.8,13.59,26.17,9.12,41.88,8.43-11.16,3.4-34.99-9.12-41.88Zm25.49,38.83c8.35-12.41,2.38-37.55-8.74-41.44,10.27,11.76,12.83,25.21,8.74,41.44Zm187.77-225.8c-.23-3.17.39-6.27-.66-7.02-3.56-2.53-7.71-4.22-11.97-6.41-.81,2.22-1.4,3.84-2.06,5.65,4.64,2.46,8.86,4.69,14.7,7.78Zm199.42,188.02c8.5-11.17,2.84-37.2-8.23-40.88,9.92,11.88,12.65,25.18,8.23,40.88Zm-29.05-37.11c11.18,12.63,12.54,27.08,8.69,40.71,8.7-9.46,2.85-36.89-8.69-40.71Zm4.06-1.01c10.28,12.32,12.98,25.89,8.68,41.09,8.49-10.05,3.17-35.81-8.68-41.09Zm-168.16-165.78c1.04-1.68,1.95-3.15,3.12-5.04-3.42-1.87-6.51-3.43-9.46-5.21-3.93-2.37-5.71-.66-6.81,3.63,4.25,2.14,8.5,4.28,13.15,6.62Zm-114.9,72.45c5.73-26.28,4.25-52.45-2.93-78.39,6,25.88,7.99,51.91,2.93,78.39Zm220.28,153.18c.76-15.99,1.63-17.82,14.27-30.74-10.93.61-20.26,20-14.27,30.74Zm-302.61,15.57c5.4-9.68,3.63-19.6-.04-29.38-2.5-6.64-5.69-9.77-9.03-10.16,10.04,11.49,12.07,24.84,9.07,39.54Zm47.38-135.14c11.18,3.09,24.11-16.06,27-35.73-5.91,14.12-9.55,29.81-27,35.73Zm-72.49,98.64c9.31,12.26,12.52,25.27,7.9,40.16,8.57-6.99,2.93-36.06-7.9-40.16ZM61.91,82.1c-.82-.62-1.64-1.23-2.46-1.85-.68,1.49-1.86,2.95-1.96,4.48-.29,4.8-.27,9.63-.1,14.44.02.58,1.93,1.75,2.43,1.51.91-.43,1.97-1.69,2-2.64.19-5.31.09-10.63.09-15.94Zm-9.72,259.11c9.49,11.9,12.28,24.71,8.89,39.38,7.62-9.96,2.45-33.12-8.89-39.38ZM247.2,121.02c2.78,1.57,5.82,2.91,8.42,4.83,3.59,2.65,5.87,1.94,7.63-1.91-12.97-8.09-13.38-8.79-16.05-2.92Zm171.51,229.8c9.16-10.98,2.93-38.97-8.29-41.12,10.31,10.59,13.2,24.13,8.29,41.12Zm-192.32-190.74c-2.07,5.94,2.55,10.11,12.96,11.36-.58-2.14-.49-4.73-1.63-5.48-3.51-2.33-7.49-3.95-11.33-5.87Zm170.08,184.98c-17.17,3.23-27.03,24.47-17.88,35.97-3.04-18.72,1.54-28.42,17.88-35.97Zm-252.01,66.51c6.88-11.31,1.1-33.61-9.95-39.18,10.31,11.27,12.43,24.18,9.95,39.18ZM60.5,219.88q-4.23.92-4.02,8.77.24,8.92,4.02,9.54v-18.32Zm335.75,92.63c3.3,6.37,3.47,6.41,12.88,2.76-2.71-2.91-5.2-5.58-7.83-8.4-2,2.24-3.53,3.94-5.06,5.64Zm-137.11-203.77c9.86,7.64,11.8,8.13,15.44,4.12-8.36-7.09-11.54-8-15.44-4.12Zm-29.02,252.62c-12.24,3.47-20.48,18.51-16.2,29.37.35-12.61,5.27-22.37,16.2-29.37Zm-59-30.29c-5.43-6.16-7.65-6.79-14.14-4.05,3.79,4.34,7.74,7.75,14.14,4.05Zm-102.58-14.67c-2.42,4.03-4.35,7.25-6.27,10.46.4.28.81.56,1.21.84,3.56-.86,7.11-1.72,11.05-2.67-1.98-2.85-3.48-5.01-5.99-8.63Zm27.17,5.24c4.81-9.32-.73-27.47-9.38-31.41-1.71-.78-3.88-.52-5.85-.74,16.48,5.56,15.52,18.84,15.22,32.15Zm353.18,20.06c5.38-10.44,1.3-29.39-7.92-36.27,8.43,11.24,10.05,23.37,7.92,36.27Zm-126.07-103.72c-.5.2-1,.4-1.5.6v18.2c5.68-4.55,2.78-10.01,3.37-14.59.17-1.3-1.21-2.8-1.87-4.21Zm-158.51,84.56c13.02,8.78,17.44,23.11,10.16,32.89,4.6-1.25,5.62-4.77,4.19-14.46-1.69-11.53-7.19-18.58-14.35-18.43Zm71.08,39.74c-11.89,1.66-23.54,21.81-17.49,32.92-1.26-14.51,3.77-25.53,17.49-32.92Zm-33.72,85.28c4.28-1.76,5.33-20.43,1.38-24.11-.44,7.68-.91,15.88-1.38,24.11Zm70.91-348.89c9.38,7.73,11.92,8.5,15.4,4.58-5.12-.92-8.08-7.43-15.4-4.58Zm49.16-.97c-2.22,9.62-.94,17.36,2.97,17.92-.57-5.87,1.15-12.02-2.97-17.92Zm94.81,247.38c2.45-9.5,1.34-18.5-3.61-26.95.58,4.39,1.65,8.72,2.28,13.1.66,4.59.9,9.23,1.33,13.85Zm-176.8,20.97c-12.76,2.8-20.91,22.06-16.25,30.6-1.34-13.57,4.56-23.59,16.25-30.6Zm-13.29,33.92c-1.36-14.01,3.32-24.45,14.54-31.52-10.63,2.36-18.56,18.63-14.54,31.52Zm-85.33-39.95c4.47-.85,7.48-1.43,11.07-2.12-2.06-2.98-3.61-5.21-5.77-8.33-1.78,3.5-3.14,6.17-5.31,10.45Zm221.41,12.15c-2.27-13.93,2.33-24.79,15-33.07-12.97,5-19.78,20.73-15,33.07Zm-183.8,56.27c-.55.03-1.11.05-1.66.08.32,4.03,1.52,8.24.7,12.02-.77,3.54-3.68,6.62-6.24,10.91,2.35-1.45,4.97-2.14,5.72-3.71,2.98-6.23,3.1-12.79,1.49-19.3Zm200.02-249.17c-2.57-2.36-9.84-1.5-14.77,1.75,3.36,2.26,10.44,1.42,14.77-1.75Zm-7.97,193.91c-1.17-12.05,3.59-21.4,13.08-28.59-10.86,5.38-16.58,17.91-13.08,28.59Zm-237.5-55.82c-3.93-1.5-15.07,3.91-17.1,8.57,5.46-2.73,10.91-5.47,17.1-8.57Zm87.22,78.43c-1.08-11.07,2.67-20.34,10.75-28.01-8.69,4.54-13.54,17.13-10.75,28.01Zm156.69-49.93c-8.66,5.91-12.52,17.37-8.96,27.93-1.58-11.51,1.68-20.35,8.96-27.93Zm-280.31-9.36c.9,11.28,1.97,24.6,3.12,38.94.15-14.53,1.2-28.1-3.12-38.94Zm267.85,33.97c-.56-11.87,3.54-21.6,13.26-28.76-10.42,5.12-15.89,17.06-13.26,28.76Zm-138.63-163.07c-.39.58-.77,1.15-1.16,1.73,3.57,3.91,8.63,5.25,13.26,7.32.36-.61.71-1.23,1.07-1.84-4.39-2.4-8.78-4.81-13.17-7.21ZM113.42,54.01c-2.76,2.56-3.31,4.42-.03,6.21,2.64,1.44,5.07,2.81,6.79-1.64-2.26-1.52-4.42-2.98-6.76-4.57Zm277.14,346.81c5.81-.14,7.77-2.01,7.65-7.27-4.25.65-8.39,1.37-7.65,7.27Zm8.14-97.13c-6.75-.77-7.9.35-6.75,6.57,4.95-.45,5.42-.9,6.75-6.57Zm-304.6,110.75c-1.62-4.65-3.01-8.64-4.51-12.95v14.34c1.71-.52,2.88-.88,4.51-1.39Zm-60.99-28.7c5.08-9.96,3.35-19.69-.99-29.31,2.81,9.7,4.85,19.42.99,29.31Zm82.91,32.18c4.92-9.27,3.41-18.48-.28-27.67,2.41,9.2,3.36,18.42.28,27.67Zm267.83-70.17c-8.22,5.96-12.09,13.97-11.01,24.17.6-9.44,4-17.58,11.01-24.17Zm-61.52-72.83c-1.46-4.94-2.62-8.87-3.78-12.8-2.83,8.2-2.14,10.62,3.78,12.8ZM148.63,28.76c-5.92-5.05-6.74-5.21-9.67-1.92q6.44,4.87,9.67,1.92Zm105.71,178.18c-.08-.94-.17-1.87-.25-2.81-4.8.68-9.6,1.36-14.41,2.04.07.65.13,1.3.2,1.94,4.82-.39,9.64-.79,14.46-1.18Zm-25.7,191.14c-.06-9.88,3.37-18.32,10.29-25.36-8.34,6.44-11.6,14.97-10.29,25.36Zm2.84,1.94c-.07-9.57,2.95-18.02,9.21-25.29-7.68,6.75-10.6,15.23-9.21,25.29ZM161.4,21.83c-6.89-5.45-7.09-5.49-10.45-2.16,3.43.87,5.58,5.89,10.45,2.16Zm205.73,320.77c-7.18,6.6-9.97,14.75-8.41,24.35-.35-9.2,2.84-17.15,8.41-24.35Zm26.65-58.43l.47-1.7c-2.92-.81-5.84-1.62-8.76-2.44,1.3,6.68,4.91,5,8.29,4.13Zm-252.55-39.8c-3.31.21-5.6,3.31-4.11,5.95.96.3,2.27.71,4.11,1.29v-7.24Zm156.58,58.69c3.31-.82,6.63-1.64,10.36-2.56-5.56-6.4-7.54-.11-10.36,2.56Zm-134.69,52.1c.36.77.72,1.53,1.07,2.3,3.4-1.62,6.8-3.24,10.2-4.86-.32-.69-.65-1.38-.97-2.07l-10.3,4.64ZM25.78,154.7c-.26.71-.51,1.41-.77,2.12,3,1.95,5.72,4.84,9.66,3.7l.52-1.53c-3.14-1.43-6.28-2.85-9.42-4.28Zm264.06-63.45c3.78,5.75,7.43,7.46,11.31,6.05-4.08-2.19-7.7-4.12-11.31-6.05Zm-115.29,354.3c-.28-.84-.56-1.67-.84-2.51-3.38,1.21-6.76,2.42-10.14,3.63.24.68.48,1.36.72,2.04l10.26-3.16Zm-76.53-250.19c-.18.5-.35,1.01-.53,1.51,3.3,1.18,6.6,2.36,9.9,3.54.17-.49.34-.98.52-1.47-3.16-1.6-5.62-5.21-9.89-3.59Zm60.43,86.08c-3.07,6.28-2.79,8.89,0,10.39v-10.39Zm83.28-53.72c.29-.57.57-1.13.86-1.7-3.99-1.92-7.99-3.85-11.98-5.77-.25.5-.5.99-.75,1.49,3.96,1.99,7.92,3.99,11.87,5.98Zm-69.82,9.79c-.63-.06-1.27-.12-1.9-.19-.22,3.65-.43,7.29-.65,10.94.52.06,1.04.11,1.56.17.33-3.64.66-7.28.99-10.92Zm-6.15-224.86c-.28.74-.56,1.47-.84,2.21,2.77,1.02,5.55,2.04,8.32,3.06.23-.62.46-1.23.69-1.85l-8.17-3.41Zm190.88,124.43l-.79.37c2.11,4.85,4.22,9.69,6.33,14.54.42-.2.83-.4,1.25-.59-2.26-4.77-4.53-9.55-6.79-14.32Z"/>
      <path class="cls-2" d="m123.43,245.08c12.01-13.88,15.61-30.29,16.89-47.19,2.91-38.51-4.1-74.97-24.77-108.12-5.24-8.41-11.92-15.61-21.52-20.35,5.69-1.08,11.39-2.17,17.08-3.22,5.56-1.03,11.22-1.7,16.68-3.09,9.89-2.53,17.61,1.05,24.35,7.84,2.11,2.12,3.97,4.49,5.88,6.8,6.97,8.4,15.61,12.12,26.57,9.78,3.69-.79,7.46-1.17,11.97-1.85-1.91,7.45-3.75,14.11-5.34,20.84-6.64,28.08-9.55,56.51-6.3,85.26,1.07,9.5,3.92,18.83,6.35,28.14.66,2.52.71,4.17-1.61,5.41-6.43,3.42-12.54,8.11-19.41,9.92-15.41,4.05-31.19,6.66-46.82,9.85Z"/>
      <path class="cls-2" d="m303.63,64.34c7.96-1.6,14.34-2.74,20.65-4.19,9.82-2.25,11.69-6.95,9.88-16.77-1.54-8.37-3.44-15.47-13.37-17.88l1-1.35c9.89-1.81,20.01-2.81,29.62-5.59,16.95-4.91,28,2.89,36.92,15.64,14.16,20.23,21.06,43.24,24.6,67.39,2.43,16.56,2.8,33.17.04,49.75-1.77,10.61-4.95,20.73-10.97,29.76-5.13,7.7-12.14,12.13-21.62,12.04-.2-.32-.54-.63-.49-.84,3.31-12.95.06-26.02.8-38.97.89-15.63-6.29-27.62-15.54-38.63-7.33-8.73-15.3-17.16-24.12-24.34-9.75-7.95-20.79-14.31-31.25-21.4-1.72-1.17-3.34-2.5-6.15-4.61Z"/>
      <path class="cls-2" d="m342.81,163.99c-.11,28.98-20.37,55.51-46.67,61.11-11.98,2.55-22.27-1.47-28.91-11.74-7.75-11.99-9.32-25.09-6.07-38.84,4.72-19.97,15.08-35.72,34-44.95,8.05-3.93,16.57-4.7,25.35-3.36,8.96,1.37,14.13,7.58,17.22,15.12,2.92,7.11,4.31,14.85,6.38,22.31-.43.12-.86.24-1.29.36Z"/>
      <path class="cls-2" d="m313.42,261.62c1.89,17.69,2.3,21.57-13.7,29.51-5.13,2.55-10.75,4.1-16.87,6.37-.31-4.22-.54-7.42-.83-11.35-5.1.95-9.88,1.49-14.4,2.9-1.2.37-2.31,3.42-2.21,5.16.29,4.93-1.3,6.91-6.53,7.36-29.9,2.56-59.57,2.66-88.58-6.48-8.21-2.59-8.29-2.71-8.6-11.21-.22-6.25-5.82-5.77-9.93-9.23-.19,3.95-.32,6.61-.45,9.28-.49.14-.98.28-1.46.42-1.06-3.08-2.7-6.1-3.05-9.26-.54-4.77-.14-9.65-.22-14.47-.12-7.04,5.35-10.49,12.28-8.33,11.71,3.66,23.38,7.88,35.4,10.04,25.44,4.57,51.05,3.97,76.51-.73,2.25-.42,4.9-1.14,6.83-.37,11.12,4.43,22.22,2.49,33.38.63.8-.13,1.62-.15,2.43-.22Z"/>
      <path class="cls-2" d="m228.93,243.08c-10.27-6.73-20.65-13.31-30.71-20.34-1.9-1.33-2.94-4.33-3.71-6.78-7.13-22.51-7.89-45.63-4.74-68.72,2.58-18.92,6.79-37.63,10.55-56.38.55-2.75,2.1-5.79,4.13-7.69,19.45-18.19,41.98-28.6,69.24-26.09,11.66,1.07,22.35,4.99,31.8,12.08,3.04,2.28,6.26,4.33,10.53,7.26-2.17-.29-3.14-.38-4.09-.56-28.62-5.15-52.79,4.33-73.01,23.86-28.15,27.19-39.48,60.61-33.14,99.44,2.71,16.62,9.78,28.32,23.93,42.76-.26.39-.52.77-.78,1.16Z"/>
      <path class="cls-2" d="m139.45,43.07c5.25-1.06,8.91-1.83,12.59-2.53,44.35-8.41,88.7-16.79,133.04-25.24,7-1.33,13.46-.7,19.62,3.29,6.78,4.38,13.85,8.33,22.08,13.23-3.6,1.09-5.7,1.93-7.88,2.35-45.47,8.76-90.95,17.46-136.41,26.22-7.54,1.45-14.4.59-20.96-3.87-6.69-4.55-13.81-8.45-22.08-13.45Z"/>
      <path class="cls-2" d="m367.44,283.48c8.89,5.76,9.5,14.61,9.2,23.56-.17,5.18,1.15,8.8,5.81,11.59,4.19,2.51,6.98,6.45,7.23,12.45-6.61-3.24-12.75-6.11-18.74-9.24-3.67-1.92-7-1.85-10.27.62-5.85,4.42-11.9,8.61-17.38,13.45-2.12,1.88-3.79,5.17-4.12,7.99-.83,7.1-.73,14.3-1.1,21.46-.2,3.91,1.29,6.61,4.8,8.53,6.58,3.59,12.89,7.7,19.59,11.03,2.21,1.1,5.5,1.19,7.92.47,5.24-1.54,6.55-.91,6.42,4.67-.12,4.99-.15,10-.65,14.96-.38,3.84-2.19,7.12-6.39,8-8.29,1.75-16.62,3.31-25.34,5.03,0-6.3-.18-12.22.06-18.11.17-4.27-1.34-7.45-4.83-9.75-5.52-3.64-7.69-8.65-7.4-15.31.41-9.32.29-18.67.12-28-.11-6.11,1.21-11.9,5.29-16.26,8.28-8.83,7.16-19.12,5.74-29.63-.2-1.47-.61-2.91-1.09-5.14,9.5-2.13,18.9-4.24,28.31-6.35-.1-.47-.19-.94-.29-1.4-4.87.97-9.92,1.4-14.56,3.01-9.64,3.35-18.35,2.3-26.73-3.47-2.86-1.96-6.08-3.53-9.35-4.72-3.62-1.31-4.16-3.31-2.25-6.97,4.43,2.08,8.99,3.96,13.29,6.3,4.46,2.42,8.82,3.2,13.88,2.02,8.59-2,17.36-3.25,25.97-5.17,5.58-1.25,9.94.55,12.23,5.27,2.49,5.13,4.09,10.78,5.43,16.36.8,3.33.16,6.99.59,10.45.17,1.39,1.55,3.79,2.27,3.75,4.82-.29,5.38,3.32,6.17,6.42,1.58,6.21,2.82,12.52,4.33,19.36-7.13-.6-8.72-5.39-9.52-9.68-1.29-6.93-4.93-11.7-10.32-15.85-1.76-1.36-2.83-4.22-3.25-6.57-1.05-5.85-1.14-11.89-2.41-17.68-.9-4.15-4.14-6.78-8.67-7.45Z"/>
      <path class="cls-2" d="m91.17,246.3c3.24-4.03,6.28-7.81,9.33-11.6-.32-.37-.63-.73-.95-1.1-6.25,7.58-12.07,16-23.71,13.51,14.74-2.81,20.47-14.07,24.6-26.53,1.92-5.8,2.85-11.94,4.22-17.91,8.19-1.76,8.24-1.76,8.34-10.46.05-4.99.14-10.01-.27-14.97-.13-1.63-1.67-4.36-2.78-4.47-5.13-.53-4.87-4.23-5.77-7.76-3.39-13.35-6.66-26.75-10.79-39.87-3.6-11.44-10.85-20.9-18.86-29.72-.54-.59-.94-1.3-1.36-1.89,1.48-2.26,4.37-5.66,3.92-6.17-2.09-2.41-5.02-4.16-7.81-5.89-1.52-.94-3.36-1.37-5.1-2.05,3.15-2.77,8.49-3.85,13.24-2.7,9.27,2.25,16.19,8.2,21.35,15.61,23.69,34.01,33.96,71.58,28.01,112.94-1.58,10.97-6.08,21.03-12.36,30.27-5.61,8.26-13.56,10.99-23.25,10.77Z"/>
      <path class="cls-2" d="m236.21,180.78c7.22-.8,13.78-1.52,20.68-2.28,0,4.1-.33,8.39.06,12.61,1.86,20.51,13.34,37.44,34.63,40.67,12.76,1.94,24.19-2.04,34.17-9.68,20.4-15.62,29.74-36.53,26.7-62.05-3.18-26.62-26.37-43.37-52.12-35.56-.46.14-.97.11-1.68.18v-24.19c6.09-1.47,12.76-3.08,20.33-4.91,0,5.77.19,10.55-.06,15.3-.23,4.38,1.21,6.72,5.83,7.55,18.11,3.26,28.91,14.75,34.37,31.73,1.36,4.24,3.76,5.55,7.86,4.54,3.2-.79,6.43-1.49,10.94-2.53,0,7.52.11,14.39-.15,21.25-.03.84-2.05,2.27-3.18,2.3-10.53.26-14.24,5.93-16.87,15.91-4.97,18.86-16.91,33.39-34.26,42.93-3.16,1.74-4.76,3.76-4.47,7.45.26,3.31-.2,6.69.17,9.98.48,4.21-1.33,6.13-5.24,6.81-4.69.82-9.36,1.8-14.49,2.8,0-5.31,0-9.76,0-14.22,0-3.9-1.94-6.38-5.77-6.94-17.65-2.55-27.2-13.93-32.98-29.7-2.83-7.72-5.65-9.1-13.76-7.62-3.26.6-6.52,1.15-10.73,1.89v-24.23Z"/>
      <path class="cls-2" d="m98.76,180.72c-1.28,5.97.64,11.28-4.94,14.68-1.62.98-1.12,5.03-2.19,7.41-1.84,4.1-4.15,8-6.26,11.98-3.76-2.24-8.1-3.87-11.16-6.83-9.4-9.08-13.85-20.97-17.14-33.29-4.4-16.48-5.78-33.09-.8-49.71,1.08-3.61,2.83-7.11,4.78-10.36,3.55-5.92,6.1-6.06,10.66-.98,8.41,9.37,13.31,20.62,16.99,32.45,1.53,4.91,2.5,10,3.52,15.04.72,3.58,1.71,6.54,4.37,9.58,2.21,2.54,1.71,7.43,2.18,10.01Z"/>
      <path class="cls-2" d="m228.32,231.42c-7.25-11.13-12.63-22.93-14.69-36.24-6.95-44.9,22.79-95.11,65.24-109.5,15.57-5.28,31.12-5.03,46.36,1.45,3.08,1.31,5.89,3.23,8.3,5.94-5.47-2.15-10.94-4.3-16.41-6.45-.32.59-.65,1.18-.97,1.77,2.74,2.14,5.49,4.28,8.23,6.42-8.64-1.43-14.1-11.92-25.92-7.81,4.23,3.01,7.59,5.41,10.96,7.81l-.42,1.42c-2.04-.49-4.24-.65-6.08-1.55-2.97-1.46-5.75-3.35-8.54-5.17-4.04-2.62-7.41-1.06-11.54,1.66,4.59,3.01,8.66,5.67,12.87,8.43-2.38,3.06-4.56,3.57-7.49,1.53-2.72-1.9-5.86-3.21-8.56-5.14-4.53-3.26-7.89-1.62-11.83,2.62,4.89,3.04,9.44,5.86,14.14,8.78-2.51,3.4-5.08,4.29-8.58,1.81-2.44-1.73-5.12-3.11-7.75-4.55-5.5-3.02-7.73-2.22-10.99,4.2,4.66,2.69,9.36,5.41,14.28,8.25-1.98,3.91-4.05,5.87-8.11,2.88-1.99-1.47-4.37-2.4-6.55-3.62-6.49-3.61-7.59-3.23-11.49,4.36,4.96,2.83,9.95,5.68,15.33,8.75-1.25,1.8-2.33,3.36-3.59,5.18-4.63-2.37-9.01-4.38-13.16-6.79-4.12-2.4-5.13.84-6.8,3.23-2.14,3.07-.34,4.32,2.23,5.61,3.99,2,7.86,4.27,12.19,6.65-.95,1.98-1.78,3.7-2.87,5.96-4.36-2.23-8.52-4.2-12.52-6.45-2.69-1.51-4.64-1.53-5.99,1.58-1.26,2.88-2.46,5.51,1.64,7.38,4.22,1.92,8.24,4.29,12.74,6.66-.68,2.02-1.28,3.82-2.05,6.1-5.64-2.71-10.82-5.2-15.97-7.67-3.9,6.91-3.46,8.67,2.55,11.75,1.18.61,2.4,1.15,3.58,1.77,2.19,1.17,4.99,1.93,6.27,3.74.68.96-1.79,3.74-2.01,5.79-1.08,10.05-2.18,20.16,2.42,30.65-5.03-2.36-9.68-4.53-14.74-6.9-.78,4.17-.36,7.16,3.55,8.95,3.48,1.59,6.92,3.3,10.27,5.14,1.59.87,2.93,2.19,4.38,3.31l-.68,1.09c-4.19-1.74-8.37-3.48-13.77-5.72,2.09,12.07,14.38,9.95,19.14,17.11-3.77-1.58-7.53-3.17-12.11-5.1.57,5.93,4.49,7.75,8.26,9.58,3.87,1.87,7.83,3.54,11.45,6.09-3.15-1.18-6.3-2.36-10.48-3.93.74,2.1,1.09,3.08,1.44,4.07-5.06-4.29-10.11-8.57-15.17-12.85Z"/>
      <path class="cls-2" d="m411.39,183.18c13.22-19.38,15.29-40.82,14.68-62.67-.79-28.33-6.9-55.51-21.02-80.33-4.53-7.97-10.77-14.96-16.22-22.4,3.57-.89,7.24.93,10.99,3.16,2.48,1.47,5.43,2.13,7.98,3.52,1.97,1.07,3.93,2.45,5.38,4.14,12.21,14.23,18.91,31.2,23.72,49.01,1.65,6.09,2.75,12.34,3.82,18.57.61,3.59,2.21,7.56-2.46,10.17-.73.41-.53,2.75-.52,4.2.04,5.82.17,11.64.28,17.46.05,2.51-1.06,5.36,2.41,6.82.59.25.84,2.1.7,3.14-1.78,13.36-5.26,26.12-13.89,36.89-4.36,5.44-8.91,7.83-15.86,8.34Z"/>
      <path class="cls-2" d="m204.57,324.05c9.18-1.86,18.09-3.76,27.06-5.32.95-.16,2.99,1.55,3.27,2.7,1.18,4.81,2.5,9.73,2.57,14.63.08,5.31,1.58,9.23,5.87,12.41,2.19,1.62,3.78,4.05,5.64,6.11-.25.37-.5.74-.75,1.1-4.77-2.3-9.78-4.23-14.26-6.99-6.75-4.16-12.69-4.33-18.33,1.7-1.24,1.33-2.65,2.66-4.25,3.46-18.34,9.2-14.42,25.97-13.97,41.43.05,1.67,2.08,3.88,3.76,4.81,7.13,3.95,14.43,7.58,21.77,11.14,1.4.68,3.59,1.23,4.75.61,4.68-2.48,7.72.35,10.83,2.3-.55,6.67-.98,12.95-1.59,19.21-.65,6.63-2.07,8.19-8.62,9.62-7.28,1.59-14.59,3.06-21.23,4.44,0-6.26-.12-12.36.04-18.45.11-4.09-1.29-7.07-4.99-8.98-5.87-3.04-7.74-7.81-7.44-14.44.43-9.46.13-18.99-.49-28.45-.46-7.06.65-13.75,5.62-18.53,9.49-9.14,7.21-19.89,5.64-30.74-.16-1.11-.52-2.2-.91-3.77Z"/>
      <path class="cls-2" d="m240.87,338.11c-1.01-6.41-2.01-12.75-3.1-19.62,3.35-.78,7.01-1.66,10.69-2.47,26.18-5.77,52.37-11.5,78.55-17.3,3.76-.83,7.21-1.41,9.58,2.73,2.41,4.22,2.86,12.27.38,14.78-.86.87-2.26,1.4-3.5,1.68-30.38,6.81-60.78,13.57-91.17,20.32-.45.1-.96-.08-1.43-.12Z"/>
      <path class="cls-2" d="m178.01,356.96c.91-1.84,2.51-3.64,2.61-5.53.63-11.58-.48-22.68-11.51-30.82,5.94-1.46,11.12-2.73,16.41-4.03-16.85-8.25-33.35-16.18-49.7-24.4-5.88-2.96-11.61-4.46-18.19-2.56-5.1,1.48-10.6,1.64-15.6,3.35-6.33,2.16-10.66.35-14.86-5.93,10.43-2.69,20.46-5.12,30.4-7.89,4.42-1.23,8.04,0,11.86,1.97,18.18,9.39,36.58,18.37,54.61,28.04,8.94,4.8,17.92,5.62,27.51,3.49,6.13-1.36,12.18-1.96,17.73,1.95.63.44,1.2.97,2.8,2.28-13.11.91-24.4,8.36-37.47,3.3.54,1.09.96,2.25,1.63,3.25,4.86,7.21,5.08,15.34,4.52,23.55-.1,1.49-1.25,3.02-2.2,4.33-2.71,3.74-5.56,7.37-8.37,11.05.02.01-.42-.15-.47-.39-1.19-5.2-4.12-7.15-9.33-5.17-.73.28-1.65.08-2.48.11l.1.07Z"/>
      <path class="cls-2" d="m162.02,250.5c1.2-.07,2.42-.31,3.6-.17,5.64.67,7.71-.43,7.81-5.93.09-4.66,2.1-6.46,6.09-8.1,4.88-2,9.22-5.27,14-7.56,1.51-.73,4.08-.77,5.48.05,6.03,3.51,11.74,7.56,17.69,11.21,16.23,9.97,33.64,16.6,52.74,18.39.43.04.83.42,1.19,1.15-36.85,5.88-73.24,5.87-108.63-7.59,0-.48.02-.97.02-1.45Z"/>
      <path class="cls-2" d="m277.36,290.49c.11,1.47.21,2.61.29,3.76.34,5.04,2.29,6.67,7.09,5.28,10.6-3.06,21.01-6.54,28.95-14.91.74-.78,3.06-.87,4.21-.34,6.5,3,12.97,6.1,19.21,9.6,1.76.99,3.62,3.37,3.83,5.28.75,6.74,1.1,13.57.93,20.35-.05,2.18-1.87,4.58-3.41,6.43-5.72,6.84-8.41,14.52-8.08,23.49.3,8.15-.29,16.34.05,24.49.2,4.79,1.44,9.55,2.12,13.73-7.75-2.81-9.47-5.85-9.21-15.36.31-11.26.07-22.54.07-34.1,2.01.6,3.97,1.19,6.12,1.84-.12-.7-.08-1.03-.22-1.24-1.6-2.43-7.65-1.63-5.85-5.9,2.09-4.97,1.92-12,10.06-13.07,6.54-.85,9-7.85,6.45-16.03-2.08-6.68-6.11-8.91-12.92-7.19-2.58.65-5.22,1.11-7.77,1.88-4.51,1.36-8.71,1.6-12.57-1.85-2.54-2.26-4.65-1.39-7.36.7-3.88,2.98-8.31,6.15-12.93,7.07-16.62,3.31-33.41,5.74-50.16,8.37-1.71.27-3.85.11-5.3-.71-6.2-3.53-12.62-3.93-19.31-2.11-10.21,2.77-19.67,1.21-28.78-4.13-5.41-3.17-11.21-5.68-16.74-8.8,31.47,10.13,63.6,9.9,95.95,6.96,3.94-.36,5.96-1.48,5.91-5.95-.08-7.72.31-7.84,9.37-7.54Z"/>
      <path class="cls-2" d="m63.66,80.77c4.69,2.52,8.04,4.31,12.25,6.56-9.45,5.45-4.59,14.1-6.54,20.92-13.34-1.02-20.01,3.26-24.36,16.23-6.92,20.66-4.39,41.11,2.3,61.27,3.28,9.87,7.94,19.07,15.56,26.44,6.55,6.32,13.86,9.68,24.05,4.79-3.86,6.09-7.2,10.4-13.96,10.82-1.39.09-3.51,2.41-3.78,3.96-.58,3.39-.18,6.94-.18,10.82-4.34-.88-6.48-2.79-6.3-7.07.18-4.49-.03-9,0-13.5.03-3.33-.88-4.95-4.78-4.08-1.59.35-4.25-.59-5.29-1.86-11.99-14.68-17.22-32.08-19.66-50.5-.13-.98,1.02-2.71,2-3.16,3.36-1.55,3.21-3.9.44-4.9-8.05-2.93-7.78-9.21-7.35-15.8.16-2.44.26-4.88.41-7.72,3.31.72,6.09,1.32,8.88,1.92-5.56-2.97-3.82-7.3-2.4-11.15,1.76-4.8,3.56-9.72,6.23-14.04,3.75-6.06,9.32-9.34,16.91-7.87,3.67.71,5.7-.74,5.6-4.8-.13-5.25-.03-10.5-.03-17.28Z"/>
      <path class="cls-2" d="m315.85,326.1c-9.19,1.9-18.37,3.8-27.56,5.7-.11-.51-.23-1.02-.34-1.53,10.67-2.42,21.33-4.85,32-7.27-4.94,7.34-3.07,14.69-2.39,22.19.73,8.09.84,16.35.01,24.42-.66,6.46-.63,12.22,4.88,17.72-11.14,2.52-21.39,4.84-32.33,7.31.48-5.71.87-10.63,1.32-15.53,1.23-13.54.61-26.99-2.48-40.23-.98-4.19.25-5.6,4.24-6.24,6.07-.98,12.07-2.44,18.09-3.74,1.69-.36,3.35-.87,5.02-1.3-.15-.5-.3-1-.44-1.49Z"/>
      <path class="cls-2" d="m240.44,428.17c-.2-1.77-.44-3.04-.47-4.32-.14-7.79.07-7.96,7.38-6.32,10.01,2.24,20.44-3.09,25.85-13.59,1.44-2.79,3.18-4.23,6.24-4.9,14.95-3.28,29.84-6.86,44.79-10.18,8.76-1.95,16.4,6.01,13.76,14.65-.59,1.92-3.49,3.94-5.66,4.44-19.12,4.46-38.33,8.56-57.5,12.81-9.42,2.09-18.82,4.28-28.24,6.38-1.91.43-3.86.65-6.15,1.03Z"/>
      <path class="cls-2" d="m102.26,374.53c0-3.38-.06-6.36.01-9.33.28-12.26-.96-24.26-5.77-35.71-.98-2.33-1.56-4.45.93-6.67,1.23-1.1,1.76-3.67,1.62-5.5-.53-6.9-1.47-13.77-2.32-21.3,7.84-1.7,16.54-3.67,25.29-5.34.9-.17,2.86,1.24,3.1,2.22,1.47,6.1,2.82,12.26,3.66,18.47.19,1.39-1.52,3.52-2.92,4.52-2.41,1.72-5.21,2.97-7.96,4.13-4.93,2.06-6.34,5.36-5.56,10.72,1.5,10.35,2.92,20.79,3.14,31.22.25,11.9,2.42,10.75-13.21,12.58Z"/>
      <path class="cls-2" d="m264.14,336.04c6.1-1.56,12.17-3.26,18.32-4.54.84-.17,2.79,1.55,3.07,2.68,3.75,14.95,5.26,30.12,3.79,45.52-.17,1.82-.32,3.65-.59,5.46-1.7,11.64,1.41,9.62-12.47,12.37.2-2.24.45-4.29.56-6.34.3-5.85-1.22-11.07-4.72-15.91-1.51-2.09-2.3-4.96-2.65-7.58-1.24-9.38-2.09-18.82-3.28-28.21-.16-1.25-1.39-2.36-2.13-3.53l.08.08Z"/>
      <path class="cls-2" d="m72.06,72.52c4.34.88,9,1.04,12.96,2.79,11.01,4.87,18.2,14.05,23.51,24.35,5.31,10.32,9.43,21.26,14.04,31.94.63,1.45,1.1,2.96,2.27,4.1-7.67-24.93-15.76-49.66-40.42-64.7,3.15,1.31,6.92,1.94,9.33,4.08,6.04,5.36,12.82,10.59,16.91,17.32,23.55,38.84,30.82,80.77,21.01,125.26-2.42,10.97-6.97,21.22-15.87,27.18,3.38-6.74,7.48-14.29,10.97-22.11,1.67-3.74,3.04-7.98,3.11-12.02.44-24.55,1.68-49.16-6.63-72.99-6.34-18.17-13.23-36-26.38-50.52-6.6-7.29-14.21-13.2-24.97-12.7.06-.66.12-1.32.18-1.98Z"/>
      <path class="cls-2" d="m226.35,59.33c-8.99,7.17-18.44,14.93-28.13,22.38-10.17,7.83-28.19,5.14-35.74-5.15-6.42-8.76-13.41-16.28-25.09-18.22-4.12-.68-1.54-5.06-1.26-8.44,7.59,4.54,14.88,8.54,21.78,13.14,7.87,5.25,16.25,6.4,25.29,4.64,14.68-2.85,29.37-5.68,43.15-8.35Z"/>
      <path class="cls-2" d="m376.41,183.57c-.95,23.68-23.94,58.29-49.52,67.49,0-3.65-.23-7.1.13-10.48.12-1.14,1.55-2.44,2.7-3.11,18.11-10.51,28.92-26.61,35.25-46.06,2.48-7.62,2.75-8.06,11.44-7.83Z"/>
      <path class="cls-2" d="m179.32,315.71c-3.14.91-5.04,1.33-6.85,2.02-5.66,2.16-11.27,4.46-16.94,6.59-1.17.44-2.82.95-3.75.47-6.49-3.34-12.87-6.89-19.22-10.5-.73-.42-1.37-1.5-1.52-2.36-1.23-6.96-2.34-13.95-3.61-21.67,16.97,8.32,33.86,16.6,51.88,25.44Z"/>
      <path class="cls-2" d="m296.36,256.51c-16.95,1.15-43.5-15.32-48.8-46.37,1.69-.42,3.51-.63,5.13-1.32,3.62-1.53,4.96.12,5.98,3.4,4.54,14.51,13.73,24.83,28.08,30.31.93.36,1.87.7,2.81,1,8.38,2.7,9.03,3.93,6.79,12.98Z"/>
      <path class="cls-2" d="m327.09,105.51c23.1,1.08,44.41,20.21,48.87,44.1-1.9.61-3.88,1.23-5.86,1.87-3.28,1.06-4.95.1-6.26-3.38-5.2-13.74-14.37-23.84-28.39-29.09-.47-.18-.94-.35-1.41-.51-8.47-2.81-8.69-3.2-6.95-12.99Z"/>
      <path class="cls-2" d="m273.75,50.17c17.72-3.48,36.69-7.2,55.92-10.97.6,1.88,1.25,4.08,2.01,6.23,2.12,6.03.47,10.28-5.64,11.96-6.87,1.89-13.95,2.99-20.96,4.34-.93.18-2.04.04-2.92-.31-9.76-3.82-19.49-7.71-28.4-11.26Z"/>
      <path class="cls-2" d="m177.91,356.88c1.06.56,2.33,1.82,3.15,1.57,4.51-1.34,5.49,1.48,6.96,4.78,6.96,15.65,5.45,32.03,3.84,48.22-.99,9.94-4.22,12-13.94,13.35,5.81-22.16,5.86-44.14-3.78-66.27,1.3-.53,2.59-1.05,3.88-1.58,0,0-.1-.07-.1-.07Z"/>
      <path class="cls-2" d="m138.33,44.62c9.13,5.47,17.96,11.58,27.52,16.14,4.43,2.11,10.5,2.38,15.47,1.48,30.63-5.5,61.16-11.57,91.72-17.45,15.03-2.89,30.07-5.75,45.09-8.72,2.74-.54,5.36-1.68,8.09-2.32.87-.2,1.91.3,2.87.48-.37.93-.49,2.37-1.16,2.7-1.76.87-3.72,1.43-5.66,1.8-23.72,4.43-47.47,8.66-71.16,13.23-23.68,4.57-47.29,9.5-70.95,14.22-7.19,1.43-13.84.06-20.07-3.88-7.04-4.45-14.26-8.59-21.25-13.12-1.15-.74-1.48-2.74-2.2-4.16.56-.14,1.12-.28,1.67-.42Z"/>
      <path class="cls-2" d="m123.23,370.12c-1.12-14.17-2.21-28-3.36-42.54,6.65,3.31,13.24,7,20.17,9.87,3.83,1.59,5.43,4,5.44,7.71,0,1.49-.68,3.05-1.33,4.45-1.25,2.69-3.05,5.17-4.01,7.94-2.34,6.73-9.51,12.19-16.91,12.56Z"/>
      <path class="cls-2" d="m374.74,15.44c7.5.95,13.03,5.44,17.91,10.7,10.78,11.6,17.08,25.76,22,40.52,9.2,27.61,12.57,55.83,7.31,84.7-1.98,10.89-5.39,21.32-12.33,30.24-1.73,2.22-3.56,4.36-5.35,6.54-.3-.29-.61-.58-.91-.87,2.7-4.37,5.84-8.53,8.03-13.14,6.63-13.94,8.89-28.88,9-44.18.23-31.18-5.94-60.88-20.95-88.44-7.13-13.09-12.52-18.51-24.72-26.06Z"/>
      <path class="cls-2" d="m248.31,176.4c1.38-22.79,28.32-58.21,48.18-63.6,1.32,5.84.24,9.76-5.67,13.41-16.35,10.11-26.95,24.98-32.25,43.55-1.86,6.52-2.49,6.85-10.27,6.63Z"/>
      <path class="cls-2" d="m295.46,103.36c2.12,3.75,1.99,6.22-2.49,8.64-24.6,13.27-39.58,34.09-46.28,60.97-1.18,4.74-3.24,6.05-7.6,4.37,4.95-29.98,27.3-62.78,56.37-73.98Z"/>
      <path class="cls-2" d="m273.94,390.01c-.01,13.1-9.5,23.79-19.91,23.93-7.34.1-12.79-4.21-14.18-11.43-1.89-9.82,1.53-17.78,9.3-23.71,5.06-3.86,10.92-5.16,16.85-1.88,5.63,3.11,7.79,8.37,7.94,13.09Zm-5.48,3.34c.07-6.61-3.98-11.49-9.69-11.67-6.78-.22-13.51,7.24-13.66,15.13-.12,6.32,4.3,11.3,10.06,11.35,6.84.06,13.21-7.04,13.29-14.81Z"/>
      <path class="cls-2" d="m31.19,131.36c-6.5-2.33-7.05-3.04-5.85-9.12,1.97-9.97,4.44-19.78,10.7-28.15,3.86-5.16,8.73-8.55,15.35-9.04,2.43-.18,3.87.55,3.7,3.26-.06.99-.08,2,.03,2.99.62,5.41.39,9.38-6.72,10.99-6.61,1.5-10.13,7.83-12.57,13.96-1.94,4.88-3.13,10.05-4.65,15.1Z"/>
      <path class="cls-2" d="m96.02,198.44c5.7,1.08,7,4.22,5.73,9.66-2.2,9.43-4.5,18.75-10.24,26.77-3.69,5.16-8.38,8.93-14.91,9.92-3.23.49-5.2-.31-4.91-4.08.14-1.82.13-3.66-.04-5.48-.3-3.27.6-4.93,4.28-5.68,7.12-1.45,11.31-6.87,14-13.11,2.47-5.74,4.05-11.86,6.09-17.99Z"/>
      <path class="cls-2" d="m103.26,169.73c-5.63-1.19-7.41-3.73-8.27-8.4-3.31-17.96-8.87-34.98-20.75-49.61-2.57-3.16-1.58-9.22-1.37-14.12,19.39,20.13,26.25,45.18,30.39,72.13Z"/>
      <path class="cls-2" d="m54.24,234.87c-19.2-22.14-26.97-47.47-29.91-75.27,4.27,1.04,6.11,2.85,6.74,6.85,2.71,17.22,6.83,34.22,18.24,47.89,5.1,6.11,5.92,12.1,4.94,20.53Z"/>
      <path class="cls-2" d="m310.7,77.67c-6.9.38-16.32-.14-25.31,1.61-24.49,4.77-43.01,19.08-56.86,39.28-17.93,26.16-25.41,54.85-17.57,86.26,1.98,7.94,5.95,15.38,9.02,23.09-5.68-7.08-9.15-15.39-11.4-24.08-12.82-49.59,16.62-105.73,64.51-123.38,13.12-4.84,29.28-5.63,37.61-2.78Z"/>
      <path class="cls-2" d="m180.26,449.49c.41-7.63.81-15.1,1.25-23.21,4.89-.26,9.33-2.81,10.81-10.33,3.36,3.95,7.51,6.64,8.01,9.9.91,5.88-.24,12.11-.82,18.17-.09.96-1.6,2.33-2.66,2.55-5.78,1.19-11.63,2.08-16.6,2.93Z"/>
      <path class="cls-2" d="m382.25,370.78c.62-7.33,4.13-14.19,11.93-18.19,9.29-4.77,18.53.35,19.69,10.69.95,8.48-4.19,18.1-11.77,22.02-9.98,5.16-19.91-1.5-19.85-14.52Zm27.1-3.86c0-6-4.21-10.6-9.66-10.56-6.38.04-12.56,7.05-12.71,14.39-.12,6.31,3.67,10.65,9.34,10.68,6.74.04,13.03-6.96,13.03-14.5Z"/>
      <path class="cls-2" d="m228.09,409.03c-9.14.68-19.26-6.56-21.64-15.16-4.21-15.23,3.88-32.32,19.94-39.28,7.96-3.45,17.12-.41,24.38,7.51-7.72-3.21-15-4.59-22.42-2.45-7.82,2.26-12.42,8.3-15.57,15.26-5.77,12.74-1.04,23.23,15.31,34.13Z"/>
      <path class="cls-2" d="m390.76,336.29c-19.5-5.14-29.44-2.22-35.94,10.59-6.71,13.22-3.39,22.37,12.81,35.34-7.9,1.12-17.03-5.31-19.81-13.94-4.63-14.36,4.64-33.44,18.82-38.74,8.43-3.15,17.78-.54,24.12,6.75Z"/>
      <path class="cls-2" d="m138.01,38.96c2.82-.52,3.8-1.62.99-3.59-2.03-1.43-4.21-2.64-6.38-3.99,1.98-4.71,4.62-3.1,7.51-1.27,6.43,4.07,6.81,3.97,11.84-1.86-2.6-1.71-5.14-3.38-7.81-5.13,3.04-5.14,6.25-1.89,8.65-.1,4.36,3.25,7.87,2.3,12.05-1.27-2.69-1.93-5.12-3.67-7.55-5.41.19-.56.38-1.12.57-1.68,2.21.6,4.69.75,6.57,1.89,4.39,2.66,8.63,4.3,14.02.66-2.49-1.57-4.76-2.99-7.02-4.42.14-.39.27-.78.41-1.18,2.14.65,4.47.95,6.39,2.01,4.06,2.23,8.12,3.89,12.78,2.33,1.2-.4,2.24-1.26,4.15-2.37,4.1,1.38,9.21,3.1,15.07,5.08-24.48-3.29-44.87,4.39-63.44,18.65-2.08,1.6-5.78,1.1-8.72,1.58,0,0-.07.08-.07.08Z"/>
      <path class="cls-2" d="m161.26,408.12c-.64-8.54-1.34-16.75-1.74-24.98-.05-.95,1.41-2.68,2.39-2.87,12.68-2.43,10.09-4.14,12.47,7.58.46,2.25.6,4.62.52,6.92-.42,12.86,3.02,11.48-13.64,13.35Z"/>
      <path class="cls-2" d="m294.63,60.42c-33.63-12.62-62.55-3.22-88.86,18.82-4.31,3.61-6.7,7.99-7.99,13.36-6.05,25.14-11.39,50.42-11.15,76.41.11,11.59,1.77,23.17,2.75,34.75.1,1.12.38,2.23.58,3.34-.43.06-.85.12-1.28.18-1.07-8.91-2.72-17.79-3.11-26.73-1.14-26.28,1.83-52.19,8.45-77.66,1.46-5.63,2.82-11.29,4.35-16.91.33-1.22.93-2.54,1.82-3.4,20.17-19.53,43.11-32.58,72.39-29.22,7.62.88,15.03,3.55,22.53,5.4-.16.55-.32,1.11-.48,1.66Z"/>
      <path class="cls-2" d="m64.96,205.92c3.9,4.03,7.81,8.06,11.71,12.09,0,.19,0,.38,0,.57-3.85-2.27-8.17-4.01-11.46-6.92-11.09-9.81-15.82-23.16-19.25-37.03-3.97-16.09-4.68-32.23.28-48.28,1.85-5.98,4.84-11.28,10.51-14.77-5.38,7.39-8.4,15.67-9.43,24.61-2.68,23.19,1.34,45.06,13.42,65.21,1.05,1.75,2.83,3.06,4.27,4.57l-.05-.05Z"/>
      <path class="cls-2" d="m91.33,346.25c.49,8.69,1.03,16.74,1.27,24.79.03,1-1.44,2.67-2.51,2.96-3.32.91-6.79,1.31-11.02,2.05-.56-8.59-1.2-16.68-1.48-24.77-.04-1.02,1.66-2.7,2.85-3.05,2.99-.88,6.15-1.17,10.89-1.98Z"/>
      <path class="cls-2" d="m296.31,259.58c-3.98,2.74-14.1,1.43-23.91-3.59-18.91-9.68-29.21-25.79-33.41-46.29,5.18-.88,6.69,2.06,7.88,6.15,6.04,20.81,18.88,35.24,39.99,41.6,2.92.88,5.96,1.36,9.45,2.13Z"/>
      <path class="cls-2" d="m159.39,36.23c14.13-14.17,47.73-19.19,62.27-11.87-21.41,4.08-41.84,7.98-62.27,11.87Z"/>
      <path class="cls-2" d="m161.25,359.87c2.49-.57,4.12-.79,5.66-1.32,3.12-1.06,4.71-.01,6.16,2.98,8.3,17.13,7.64,35.2,5.53,53.3-.46,3.91-3.38,7.53-5.66,12.31-3.03-3.19-4.9-5.16-6.67-7.02.2-.64.2-1.05.4-1.24,5.49-5.18,10.79-10.23,10.37-18.89-.57-11.71-.61-23.41-9.27-32.77-2.02-2.18-3.95-4.45-6.52-7.35Z"/>
      <path class="cls-2" d="m65.01,205.97c-3.12-6.18-6.77-12.15-9.27-18.56-7.72-19.84-10.39-40.24-4.33-61.05,1.4-4.79,4.28-9.15,7.14-13.45-8.57,17.55-8.44,35.82-4.93,54.28,3.54,18.64,9.92,35.91,25.36,48.73-3.04-2.04-6.11-4.04-9.11-6.15-1.7-1.19-3.29-2.56-4.92-3.85,0,0,.05.05.05.05Z"/>
      <path class="cls-2" d="m265.52,369.22c-7.21-2.6-11.92-4.92-13.67-12.2-1.14-4.72-5.62-8.64-8.86-13.27,4.99-1.13,10.37-2.46,15.81-3.48.84-.16,2.69,1,2.81,1.75,1.4,8.74,2.56,17.51,3.91,27.19Z"/>
      <path class="cls-2" d="m292.17,227.57c35.79-3.27,63.9-48.29,48.1-87.26,11.07,19.12,8.67,38.22-.9,57.05-9.87,19.43-30.02,32.09-47.2,30.21Z"/>
      <path class="cls-2" d="m92.12,376.91c.87-2.15,2.43-4.28,2.5-6.46.57-15.88-1.28-31.05-15.64-42.51,4.22-.85,7.32-1.48,11.82-2.39,2.05,8.71,4.53,17.24,5.93,25.95.94,5.85.23,11.95.5,17.92.23,5.11-.3,9.61-4.31,13.59-2.05,2.04-2.63,5.56-4.09,8.92-1.19-1.51-2.52-3.19-3.63-4.59,2.5-3.76,4.74-7.13,6.97-10.49l-.06.06Z"/>
      <path class="cls-2" d="m400.48,319.78c2.2-.47,4.43-1.35,6.64-1.28,1.34.04,3.59,1.37,3.8,2.43,1.56,8.06,2.72,16.19,3.98,24.09-6.99,2.3-11.19-.49-11.77-6.28-.61-6.06-1.66-12.08-2.64-18.96Z"/>
      <path class="cls-2" d="m90.37,344.25c-5.09.94-8.44,1.72-11.84,2.09-1.09.12-2.67-.51-3.4-1.34-4-4.58-7.81-9.34-12.41-14.9,4.95-1.03,8.85-1.9,12.79-2.58.62-.11,1.6.52,2.08,1.1,3.99,4.79,7.91,9.65,12.78,15.65Z"/>
      <path class="cls-2" d="m121.08,326.07c4.57-2.53,8.4-4.74,12.33-6.77.76-.39,2.02-.42,2.8-.07,4.8,2.17,9.52,4.51,14.02,6.67-2.26,3.93-4.27,7.43-6.54,11.37-6.89-3.41-14.4-7.13-22.62-11.2Z"/>
      <path class="cls-2" d="m213.22,209.72c-1.14-8.25-2.92-16.48-3.3-24.77-1.93-41.6,23.72-83.03,61.78-99.76,12.22-5.37,25.1-7.6,38.48-4.61-11.93-1.33-23.53.12-34.68,4.43-26.55,10.28-44.25,29.73-55.43,55.26-9.49,21.67-12.15,44.2-5.47,67.33.17.6.17,1.25.25,1.88-.54.08-1.08.16-1.62.24Z"/>
      <path class="cls-2" d="m171.15,376.32c-3.67.76-6.87,1.52-10.1,2.02-1.02.16-2.58-.02-3.16-.69-4.31-4.96-8.44-10.07-12.79-15.35,12.79-4.57,18.83-1.29,26.05,14.02Z"/>
      <path class="cls-2" d="m324.83,97.81c23.34,1.21,44.24,17.1,51.7,45.27-.57-1.3-1.15-2.6-1.72-3.9-8.64-19.7-23.14-32.12-44.69-35.44-3.91-.6-4.67-2.84-5.29-5.93Z"/>
      <path class="cls-2" d="m345.61,145.38c17.8,34.88-10.16,81.98-44.58,84.23,18.59-4.55,31.94-15.77,40.48-32.55,8.41-16.55,10.58-33.82,4.11-51.68Z"/>
      <path class="cls-2" d="m143.27,416.65c.84-.7,1.48-1.63,2.32-1.87,8.37-2.44,9.81-9.18,10.12-16.44.35-8.02-1.75-15.47-6.24-22.17-2.83-4.22-6.37-7.24-11.99-6.38-.86.13-1.81-.33-2.91-.55,4.89-5.86,7.11-6.31,11.74-1.44,11.52,12.11,14.24,26.65,10.39,42.5-.65,2.67-3.08,5.05-5.07,7.2-2.81,3.04-5.7,2.84-8.37-.86Z"/>
      <path class="cls-2" d="m52.55,337.81c5.05-6.21,8.1-6.37,12.74-1.15,9.56,10.74,12.2,23.55,10.13,37.28-.6,3.97-3.54,7.73-5.91,11.24-2.43,3.59-5.14,2.77-7.89-1.16,13.72-4.57,13.14-15.57,10.95-26.21-2.14-10.4-5.63-20.8-20.01-19.99Z"/>
      <path class="cls-2" d="m110.53,405.5c-.47,2.59-.65,5.28-1.48,7.75-1.82,5.39-5.76,6.3-9.87,2.5-6.13-5.66-9.26-20.86-5.86-28.42,2.28-5.07,6.35-5.86,10.11-1.66,5.01,5.58,6.69,12.44,7.09,19.83Zm-16.3-7.5c-.36.17-.71.33-1.07.5,1.87,3.92,3.2,8.25,5.75,11.66,2.77,3.7,7.36,2.6,8.05-1.96.64-4.24.06-8.82-.8-13.08-.72-3.56-3.31-6.65-7.36-6-4.05.64-4.19,4.58-4.58,7.89-.04.33,0,.66,0,.99Z"/>
      <path class="cls-2" d="m28.18,373.63c-.02.5-.02,1-.08,1.5-.46,4.32-.47,9.52-5.84,10.3-4.81.7-7.18-3.63-8.84-7.51-2.86-6.7-4.62-13.71-2-20.85.81-2.21,2.96-5.19,4.81-5.43,1.98-.26,5.35,1.79,6.31,3.72,2.81,5.68,4.73,11.81,6.99,17.76-.45.17-.9.34-1.35.51Zm-16.38-6.38c1.18,2.82,2.18,6.98,4.46,10.24,3.01,4.3,7.36,3.33,8.88-1.7,1.8-5.98.43-11.64-3.3-16.5-2.83-3.69-6.78-2.99-8.54,1.31-.68,1.66-.82,3.54-1.5,6.65Z"/>
      <path class="cls-2" d="m110.87,198.17c-3.68-1.99-6.37-3.29-8.87-4.89-.81-.52-1.6-1.83-1.58-2.75.16-5.79.54-11.57.88-17.72,2.49.51,4.93.79,7.21,1.57.97.33,2.24,1.69,2.26,2.61.19,6.76.1,13.52.1,21.18Z"/>
      <path class="cls-2" d="m409.97,172.09c14.5-46.49,6.41-90.95-14.9-133.61,22.26,30.62,32.24,102.71,14.9,133.61Z"/>
      <path class="cls-2" d="m166.77,238.32c2.4,6.75,1.58,8.32-4.39,9.43-6.15,1.14-12.29,2.32-18.43,3.48-1.46-7.84-1.47-7.88,5.49-9.38,5.79-1.24,11.61-2.37,17.33-3.54Z"/>
      <path class="cls-2" d="m87.21,405.56c.01.33.06.66.04.99-.19,4.44.48,9.92-5.36,10.84-5.4.85-7.84-4.07-9.13-8.23-1.34-4.3-1.54-9.04-1.67-13.61-.11-3.79,2.47-6.74,6.04-6.59,2.6.11,6.23,2,7.38,4.16,1.94,3.65,2.27,8.14,3.28,12.28-.19.05-.39.09-.58.14Zm-14.48-2.98c.7,1.97,1.18,4.89,2.7,7.1,1.03,1.5,3.7,2.96,5.31,2.66,1.5-.28,3.66-2.96,3.59-4.5-.16-3.99-1.05-8.06-2.39-11.84-.44-1.23-3.25-2.35-4.85-2.2-1.27.12-2.62,2.12-3.4,3.58-.67,1.24-.57,2.89-.95,5.2Z"/>
      <path class="cls-2" d="m128.02,49.93c3.21-2.86,3.23-3.04.12-5.12-1.91-1.27-3.9-2.42-5.85-3.62q3.27-4.92,12,1.2c-3.59,13.51-5.9,17.23-10.1,18.06-3.66-3.23-6.69-5.9-9.99-8.81.62-1.07,1.33-2.29,2.25-3.88,2.54,1.47,4.8,2.8,7.08,4.09,2.33,1.33,4.11,1.28,4.5-1.94h-.01Z"/>
      <path class="cls-2" d="m164.42,346.9c-1.13,3.41-1.5,5.6-2.52,7.4-2.34,4.13-5.64,4.53-8.82.98-5.07-5.67-6.99-12.55-5.51-19.91.48-2.36,2.91-5.1,5.13-6.04,1.39-.59,5.08,1.35,5.96,3.06,2.51,4.85,4.1,10.17,5.75,14.51Zm-2.2-.53c-1.17-3.86-1.41-6.74-2.84-8.78-1.24-1.76-3.99-3.69-5.79-3.45-1.47.2-2.9,3.36-3.63,5.46-.62,1.79-.67,4.06-.16,5.89.99,3.55,2.67,7.8,6.89,7.14,2.22-.34,3.88-4.27,5.54-6.27Z"/>
      <path class="cls-2" d="m86.13,314.34c-.23,3.87.96,9.18-4.79,10.27-5.25,1-8-3.71-9.06-7.58-1.43-5.21-2.11-11.06-1.26-16.33.86-5.31,5.04-5.85,9.32-2.42,5.16,4.13,5.38,9.94,5.78,16.07Zm-15.29-6.56c.29.28.57.56.86.84.41,1.94.64,3.95,1.28,5.81,1.11,3.23,3.51,6.25,6.82,5.06,1.97-.71,3.27-4.42,4-7.03.48-1.71-.41-3.92-1.05-5.78-1.1-3.2-2.64-7.1-6.7-5.63-2.25.82-3.5,4.4-5.2,6.73Z"/>
      <path class="cls-2" d="m147.29,430.78c.05-6.04,1.5-7.98,6.34-8.85,5.33-.95,7.4,2.78,8.24,6.63,1.04,4.76,1.34,9.81,1.02,14.67-.13,1.94-2.43,4.46-4.36,5.32-1.25.55-4.49-.94-5.34-2.39-2.77-4.71-4.84-9.83-7.19-14.79.43-.2.86-.4,1.28-.6Zm2.45,2.94c.06,6.14,3.76,10.98,7.53,10.43,3.25-.48,4.91-4.86,3.96-10.49-.03-.16-.03-.33-.09-.49-1.21-3.57-1.96-8.32-6.74-7.93-5.18.42-4.11,5.47-4.67,8.48Z"/>
      <path class="cls-2" d="m362.43,182.7c6.56,12.48-21.75,52.22-38.16,53.86,20.86-12.49,32.84-30.53,38.16-53.86Z"/>
      <path class="cls-2" d="m98.96,380.16c6.19-1.04,9.05,1.98,11.24,5.44,6.12,9.64,7.97,19.99,3.39,30.77-.81,1.9-3.4,3.05-5.61,3.97,9.08-11.31,3.03-34.35-9.02-40.18Z"/>
      <path class="cls-2" d="m378.81,387.53c9.26,2.71,9.96,3.45,9.25,9.16-.93,7.47-2.99,9.72-9.25,9.85v-19Z"/>
      <path class="cls-2" d="m164.8,334.43c3.45,0,7.8-.64,8.06.11,1.46,4.28,2.15,8.88,2.46,13.42.04.51-3.91,1.71-6.04,1.78-1.09.04-3.01-1.58-3.21-2.69-.71-3.86-.84-7.82-1.27-12.61Z"/>
      <path class="cls-2" d="m325.1,386.45c-4.31-3.09-6.32-6.74-6.2-12.12.27-11.73.11-23.5-.56-35.22-.38-6.59,1.48-11.82,6.59-16.19-.39,1.29-.49,2.79-1.22,3.85-3.28,4.76-2.88,9.88-2.46,15.3.64,8.26.69,16.58.62,24.87-.06,6.69-2.3,13.6,3.22,19.5Z"/>
      <path class="cls-2" d="m325.27,412.18q15.73-4.31,15.28-18.85c.65,1.36,1.82,2.7,1.88,4.09.25,5.81.39,11.65.11,17.46-.14,2.87-1.89,4.64-5.17,3.06-3.7-1.78-7.42-3.53-12.1-5.76Z"/>
      <path class="cls-2" d="m114.78,327.17c5.67,4.72,8.21,39.31,3.43,44.35-1.14-14.71-2.27-29.35-3.43-44.35Z"/>
      <path class="cls-2" d="m80.55,293.67c6.14.08,11.22,5.59,12.69,13.94,1.58,9,.69,12.42-4.55,14.34-.29-5.28.26-10.54-1.09-15.26-1.31-4.59-4.57-8.62-7.05-13.01Z"/>
      <path class="cls-2" d="m148.42,411.41c4.59-14.7.88-27.54-8.34-39.27,4.74.34,9.19,4.86,11.46,12.28,2.87,9.37,4.51,18.73-3.13,26.99Z"/>
      <path class="cls-2" d="m58.7,340.36c9.5,4.39,11.66,13.19,12.85,22.27.81,6.19.17,12.3-5.26,16.73,3.9-14.35,1.59-27.26-7.59-39Z"/>
      <path class="cls-2" d="m165.34,427.13c8.87.38,12.84,5.52,10.34,12.49-.53,1.48-3.89,2.32-6.07,2.65-1,.15-3.12-1.52-3.3-2.59-.64-3.99-.68-8.08-.97-12.55Z"/>
      <path class="cls-2" d="m25.34,387.61c8.07-8.99,5.53-30.62-6.48-39.02,7.53-.25,13.76,10.01,14.25,23.47.36,9.91-2.38,15.39-7.77,15.55Z"/>
      <path class="cls-2" d="m388.53,286.65c3.14.19,7.46-.49,8.02.67,1.81,3.7,2.64,8.06,2.83,12.21.04.81-4.51,1.83-7.22,2.86-1.24-5.38-2.27-9.85-3.63-15.73Z"/>
      <path class="cls-2" d="m200.93,365.04c8.45-6.33,15.01-14.18,24.93-16.77-6.82,10.24-20.08,19.01-24.93,16.77Z"/>
      <path class="cls-2" d="m368.08,323.81c-9.27,10.17-21.21,17.45-24.61,15.15,5.95-7.72,20.7-17,24.61-15.15Z"/>
      <path class="cls-2" d="m341.96,371.21c-.6-1.52-1.65-3.01-1.72-4.56-.18-3.97,0-7.96.18-11.93.18-4.12.51-8.24.77-12.36.43-.25.86-.51,1.28-.76.76,1.14,2.17,2.28,2.16,3.42-.06,8.56-.4,17.12-.65,25.69-.67.17-1.35.33-2.02.5Z"/>
      <path class="cls-2" d="m389.35,388.29c-7-1.97-9.33-7.61-10.04-14.12-1.12-10.26,4.08-20.39,12.42-24.84,6.34-3.39,12.79-2.93,18.03,1.63-5.34-2.64-11.14-3.38-15.85-.04-4.42,3.14-8.64,7.35-11.27,12.03-4.41,7.85-3.19,19.62,6.71,25.34Z"/>
      <path class="cls-2" d="m200.25,367.88c3.25,1.95,4.24,21.61,1.49,29.38-3.15-2.03-4.14-21.4-1.49-29.38Z"/>
      <path class="cls-2" d="m121.67,374.3c12.2,4.57,18.74,33.22,9.7,42.1,4.24-15.68,1.8-29.53-9.7-42.1Z"/>
      <path class="cls-2" d="m198.38,322.81c5.62,1.86,5.67,6.67,6.2,10.92.53,4.26.31,8.63.13,12.94-.06,1.55-.65,3.28-1.54,4.56-3.56,5.09-7.33,10.04-11.62,14.87,1.43-2.85,2.23-6.35,4.39-8.45,10.16-9.93,7.64-20.95,3.51-32.26-.32-.87-.72-1.72-1.08-2.57Z"/>
      <path class="cls-2" d="m432.98,306.03c9.68,3.64,15.13,29.95,7.69,38.9,0-6.04,1.06-13.31-.3-20.1-1.36-6.86-5.11-13.24-7.4-18.8Z"/>
      <path class="cls-2" d="m92.18,376.84c-.55.28-1.3.42-1.63.87-4.7,6.5-11.2,9.42-18.96,9.56,3.84-7.85,11.85-12.16,20.53-10.37,0,0,.06-.06.06-.06Z"/>
      <path class="cls-2" d="m132.74,374.31c10.17,6.08,15.26,30.11,7.77,39.18,0-6.47,1.06-13.8-.3-20.64-1.35-6.75-5.15-13.01-7.47-18.54Z"/>
      <path class="cls-2" d="m135.4,415.28c4.1-17.1,1.17-30.29-9.11-41.03,10.95.83,18.56,34.09,9.11,41.03Z"/>
      <path class="cls-2" d="m172.68,408.88c-4.21,7.71-10.52,10.6-18.97,10.35,4.29-7.25,10.21-10.86,18.97-10.35Z"/>
      <path class="cls-2" d="m123.23,417.54c4.67-15.37,1.4-28.85-8.76-40.69,11.29,2.52,17.64,30.87,8.76,40.69Z"/>
      <path class="cls-2" d="m427.27,306.23c11.52,6.01,16.29,28.66,8.28,41.14,3.96-15.68,1.66-28.91-8.28-41.14Z"/>
      <path class="cls-2" d="m41.37,344.17c9.97,4.39,15.57,29.75,7.91,39.09,0-6.65,1.08-13.99-.31-20.83-1.36-6.68-5.25-12.85-7.6-18.26Z"/>
      <path class="cls-2" d="m127.41,416.66c4.4-15.72,1.16-29.18-9.19-41,11.87,4.55,17.94,30.15,9.19,41Z"/>
      <path class="cls-2" d="m422.8,306.54c11.88,6.19,17.01,29.79,8.63,41.33,4.25-15.71,1.32-29.07-8.63-41.33Z"/>
      <path class="cls-2" d="m111.84,378.12c10.75,5.93,16.01,30.11,8.36,39.11,0-6.11,1.14-13.47-.32-20.27-1.48-6.89-5.54-13.23-8.04-18.84Z"/>
      <path class="cls-2" d="m45.11,384.18c3.31-14.53.67-27.63-8.8-39.15,3.33.37,6.87,4.33,9.22,11.26,3.16,9.33,5.13,18.72-.42,27.89Z"/>
      <path class="cls-2" d="m30.92,344.45c12.52,6.89,17.55,30.72,9.12,41.88,4.46-15.71,1.74-29.08-9.12-41.88Z"/>
      <path class="cls-2" d="m56.41,383.29c4.09-16.23,1.53-29.68-8.74-41.44,11.12,3.9,17.08,29.03,8.74,41.44Z"/>
      <path class="cls-2" d="m244.18,157.49c-5.84-3.09-10.06-5.32-14.7-7.78.66-1.81,1.25-3.43,2.06-5.65,4.26,2.19,8.42,3.88,11.97,6.41,1.05.75.43,3.86.66,7.02Z"/>
      <path class="cls-2" d="m443.6,345.52c4.42-15.7,1.69-29-8.23-40.88,11.08,3.68,16.73,29.71,8.23,40.88Z"/>
      <path class="cls-2" d="m414.55,308.41c11.54,3.81,17.4,31.25,8.69,40.71,3.85-13.63,2.49-28.08-8.69-40.71Z"/>
      <path class="cls-2" d="m418.61,307.4c11.85,5.28,17.17,31.04,8.68,41.09,4.29-15.2,1.59-28.77-8.68-41.09Z"/>
      <path class="cls-2" d="m250.45,141.63c-4.65-2.34-8.91-4.48-13.15-6.62,1.1-4.29,2.88-6.01,6.81-3.63,2.95,1.78,6.04,3.34,9.46,5.21-1.17,1.89-2.08,3.37-3.12,5.04Z"/>
      <path class="cls-2" d="m135.55,214.08c5.07-26.48,3.07-52.51-2.93-78.39,7.18,25.94,8.66,52.11,2.93,78.39Z"/>
      <path class="cls-2" d="m355.83,367.26c-5.99-10.74,3.34-30.14,14.27-30.74-12.65,12.93-13.51,14.75-14.27,30.74Z"/>
      <path class="cls-2" d="m53.22,382.83c3-14.7.97-28.05-9.07-39.54,3.33.4,6.53,3.52,9.03,10.16,3.67,9.78,5.44,19.7.04,29.38Z"/>
      <path class="cls-2" d="m100.6,247.69c17.44-5.92,21.09-21.61,27-35.73-2.89,19.67-15.82,38.83-27,35.73Z"/>
      <path class="cls-2" d="m28.11,346.34c10.82,4.1,16.47,33.17,7.9,40.16,4.62-14.89,1.41-27.9-7.9-40.16Z"/>
      <path class="cls-2" d="m61.91,82.1c0,5.32.1,10.63-.09,15.94-.03.95-1.09,2.2-2,2.64-.49.24-2.41-.93-2.43-1.51-.16-4.81-.19-9.64.1-14.44.09-1.53,1.27-2.99,1.96-4.48.82.62,1.64,1.23,2.46,1.85Z"/>
      <path class="cls-2" d="m52.18,341.21c11.34,6.26,16.51,29.41,8.89,39.38,3.39-14.67.59-27.47-8.89-39.38Z"/>
      <path class="cls-2" d="m247.2,121.02c2.67-5.87,3.08-5.18,16.05,2.92-1.76,3.85-4.04,4.57-7.63,1.91-2.6-1.93-5.64-3.27-8.42-4.83Z"/>
      <path class="cls-2" d="m418.71,350.82c4.91-16.98,2.02-30.52-8.29-41.12,11.22,2.15,17.45,30.14,8.29,41.12Z"/>
      <path class="cls-2" d="m264.05,335.96c1.38,11.2,2.75,22.4,4.13,33.6-.33.04-.66.08-.99.12-1.38-10.85-2.77-21.7-4.14-32.47-8.01,1.79-14.83,3.3-21.65,4.82-.12-.56-.24-1.13-.36-1.69,7.7-1.43,15.4-2.86,23.09-4.3,0,0-.08-.08-.08-.08Z"/>
      <path class="cls-2" d="m226.39,160.08c3.84,1.92,7.82,3.55,11.33,5.87,1.13.75,1.05,3.34,1.63,5.48-10.41-1.25-15.03-5.41-12.96-11.36Z"/>
      <path class="cls-2" d="m396.47,345.06c-16.34,7.55-20.92,17.25-17.88,35.97-9.15-11.5.71-32.74,17.88-35.97Z"/>
      <path class="cls-2" d="m144.46,411.58c2.48-15,.36-27.91-9.95-39.18,11.05,5.57,16.83,27.87,9.95,39.18Z"/>
      <path class="cls-2" d="m60.5,219.88v18.32q-3.78-.62-4.02-9.54-.21-7.85,4.02-8.77Z"/>
      <path class="cls-2" d="m396.25,312.51c1.52-1.7,3.05-3.41,5.06-5.64,2.62,2.82,5.12,5.49,7.83,8.4-9.42,3.65-9.58,3.61-12.88-2.76Z"/>
      <path class="cls-2" d="m259.14,108.74c3.89-3.88,7.08-2.98,15.44,4.12-3.64,4.02-5.58,3.52-15.44-4.12Z"/>
      <path class="cls-2" d="m252.1,374.02c-3.78,3.87-8.37,7.24-11.16,11.72-5.93,9.51-4.47,19.15,2.98,27.34-4.68-1.33-7.77-7.28-7.79-15.03-.03-11.08,6.79-21.4,15.91-24.1l.05.07Z"/>
      <path class="cls-2" d="m230.12,361.36c-10.93,7-15.85,16.76-16.2,29.37-4.28-10.86,3.95-25.9,16.2-29.37Z"/>
      <path class="cls-2" d="m171.12,331.07c-6.4,3.7-10.35.29-14.14-4.05,6.49-2.74,8.7-2.11,14.14,4.05Z"/>
      <path class="cls-2" d="m68.54,316.4c2.51,3.62,4.01,5.78,5.99,8.63-3.94.95-7.5,1.81-11.05,2.67-.4-.28-.81-.56-1.21-.84,1.93-3.21,3.85-6.42,6.27-10.46Z"/>
      <path class="cls-2" d="m95.71,321.64c.3-13.3,1.26-26.59-15.22-32.15,1.96.22,4.14-.04,5.85.74,8.65,3.94,14.19,22.09,9.38,31.41Z"/>
      <path class="cls-2" d="m448.89,341.7c2.14-12.9.51-25.03-7.92-36.27,9.22,6.88,13.3,25.83,7.92,36.27Z"/>
      <path class="cls-2" d="m322.82,237.98c.67,1.41,2.04,2.91,1.87,4.21-.6,4.58,2.3,10.05-3.37,14.59v-18.2c.5-.2,1-.4,1.5-.6Z"/>
      <path class="cls-2" d="m164.31,322.55c7.16-.16,12.66,6.9,14.35,18.43,1.43,9.69.41,13.21-4.19,14.46,7.28-9.78,2.86-24.11-10.16-32.89Z"/>
      <path class="cls-2" d="m235.39,362.28c-13.72,7.39-18.75,18.41-17.49,32.92-6.05-11.11,5.6-31.26,17.49-32.92Z"/>
      <path class="cls-2" d="m201.67,447.56c.47-8.23.94-16.43,1.38-24.11,3.95,3.68,2.89,22.35-1.38,24.11Z"/>
      <path class="cls-2" d="m272.58,98.67c7.32-2.85,10.28,3.66,15.4,4.58-3.48,3.92-6.03,3.15-15.4-4.58Z"/>
      <path class="cls-2" d="m321.74,97.7c4.12,5.9,2.4,12.05,2.97,17.92-3.91-.56-5.19-8.29-2.97-17.92Z"/>
      <path class="cls-2" d="m416.55,345.07c-.43-4.62-.67-9.27-1.33-13.85-.63-4.39-1.7-8.71-2.28-13.1,4.95,8.46,6.07,17.45,3.61,26.95Z"/>
      <path class="cls-2" d="m239.76,366.04c-11.7,7-17.6,17.02-16.26,30.59-4.66-8.54,3.49-27.8,16.26-30.59Z"/>
      <path class="cls-2" d="m226.46,399.96c-4.02-12.89,3.91-29.16,14.54-31.52-11.22,7.07-15.9,17.51-14.54,31.52Z"/>
      <path class="cls-2" d="m141.14,360.01c2.17-4.28,3.53-6.95,5.31-10.45,2.16,3.12,3.7,5.35,5.77,8.33-3.6.69-6.61,1.26-11.07,2.12Z"/>
      <path class="cls-2" d="m362.54,372.16c-4.78-12.34,2.04-28.07,15-33.07-12.67,8.28-17.28,19.14-15,33.07Z"/>
      <path class="cls-2" d="m178.74,428.43c1.62,6.51,1.5,13.08-1.49,19.3-.75,1.57-3.37,2.26-5.72,3.71,2.57-4.29,5.48-7.37,6.24-10.91.82-3.78-.38-7.99-.7-12.02.55-.03,1.11-.05,1.66-.08Z"/>
      <path class="cls-2" d="m378.76,179.25c-4.33,3.17-11.41,4.01-14.77,1.75,4.93-3.25,12.2-4.11,14.77-1.75Z"/>
      <path class="cls-2" d="m370.79,373.16c-3.5-10.69,2.22-23.21,13.08-28.59-9.48,7.19-14.25,16.54-13.08,28.59Z"/>
      <path class="cls-2" d="m133.29,317.34c-6.19,3.1-11.64,5.84-17.1,8.57,2.03-4.65,13.17-10.07,17.1-8.57Z"/>
      <path class="cls-2" d="m220.51,395.77c-2.79-10.88,2.05-23.47,10.75-28.01-8.08,7.67-11.83,16.94-10.75,28.01Z"/>
      <path class="cls-2" d="m377.21,345.84c-7.28,7.58-10.53,16.42-8.96,27.93-3.56-10.55.3-22.02,8.96-27.93Z"/>
      <path class="cls-2" d="m96.9,336.48c4.31,10.84,3.26,24.41,3.12,38.94-1.15-14.34-2.22-27.67-3.12-38.94Z"/>
      <path class="cls-2" d="m128.03,49.92l-9.73-2.27c-.08-.67-.16-1.33-.24-2,1.27-.82,3.15-2.62,3.72-2.28,2.59,1.58,7.14,1.64,6.25,6.56,0,0,.01-.01.01-.01Z"/>
      <path class="cls-2" d="m364.74,370.45c-2.63-11.7,2.84-23.64,13.26-28.76-9.72,7.16-13.83,16.89-13.26,28.76Z"/>
      <path class="cls-2" d="m226.11,207.39c4.39,2.4,8.78,4.81,13.17,7.21-.36.61-.71,1.23-1.07,1.84-4.64-2.07-9.69-3.41-13.26-7.32.39-.58.77-1.15,1.16-1.73Z"/>
      <path class="cls-2" d="m113.42,54.01c2.35,1.59,4.51,3.04,6.76,4.57-1.72,4.45-4.15,3.08-6.79,1.64-3.27-1.79-2.73-3.65.03-6.21Z"/>
      <path class="cls-2" d="m390.56,400.81c-.74-5.9,3.4-6.63,7.65-7.27.12,5.26-1.84,7.13-7.65,7.27Z"/>
      <path class="cls-2" d="m398.7,303.68c-1.33,5.67-1.8,6.12-6.75,6.57-1.15-6.22,0-7.34,6.75-6.57Z"/>
      <path class="cls-2" d="m94.1,414.43c-1.63.5-2.8.86-4.51,1.39v-14.34c1.5,4.31,2.89,8.31,4.51,12.95Z"/>
      <path class="cls-2" d="m33.11,385.74c3.86-9.9,1.82-19.61-.99-29.31,4.34,9.62,6.07,19.35.99,29.31Z"/>
      <path class="cls-2" d="m138.09,38.88c-4.41,2.5-6.83-1.34-11.29-3.25,2.26-1.18,4.12-2.73,4.7-2.35,2.39,1.57,4.38,3.73,6.52,5.67,0,0,.07-.08.07-.08Z"/>
      <path class="cls-2" d="m116.03,417.92c3.08-9.25,2.13-18.47-.28-27.67,3.69,9.19,5.2,18.4.28,27.67Z"/>
      <path class="cls-2" d="m383.85,347.75c-7.01,6.59-10.42,14.72-11.01,24.17-1.07-10.2,2.79-18.21,11.01-24.17Z"/>
      <path class="cls-2" d="m322.33,274.92c-5.92-2.18-6.61-4.6-3.78-12.8,1.16,3.93,2.32,7.85,3.78,12.8Z"/>
      <path class="cls-2" d="m148.63,28.76q-3.23,2.95-9.67-1.92c2.93-3.29,3.75-3.13,9.67,1.92Z"/>
      <path class="cls-2" d="m254.34,206.94c-4.82.39-9.64.79-14.46,1.18-.07-.65-.13-1.3-.2-1.94,4.8-.68,9.6-1.36,14.41-2.04.08.94.17,1.87.25,2.81Z"/>
      <path class="cls-2" d="m228.64,398.08c-1.31-10.39,1.96-18.92,10.29-25.36-6.92,7.04-10.36,15.48-10.29,25.36Z"/>
      <path class="cls-2" d="m231.48,400.01c-1.38-10.05,1.53-18.54,9.21-25.29-6.27,7.26-9.28,15.71-9.21,25.29Z"/>
      <path class="cls-2" d="m161.4,21.83c-4.87,3.73-7.02-1.29-10.45-2.16,3.36-3.34,3.56-3.29,10.45,2.16Z"/>
      <path class="cls-1" d="m228.32,231.42c5.05,4.28,10.11,8.57,15.17,12.85-.16.52-.33,1.04-.49,1.56-5.01-4.16-10.03-8.29-14.97-12.53-.25-.22.18-1.24.3-1.89Z"/>
      <path class="cls-2" d="m367.12,342.6c-5.57,7.2-8.75,15.15-8.41,24.35-1.56-9.6,1.23-17.75,8.41-24.35Z"/>
      <path class="cls-2" d="m393.77,284.16c-3.39.87-6.99,2.55-8.29-4.13,2.92.81,5.84,1.62,8.76,2.44l-.47,1.7Z"/>
      <path class="cls-2" d="m141.22,244.37v7.24c-1.84-.58-3.15-.99-4.11-1.29-1.49-2.63.8-5.73,4.11-5.95Z"/>
      <path class="cls-2" d="m297.81,303.05c2.83-2.67,4.81-8.96,10.36-2.56-3.73.92-7.05,1.74-10.36,2.56Z"/>
      <path class="cls-2" d="m163.12,355.15l10.3-4.64c.32.69.65,1.38.97,2.07-3.4,1.62-6.8,3.24-10.2,4.86-.36-.77-.72-1.53-1.07-2.3Z"/>
      <path class="cls-2" d="m25.78,154.7c3.14,1.43,6.28,2.85,9.42,4.28l-.52,1.53c-3.95,1.14-6.66-1.74-9.66-3.7.26-.71.51-1.41.77-2.12Z"/>
      <path class="cls-2" d="m289.84,91.25c3.61,1.93,7.22,3.87,11.31,6.05-3.88,1.4-7.53-.3-11.31-6.05Z"/>
      <path class="cls-2" d="m174.55,445.55l-10.26,3.16c-.24-.68-.48-1.36-.72-2.04,3.38-1.21,6.76-2.42,10.14-3.63.28.84.56,1.67.84,2.51Z"/>
      <path class="cls-2" d="m98.02,195.37c4.27-1.63,6.73,1.99,9.89,3.59-.17.49-.34.98-.52,1.47-3.3-1.18-6.6-2.36-9.9-3.54.18-.5.35-1.01.53-1.51Z"/>
      <path class="cls-2" d="m158.45,281.45v10.39c-2.79-1.5-3.07-4.11,0-10.39Z"/>
      <path class="cls-2" d="m241.73,227.72c-3.96-1.99-7.92-3.99-11.87-5.98.25-.5.5-.99.75-1.49,3.99,1.92,7.99,3.85,11.98,5.77-.29.57-.57,1.13-.86,1.7Z"/>
      <path class="cls-2" d="m171.92,237.52c-.33,3.64-.66,7.28-.99,10.92-.52-.06-1.04-.11-1.56-.17.22-3.65.43-7.29.65-10.94.63.06,1.27.12,1.9.19Z"/>
      <path class="cls-2" d="m165.76,12.66l8.17,3.41c-.23.62-.46,1.23-.69,1.85-2.77-1.02-5.55-2.04-8.32-3.06.28-.74.56-1.47.84-2.21Z"/>
      <path class="cls-2" d="m356.64,137.09c2.26,4.77,4.53,9.55,6.79,14.32-.42.2-.83.4-1.25.59-2.11-4.85-4.22-9.69-6.33-14.54l.79-.37Z"/>
      <path class="cls-2" d="m252.05,373.95c6.02-3.07,11.01-2.71,14.55.07-3.91,0-9.2,0-14.5,0,0,0-.05-.07-.05-.07Z"/>
      <path class="cls-1" d="m268.46,393.35c-.08,7.77-6.45,14.87-13.29,14.81-5.76-.05-10.18-5.03-10.06-11.35.15-7.89,6.88-15.35,13.66-15.13,5.71.18,9.76,5.06,9.69,11.67Zm-19.69,9.03c3.64,4.54,7.47,4.44,11.45,2.17,5.02-2.86,7.59-9.69,5.76-15.07-1.19-3.52-3.27-5.94-7.91-5.16.34,7.69-2.69,13.62-9.31,18.06Zm7.17-17.37c-6.69,1.88-10.09,8.73-7.39,14.72,5.37-3.29,7.75-7.97,7.39-14.72Z"/>
      <path class="cls-1" d="m409.36,366.91c0,7.54-6.29,14.54-13.03,14.5-5.67-.03-9.46-4.37-9.34-10.68.14-7.34,6.33-14.34,12.71-14.39,5.46-.04,9.67,4.56,9.66,10.56Zm-19.1,8.69c2.4,3.94,5.52,4.78,9.43,3.2,5.79-2.34,9.3-10.22,6.73-15.75-.76-1.64-2.44-3.2-4.08-3.95-.81-.37-3.57,1.09-3.63,1.86-.45,6.26-3.62,10.84-8.46,14.65Zm-.5-3.21c5.14-2.73,7.4-7.29,6.24-12.55-5.42,2.85-7.32,6.67-6.24,12.55Z"/>
      <path class="cls-1" d="m94.22,398c0-.33-.03-.67,0-.99.38-3.32.52-7.25,4.58-7.89,4.05-.64,6.64,2.45,7.36,6,.86,4.26,1.44,8.84.8,13.08-.69,4.56-5.28,5.66-8.05,1.96-2.55-3.41-3.88-7.74-5.75-11.66.36-.17.71-.33,1.07-.5Zm1.09-.58c1.45,3.9,2.4,7.23,3.95,10.25.6,1.17,2.81,2.48,3.85,2.19,1.14-.32,2.49-2.41,2.51-3.74.05-3.26-.06-6.74-1.19-9.71-.79-2.07-3.39-3.46-5.18-5.15-1.3,2.03-2.59,4.06-3.95,6.17Z"/>
      <path class="cls-1" d="m11.8,367.25c.68-3.11.82-4.99,1.5-6.65,1.76-4.3,5.72-5,8.54-1.31,3.72,4.86,5.1,10.52,3.3,16.5-1.52,5.03-5.87,6-8.88,1.7-2.28-3.26-3.28-7.42-4.46-10.24Zm12.39,2.64c-.9-2.34-1.75-5.77-3.45-8.7-1.7-2.92-4.33-2.56-5.7.29-1.78,3.71-.15,12.26,2.86,15.07,2.33,2.18,4.24,1.73,5.4-1.12.54-1.34.5-2.92.9-5.54Z"/>
      <path class="cls-1" d="m72.73,402.58c.38-2.31.28-3.96.95-5.2.78-1.45,2.14-3.45,3.4-3.58,1.6-.16,4.41.97,4.85,2.2,1.34,3.77,2.23,7.84,2.39,11.84.06,1.54-2.09,4.22-3.59,4.5-1.6.3-4.27-1.16-5.31-2.66-1.52-2.21-2-5.13-2.7-7.1Zm7.49,7.47c2.93-3.82,2.93-10.11-.23-12.68-.67-.55-3.75.37-4.25,1.35-1.94,3.84.07,8.58,4.47,11.33Z"/>
      <path class="cls-1" d="m162.22,346.37c-1.66,2-3.32,5.92-5.54,6.27-4.22.65-5.9-3.6-6.89-7.14-.51-1.83-.46-4.11.16-5.89.73-2.1,2.17-5.26,3.63-5.46,1.8-.24,4.55,1.69,5.79,3.45,1.44,2.04,1.68,4.92,2.84,8.78Zm-5.63,4.34c3.09-4.11,3.4-9.27.55-12.77-.71-.88-2.17-1.53-3.29-1.53-.56,0-1.48,1.67-1.6,2.66-.56,4.57-.51,9.02,4.33,11.65Z"/>
      <path class="cls-1" d="m70.84,307.79c1.7-2.34,2.95-5.91,5.2-6.73,4.06-1.48,5.61,2.42,6.7,5.63.64,1.86,1.53,4.08,1.05,5.78-.73,2.61-2.03,6.32-4,7.03-3.32,1.19-5.71-1.83-6.82-5.06-.64-1.86-.86-3.87-1.28-5.81-.29-.28-.57-.56-.86-.84Zm9.07,9.17c2.1-4.08,2.14-8.22-.15-11.74-.56-.87-1.64-1.69-2.62-1.9-.59-.13-1.75.79-2.13,1.51-2.4,4.55-.09,10.12,4.9,12.14Z"/>
      <path class="cls-1" d="m149.74,433.72c.56-3.02-.51-8.06,4.67-8.48,4.78-.39,5.53,4.36,6.74,7.93.05.15.06.32.09.49.94,5.63-.71,10.01-3.96,10.49-3.77.55-7.47-4.29-7.53-10.43Zm6.64,7.82c3.39-3.38,3.52-9.65.25-12.72-1.88-1.77-3.24-1.27-4.11,1.02-1.5,3.96.13,8.88,3.86,11.7Z"/>
      <path class="cls-2" d="m248.78,402.38c6.62-4.44,9.65-10.37,9.31-18.06,4.64-.79,6.71,1.63,7.91,5.16,1.82,5.38-.74,12.21-5.76,15.07-3.97,2.26-7.81,2.37-11.45-2.17Z"/>
      <path class="cls-2" d="m255.95,385.01c.36,6.75-2.02,11.43-7.39,14.72-2.7-5.99.7-12.83,7.39-14.72Z"/>
      <path class="cls-2" d="m390.26,375.61c4.84-3.81,8.01-8.39,8.46-14.65.05-.76,2.81-2.23,3.63-1.86,1.64.75,3.32,2.31,4.08,3.95,2.56,5.54-.95,13.42-6.73,15.75-3.91,1.58-7.04.74-9.43-3.2Z"/>
      <path class="cls-2" d="m389.76,372.4c-1.08-5.89.82-9.7,6.24-12.55,1.17,5.26-1.1,9.82-6.24,12.55Z"/>
      <path class="cls-2" d="m95.32,397.42c1.35-2.12,2.65-4.14,3.95-6.17,1.79,1.69,4.39,3.08,5.18,5.15,1.13,2.97,1.24,6.45,1.19,9.71-.02,1.34-1.37,3.42-2.51,3.74-1.04.29-3.25-1.02-3.85-2.19-1.55-3.02-2.51-6.35-3.95-10.25Z"/>
      <path class="cls-2" d="m24.18,369.9c-.4,2.63-.36,4.2-.9,5.54-1.15,2.85-3.06,3.3-5.4,1.12-3.01-2.81-4.63-11.36-2.86-15.07,1.37-2.85,4-3.2,5.7-.29,1.7,2.93,2.56,6.35,3.45,8.7Z"/>
      <path class="cls-2" d="m80.22,410.05c-4.4-2.75-6.41-7.49-4.47-11.33.5-.99,3.57-1.9,4.25-1.35,3.16,2.57,3.15,8.86.23,12.68Z"/>
      <path class="cls-2" d="m156.59,350.71c-4.84-2.62-4.89-7.07-4.33-11.65.12-.99,1.05-2.66,1.6-2.66,1.12,0,2.58.65,3.29,1.53,2.84,3.51,2.54,8.66-.55,12.77Z"/>
      <path class="cls-2" d="m79.92,316.96c-4.99-2.01-7.3-7.59-4.9-12.14.38-.72,1.54-1.64,2.13-1.51.98.21,2.06,1.03,2.62,1.9,2.28,3.53,2.25,7.67.15,11.74Z"/>
      <path class="cls-2" d="m156.37,441.54c-3.73-2.82-5.36-7.74-3.86-11.7.87-2.29,2.23-2.79,4.11-1.02,3.27,3.08,3.14,9.35-.25,12.72Z"/>
    </g>
  </g>
</svg>